G04*
G04 #@! TF.GenerationSoftware,Altium Limited,Altium Designer,20.1.7 (139)*
G04*
G04 Layer_Physical_Order=1*
G04 Layer_Color=255*
%FSLAX44Y44*%
%MOMM*%
G71*
G04*
G04 #@! TF.SameCoordinates,D9D12B98-CB1C-4D42-AED5-E8A1094860EB*
G04*
G04*
G04 #@! TF.FilePolarity,Positive*
G04*
G01*
G75*
%ADD13C,0.2540*%
G04:AMPARAMS|DCode=43|XSize=0.4mm|YSize=0.3mm|CornerRadius=0mm|HoleSize=0mm|Usage=FLASHONLY|Rotation=0.000|XOffset=0mm|YOffset=0mm|HoleType=Round|Shape=Octagon|*
%AMOCTAGOND43*
4,1,8,0.2000,-0.0750,0.2000,0.0750,0.1250,0.1500,-0.1250,0.1500,-0.2000,0.0750,-0.2000,-0.0750,-0.1250,-0.1500,0.1250,-0.1500,0.2000,-0.0750,0.0*
%
%ADD43OCTAGOND43*%

G04:AMPARAMS|DCode=44|XSize=0.4mm|YSize=0.3mm|CornerRadius=0mm|HoleSize=0mm|Usage=FLASHONLY|Rotation=90.000|XOffset=0mm|YOffset=0mm|HoleType=Round|Shape=Octagon|*
%AMOCTAGOND44*
4,1,8,0.0750,0.2000,-0.0750,0.2000,-0.1500,0.1250,-0.1500,-0.1250,-0.0750,-0.2000,0.0750,-0.2000,0.1500,-0.1250,0.1500,0.1250,0.0750,0.2000,0.0*
%
%ADD44OCTAGOND44*%

%ADD45R,0.3000X0.5000*%
%ADD46R,0.5000X0.3000*%
%ADD47R,2.2000X1.6000*%
G04:AMPARAMS|DCode=48|XSize=1.55mm|YSize=0.6mm|CornerRadius=0.3mm|HoleSize=0mm|Usage=FLASHONLY|Rotation=270.000|XOffset=0mm|YOffset=0mm|HoleType=Round|Shape=RoundedRectangle|*
%AMROUNDEDRECTD48*
21,1,1.5500,0.0000,0,0,270.0*
21,1,0.9500,0.6000,0,0,270.0*
1,1,0.6000,0.0000,-0.4750*
1,1,0.6000,0.0000,0.4750*
1,1,0.6000,0.0000,0.4750*
1,1,0.6000,0.0000,-0.4750*
%
%ADD48ROUNDEDRECTD48*%
%ADD49R,0.8500X0.8500*%
%ADD50R,2.0000X1.0000*%
%ADD51R,0.8500X0.8500*%
%ADD52R,0.8000X0.3000*%
%ADD53R,0.3000X0.8000*%
%ADD54R,3.1500X3.1500*%
%ADD55R,1.0000X1.6000*%
%ADD56R,1.0000X0.5000*%
%ADD57R,13.0000X10.7000*%
%ADD58R,3.3000X2.4000*%
G04:AMPARAMS|DCode=59|XSize=1.55mm|YSize=0.6mm|CornerRadius=0.3mm|HoleSize=0mm|Usage=FLASHONLY|Rotation=180.000|XOffset=0mm|YOffset=0mm|HoleType=Round|Shape=RoundedRectangle|*
%AMROUNDEDRECTD59*
21,1,1.5500,0.0000,0,0,180.0*
21,1,0.9500,0.6000,0,0,180.0*
1,1,0.6000,-0.4750,0.0000*
1,1,0.6000,0.4750,0.0000*
1,1,0.6000,0.4750,0.0000*
1,1,0.6000,-0.4750,0.0000*
%
%ADD59ROUNDEDRECTD59*%
%ADD60C,0.5000*%
%ADD61C,0.4000*%
%ADD62C,1.0000*%
%ADD63C,0.3810*%
%ADD64C,2.2000*%
%ADD65C,1.6000*%
%ADD66P,1.7318X8X202.5*%
%ADD67C,2.0000*%
%ADD68R,2.0000X2.0000*%
%ADD69C,0.7000*%
%ADD70P,1.5154X8X292.5*%
%ADD71C,1.4000*%
%ADD72O,2.0000X1.5000*%
%ADD73P,1.5154X8X202.5*%
%ADD74P,2.1648X8X112.5*%
%ADD75C,0.6000*%
%ADD76C,0.4000*%
G36*
X546461Y480394D02*
X544461Y479058D01*
X543999Y479249D01*
Y475000D01*
Y470750D01*
X544461Y470941D01*
X546461Y469605D01*
Y450394D01*
X544461Y449058D01*
X543999Y449249D01*
Y445000D01*
Y440750D01*
X544461Y440941D01*
X546461Y439605D01*
Y420394D01*
X544461Y419058D01*
X543999Y419249D01*
Y415000D01*
Y410750D01*
X544461Y410941D01*
X546461Y409605D01*
Y390394D01*
X544461Y389058D01*
X543999Y389249D01*
Y385000D01*
Y380750D01*
X544461Y380941D01*
X546461Y379605D01*
X546461Y360394D01*
X544461Y359058D01*
X543999Y359249D01*
Y355000D01*
Y350750D01*
X544461Y350941D01*
X546461Y349605D01*
Y327320D01*
X544798Y326208D01*
X544500Y326332D01*
Y321000D01*
Y315668D01*
X544798Y315791D01*
X546461Y314680D01*
Y300394D01*
X544461Y299058D01*
X543999Y299249D01*
Y295000D01*
Y290750D01*
X544461Y290941D01*
X546461Y289605D01*
Y276130D01*
X545250Y275322D01*
Y269500D01*
Y263678D01*
X546461Y262870D01*
Y240394D01*
X544461Y239058D01*
X543999Y239249D01*
Y235000D01*
Y230750D01*
X544461Y230941D01*
X546461Y229605D01*
Y210394D01*
X544461Y209058D01*
X543999Y209249D01*
Y205000D01*
Y200750D01*
X544461Y200941D01*
X546461Y199605D01*
Y180394D01*
X544461Y179058D01*
X543999Y179249D01*
Y175000D01*
Y170750D01*
X544461Y170941D01*
X546461Y169605D01*
Y150394D01*
X544461Y149058D01*
X543999Y149249D01*
Y145000D01*
Y140750D01*
X544461Y140941D01*
X546461Y139605D01*
X546461Y120394D01*
X544461Y119058D01*
X543999Y119249D01*
Y115000D01*
Y110750D01*
X544461Y110941D01*
X546461Y109605D01*
Y90394D01*
X544461Y89058D01*
X543999Y89249D01*
Y85000D01*
Y80750D01*
X544461Y80941D01*
X546461Y79605D01*
Y60395D01*
X544461Y59058D01*
X543999Y59249D01*
Y55000D01*
Y50750D01*
X544461Y50941D01*
X546461Y49605D01*
Y30394D01*
X544461Y29058D01*
X543999Y29249D01*
Y25000D01*
Y20750D01*
X544461Y20941D01*
X546461Y19605D01*
Y3539D01*
X536388D01*
X535991Y5539D01*
X538444Y6556D01*
X539249Y8500D01*
X530750D01*
X531555Y6556D01*
X534009Y5539D01*
X533611Y3539D01*
X521388D01*
X520991Y5539D01*
X523444Y6556D01*
X524249Y8500D01*
X520000D01*
Y11500D01*
X524249D01*
X523444Y13444D01*
X521683Y14173D01*
X522080Y16173D01*
X523500D01*
X528857Y18392D01*
X531857Y21392D01*
X534077Y26750D01*
Y92250D01*
X533446Y93772D01*
X534860Y95187D01*
X535000Y95129D01*
X538444Y96556D01*
X539249Y98500D01*
X535000D01*
Y100000D01*
X533500D01*
Y104249D01*
X531555Y103444D01*
X530709Y101401D01*
X529766Y100080D01*
X528281Y100407D01*
X524250Y102077D01*
X511683D01*
X510700Y104450D01*
X500750Y108571D01*
X490800Y104450D01*
X486679Y94500D01*
X490800Y84550D01*
X500750Y80429D01*
X510700Y84550D01*
X511683Y86923D01*
X518923D01*
Y31327D01*
X511993D01*
X510700Y34450D01*
X500750Y38571D01*
X495551Y36418D01*
X494021Y37949D01*
X494249Y38500D01*
X485750D01*
X486555Y36556D01*
X489198Y35461D01*
X490033Y34934D01*
X490316Y33281D01*
X488128Y27999D01*
X486128D01*
X485944Y28444D01*
X484000Y29249D01*
Y25000D01*
X482500D01*
Y23500D01*
X478250D01*
X479055Y21556D01*
X480211Y21077D01*
X479813Y19077D01*
X470186D01*
X469788Y21077D01*
X470944Y21556D01*
X471749Y23500D01*
X463250D01*
X464055Y21556D01*
X465211Y21077D01*
X464813Y19077D01*
X455186D01*
X454788Y21077D01*
X455944Y21556D01*
X456749Y23500D01*
X452500D01*
Y26500D01*
X456749D01*
X455944Y28444D01*
X452500Y29870D01*
X451373Y30997D01*
X451582Y31500D01*
X440918D01*
X441359Y30437D01*
X439828Y28906D01*
X439000Y29249D01*
Y25000D01*
X437500D01*
Y23500D01*
X433250D01*
X434055Y21556D01*
X435211Y21077D01*
X434814Y19077D01*
X425186D01*
X424788Y21077D01*
X425944Y21556D01*
X426749Y23500D01*
X418250D01*
X419055Y21556D01*
X420211Y21077D01*
X419814Y19077D01*
X403753D01*
X403355Y21077D01*
X414081Y25519D01*
X417800Y34500D01*
X402600D01*
Y39500D01*
X417800D01*
X414081Y48481D01*
X411118Y49708D01*
X411081Y51888D01*
X411749Y53500D01*
X401814D01*
X401400Y52739D01*
X398018Y51338D01*
X396488Y52869D01*
X396749Y53500D01*
X388250D01*
X389055Y51556D01*
X391186Y50673D01*
Y48508D01*
X391119Y48481D01*
X389276Y44031D01*
X387276D01*
X386384Y46184D01*
X377200Y49989D01*
X368016Y46184D01*
X365500Y40111D01*
X363500D01*
X360984Y46184D01*
X351800Y49989D01*
X342616Y46184D01*
X340100Y40111D01*
X338100D01*
X335584Y46184D01*
X326400Y49989D01*
X321800Y48083D01*
X320667Y49779D01*
X353268Y82379D01*
X364750D01*
Y81000D01*
X376457D01*
X378250Y80500D01*
X379043Y80500D01*
X383250D01*
Y87250D01*
X385000D01*
Y89000D01*
X391750D01*
Y93000D01*
Y98000D01*
X385000D01*
Y101500D01*
X391750D01*
Y106500D01*
X391250D01*
Y118750D01*
X391250D01*
Y119000D01*
X391250D01*
Y122879D01*
X396500D01*
Y120750D01*
X404397D01*
X404795Y118750D01*
X404055Y118444D01*
X403250Y116500D01*
X411749D01*
X410944Y118444D01*
X410204Y118750D01*
X410602Y120750D01*
X420500D01*
Y134750D01*
X396500D01*
Y132621D01*
X387500D01*
X384794Y131500D01*
X379543D01*
X377750Y132000D01*
X376957Y132000D01*
X372750D01*
Y125250D01*
X371000D01*
Y123500D01*
X364250D01*
Y118500D01*
X364750D01*
Y106250D01*
X364750Y106250D01*
X364051Y104539D01*
X337750D01*
Y107461D01*
X350342D01*
X352250Y106670D01*
X355312Y107938D01*
X356580Y111000D01*
X355312Y114061D01*
X352250Y115330D01*
X350342Y114539D01*
X337250D01*
Y118750D01*
X337750Y119250D01*
Y122750D01*
X336000Y124500D01*
X335137D01*
X333289Y125000D01*
Y129214D01*
X335289Y129612D01*
X335714Y128588D01*
X336555Y126556D01*
X338500Y125750D01*
Y130000D01*
Y134249D01*
X336555Y133444D01*
X335714Y131412D01*
X335289Y130387D01*
X333289Y130785D01*
Y135696D01*
X333830Y137000D01*
X333292Y138298D01*
X334403Y139961D01*
X348784D01*
X349895Y138298D01*
X349668Y137750D01*
X360332D01*
X360105Y138298D01*
X361216Y139961D01*
X415750D01*
X418253Y140997D01*
X430503Y153247D01*
X431539Y155750D01*
Y172403D01*
X433539Y172801D01*
X434055Y171556D01*
X436000Y170750D01*
Y175000D01*
Y179249D01*
X434055Y178444D01*
X433539Y177198D01*
X431539Y177596D01*
Y194500D01*
X434250D01*
Y207000D01*
X421750D01*
Y207000D01*
X420250D01*
Y207000D01*
X407750D01*
Y205971D01*
X402807D01*
X401500Y206512D01*
Y208388D01*
X405327Y209973D01*
X406912Y213800D01*
X406314Y215245D01*
Y220888D01*
X407250Y222500D01*
X419750D01*
Y222500D01*
X421250D01*
Y222500D01*
X433750D01*
Y234207D01*
X434250Y236000D01*
X434250Y236000D01*
X434250Y236000D01*
Y241000D01*
X427500D01*
Y244500D01*
X434250D01*
Y250014D01*
X436250Y251249D01*
X438250Y250420D01*
X441125Y251611D01*
X444000Y250420D01*
X447062Y251688D01*
X448330Y254750D01*
X447539Y256658D01*
Y260250D01*
X446503Y262753D01*
X443256Y266000D01*
X444084Y268000D01*
X451750D01*
Y269000D01*
X461250Y269000D01*
X461250Y278500D01*
X462250D01*
Y288000D01*
X462750D01*
Y293461D01*
X465534D01*
X468398Y290596D01*
X469188Y288689D01*
X472250Y287420D01*
X475312Y288689D01*
X476580Y291750D01*
X475312Y294811D01*
X473404Y295602D01*
X470129Y298876D01*
X470253Y299497D01*
X472904Y302148D01*
X474812Y302938D01*
X476080Y306000D01*
X474812Y309062D01*
X471750Y310330D01*
X468689Y309062D01*
X467898Y307154D01*
X466284Y305539D01*
X462250D01*
Y315500D01*
X461250D01*
X461250Y319877D01*
X468623Y327250D01*
X500000D01*
Y339750D01*
X500500Y340750D01*
X500500D01*
Y345750D01*
X493750D01*
Y347500D01*
X492000D01*
Y354250D01*
X483000D01*
Y347500D01*
X479500D01*
Y354250D01*
X474500D01*
Y353750D01*
X462500D01*
Y351039D01*
X460500D01*
X457997Y350003D01*
X440747Y332753D01*
X439711Y330250D01*
Y326000D01*
X414750D01*
Y325000D01*
X405250Y325000D01*
X405250Y315500D01*
X404250D01*
Y308500D01*
Y298500D01*
Y288500D01*
Y278500D01*
X405250D01*
X405250Y269000D01*
X405250Y269000D01*
X405250D01*
X404532Y268666D01*
X404055Y268444D01*
X403768Y267750D01*
X403250Y266500D01*
X407500D01*
Y263500D01*
X403250D01*
X403934Y261848D01*
X402667Y260331D01*
X400250Y261332D01*
Y256000D01*
X398750D01*
Y254500D01*
X393418D01*
X394540Y251791D01*
X396449Y251000D01*
X396051Y249000D01*
X394750D01*
Y236500D01*
X394750D01*
Y235621D01*
X393321Y233621D01*
X391250D01*
Y241500D01*
X377250D01*
Y240500D01*
X361250D01*
Y241500D01*
X347250D01*
Y241371D01*
X286000D01*
X282556Y239944D01*
X267056Y224444D01*
X265629Y221000D01*
Y216721D01*
X261316Y214934D01*
X257511Y205750D01*
X261316Y196566D01*
X265699Y194750D01*
X265301Y192750D01*
X264500D01*
X258500Y186750D01*
Y174750D01*
X264500Y168750D01*
X276500D01*
X278579Y170829D01*
X336693D01*
X338000Y170288D01*
X347500D01*
X351327Y171873D01*
X352912Y175700D01*
X351327Y179527D01*
X348502Y180697D01*
Y182862D01*
X351710Y184190D01*
X352865Y186980D01*
X355030D01*
X356040Y184541D01*
X358750Y183418D01*
Y188750D01*
Y194082D01*
X356040Y192959D01*
X354885Y190170D01*
X352720D01*
X351710Y192609D01*
X348502Y193938D01*
Y196103D01*
X351327Y197273D01*
X352912Y201100D01*
X351327Y204927D01*
X347500Y206512D01*
Y208388D01*
X351327Y209973D01*
X352912Y213800D01*
X351953Y216115D01*
X357338Y221500D01*
X361250D01*
Y222500D01*
X364365D01*
X365033Y221500D01*
X370000D01*
Y220000D01*
X371500D01*
Y215750D01*
X373444Y216556D01*
X374870Y220000D01*
X376265Y221709D01*
X377250Y221500D01*
Y221500D01*
X391250D01*
Y223879D01*
X394750D01*
Y222500D01*
X396572D01*
Y219212D01*
X392000D01*
X388173Y217627D01*
X386588Y213800D01*
X388173Y209973D01*
X392000Y208388D01*
Y206512D01*
X388173Y204927D01*
X386588Y201100D01*
X388173Y197273D01*
X390681Y196234D01*
X391024Y193928D01*
X390224Y193271D01*
X381650D01*
X378206Y191844D01*
X376718Y190356D01*
X374479Y190945D01*
X373444Y193444D01*
X371500Y194249D01*
Y190000D01*
Y184825D01*
X372260Y184065D01*
X372129Y183750D01*
Y168888D01*
X370129Y167394D01*
X369750Y167500D01*
X368957Y167500D01*
X364750D01*
Y160750D01*
Y154000D01*
X368957D01*
X369750Y154000D01*
X371543Y154500D01*
X383250D01*
Y167000D01*
X381871D01*
Y181733D01*
X383667Y183529D01*
X390693D01*
X392000Y182988D01*
Y181112D01*
X388173Y179527D01*
X386588Y175700D01*
X388173Y171873D01*
X392000Y170288D01*
X392461D01*
Y157466D01*
X386784Y151789D01*
X345757D01*
X344646Y153452D01*
X345079Y154500D01*
X343811Y157562D01*
X340750Y158830D01*
X338239Y157789D01*
X326561D01*
X325225Y159789D01*
X325830Y161250D01*
X324562Y164312D01*
X321500Y165580D01*
X319592Y164789D01*
X252466D01*
X233791Y183465D01*
X234924Y185160D01*
X235000Y185129D01*
X238444Y186556D01*
X239249Y188500D01*
X235000D01*
Y190000D01*
X233500D01*
Y194249D01*
X231556Y193444D01*
X230129Y190000D01*
X230160Y189923D01*
X228465Y188791D01*
X226352Y190904D01*
X225562Y192812D01*
X222500Y194080D01*
X220871Y193405D01*
X218871Y194741D01*
Y251129D01*
X226000D01*
X228936Y252345D01*
X230023Y251500D01*
X233500D01*
Y255769D01*
X233162Y256274D01*
X252259Y275371D01*
X253922Y274260D01*
X253297Y272750D01*
X262750D01*
Y282203D01*
X261240Y281578D01*
X260129Y283241D01*
X263138Y286250D01*
X269750D01*
X274250Y290750D01*
Y299750D01*
X269750Y304250D01*
X268104D01*
X267706Y306250D01*
X268444Y306555D01*
X269249Y308500D01*
X260750D01*
X261556Y306555D01*
X262293Y306250D01*
X261895Y304250D01*
X260750D01*
X256250Y299750D01*
Y293138D01*
X223983Y260871D01*
X210929D01*
X209500Y262250D01*
Y263750D01*
X209500D01*
Y276250D01*
X209500Y276250D01*
X209500D01*
X209146Y278250D01*
X209249Y278500D01*
X200750D01*
X200854Y278250D01*
X199517Y276250D01*
X197000D01*
Y274871D01*
X190750D01*
Y284950D01*
X164750D01*
Y284751D01*
X162750Y283731D01*
X161500Y284249D01*
Y280000D01*
Y275750D01*
X162750Y276268D01*
X164750Y275249D01*
Y264950D01*
X190750D01*
Y265129D01*
X195571D01*
X197000Y263750D01*
Y262250D01*
X197000D01*
Y249750D01*
X202609D01*
X203000Y249588D01*
X203391Y249750D01*
X209129D01*
Y231947D01*
X207129Y231550D01*
X206959Y231959D01*
X204250Y233082D01*
Y227750D01*
Y222418D01*
X206959Y223540D01*
X207129Y223950D01*
X209129Y223552D01*
Y207989D01*
X208500Y206250D01*
X196000D01*
Y204871D01*
X190250D01*
Y215200D01*
X179701D01*
X178711Y217200D01*
X179249Y218500D01*
X170750D01*
X171289Y217200D01*
X170298Y215200D01*
X166071D01*
X164701Y215200D01*
X163599Y216930D01*
X163933Y217737D01*
X164249Y218500D01*
X161500D01*
Y215750D01*
X161902Y215917D01*
X162680Y216239D01*
X164250Y214748D01*
X164250Y213387D01*
Y195200D01*
X182279D01*
X182450Y195129D01*
X194571D01*
X196000Y193750D01*
Y192250D01*
X196000D01*
Y179750D01*
X208500D01*
X209129Y178011D01*
Y160637D01*
X207129Y160239D01*
X206210Y162460D01*
X203500Y163582D01*
Y158250D01*
Y152918D01*
X206210Y154040D01*
X207129Y156261D01*
X209129Y155863D01*
Y137239D01*
X208500Y135500D01*
X196000D01*
Y134121D01*
X190250D01*
Y145450D01*
X164250D01*
Y135251D01*
X162250Y133938D01*
X161500Y134249D01*
Y130000D01*
Y125750D01*
X162250Y126061D01*
X164250Y125450D01*
Y125450D01*
X180865D01*
X183450Y124379D01*
X194571D01*
X196000Y123000D01*
Y121500D01*
X196000D01*
Y109000D01*
X208500D01*
X209129Y107261D01*
Y105325D01*
X207129Y103988D01*
X206500Y104249D01*
Y100000D01*
Y95750D01*
X207129Y96011D01*
X209129Y94675D01*
Y89990D01*
X207129Y89593D01*
X206460Y91209D01*
X203750Y92332D01*
Y87000D01*
Y81668D01*
X206460Y82790D01*
X207129Y84407D01*
X209129Y84010D01*
Y75325D01*
X207129Y73988D01*
X206500Y74249D01*
Y70000D01*
X205000D01*
Y68500D01*
X200750D01*
X201061Y67750D01*
X199748Y65750D01*
X196000D01*
Y64371D01*
X190750D01*
Y75500D01*
X164750D01*
Y74751D01*
X162750Y73731D01*
X161500Y74249D01*
Y70000D01*
Y65750D01*
X162750Y66268D01*
X164750Y65248D01*
Y55500D01*
X181648D01*
X183750Y54629D01*
X194571D01*
X196000Y53250D01*
Y51750D01*
X196000D01*
Y39250D01*
X208500D01*
Y40629D01*
X210250D01*
X213694Y42056D01*
X217444Y45806D01*
X218871Y49250D01*
Y72779D01*
X220871Y74115D01*
X221700Y73772D01*
Y83750D01*
Y93728D01*
X220871Y93385D01*
X218871Y94721D01*
Y114000D01*
Y184759D01*
X220529Y186036D01*
X220871Y186095D01*
X221346Y185898D01*
X248497Y158747D01*
X251000Y157711D01*
X306127D01*
X306955Y155711D01*
X302247Y151003D01*
X301211Y148500D01*
Y140658D01*
X299363Y139893D01*
X297852Y141404D01*
X297062Y143312D01*
X294000Y144580D01*
X293910Y144574D01*
X292385Y145309D01*
X292381Y145316D01*
X293934Y144610D01*
X292379Y145319D01*
X291911Y146109D01*
X290944Y148444D01*
X289000Y149249D01*
Y145000D01*
Y139661D01*
X290161Y139066D01*
X290938Y137189D01*
X292846Y136398D01*
X296211Y133034D01*
Y126637D01*
X295552Y124925D01*
X294363Y124789D01*
X261000D01*
X258497Y123753D01*
X249218Y114474D01*
X247237Y115321D01*
X245944Y118444D01*
X244000Y119249D01*
Y115000D01*
X242500D01*
Y113500D01*
X238250D01*
X239056Y111556D01*
X242178Y110262D01*
X243026Y108281D01*
X233647Y98903D01*
X232611Y96400D01*
Y92446D01*
X232323Y92327D01*
X231153Y89502D01*
X228988D01*
X227660Y92710D01*
X225200Y93728D01*
Y83750D01*
Y73772D01*
X227660Y74791D01*
X228988Y77998D01*
X231153D01*
X232323Y75173D01*
X231565Y73460D01*
X231565Y73460D01*
X231565Y73460D01*
X231556Y73444D01*
X231556Y73444D01*
X230750Y71500D01*
X239249D01*
X238822Y72530D01*
X239518Y74983D01*
X239977Y75173D01*
X241562Y79000D01*
X243438D01*
X245023Y75173D01*
X245938Y74794D01*
X246189Y74188D01*
X249250Y72920D01*
X252311Y74188D01*
X253580Y77250D01*
X253563Y77289D01*
X254290Y78657D01*
X256293Y78626D01*
X257723Y75173D01*
X261550Y73588D01*
X265377Y75173D01*
X266962Y79000D01*
Y88500D01*
X265377Y92327D01*
X261550Y93912D01*
X257723Y92327D01*
X256138Y88500D01*
X254262D01*
X252677Y92327D01*
X250696Y93147D01*
Y95312D01*
X252812Y96188D01*
X253338Y97461D01*
X276611D01*
X277420Y96250D01*
X278689Y93188D01*
X279859Y92704D01*
X279859Y91232D01*
X278591Y88170D01*
X279859Y85109D01*
X282920Y83841D01*
X284828Y84631D01*
X284920D01*
X287423Y85668D01*
X289216Y87461D01*
X294363D01*
X295842Y87092D01*
X296211Y85613D01*
Y77716D01*
X291596Y73102D01*
X289688Y72312D01*
X288421Y69250D01*
X289688Y66189D01*
X292750Y64920D01*
X295812Y66189D01*
X296602Y68096D01*
X298573Y70067D01*
X300505Y69171D01*
X301688Y66314D01*
X302762Y65869D01*
X303152Y63907D01*
X301534Y62289D01*
X240750D01*
X238247Y61253D01*
X233533Y56538D01*
X231571Y56929D01*
X230944Y58444D01*
X229000Y59249D01*
Y55000D01*
X227500D01*
Y53500D01*
X223250D01*
X224056Y51556D01*
X225571Y50928D01*
X225961Y48966D01*
X220947Y43953D01*
X219911Y41450D01*
Y38446D01*
X219623Y38327D01*
X218038Y34500D01*
Y25000D01*
X219623Y21173D01*
X219856Y21077D01*
X219458Y19077D01*
X182835D01*
X181724Y20740D01*
X181832Y21000D01*
X176500D01*
Y24000D01*
X181832D01*
X180709Y26709D01*
X178560Y27600D01*
X178957Y29600D01*
X191250D01*
Y38350D01*
X177750D01*
Y40100D01*
X176000D01*
Y50600D01*
X164250D01*
Y45251D01*
X162250Y43938D01*
X161500Y44249D01*
Y40000D01*
Y35750D01*
X162250Y36061D01*
X164250Y34748D01*
Y29600D01*
X164250Y29600D01*
X163786Y27792D01*
X163250Y26500D01*
X167500D01*
Y23500D01*
X163250D01*
X164056Y21556D01*
X165212Y21077D01*
X164814Y19077D01*
X155186D01*
X154788Y21077D01*
X155944Y21556D01*
X156749Y23500D01*
X148250D01*
X149056Y21556D01*
X150211Y21077D01*
X149814Y19077D01*
X140186D01*
X139788Y21077D01*
X140944Y21556D01*
X141749Y23500D01*
X133250D01*
X134056Y21556D01*
X135211Y21077D01*
X134814Y19077D01*
X125186D01*
X124788Y21077D01*
X125944Y21556D01*
X126749Y23500D01*
X118250D01*
X119056Y21556D01*
X120211Y21077D01*
X119814Y19077D01*
X110186D01*
X109788Y21077D01*
X110944Y21556D01*
X111749Y23500D01*
X107500D01*
Y26500D01*
X111749D01*
X110944Y28444D01*
X108745Y29355D01*
X107500Y29871D01*
X107250Y30037D01*
X107250Y31448D01*
Y38350D01*
X80250D01*
Y30896D01*
X79000Y30047D01*
Y25000D01*
X77500D01*
Y23500D01*
X73250D01*
X74056Y21556D01*
X75212Y21077D01*
X74814Y19077D01*
X65186D01*
X64788Y21077D01*
X65944Y21556D01*
X66749Y23500D01*
X58250D01*
X59056Y21556D01*
X60212Y21077D01*
X59814Y19077D01*
X50186D01*
X49788Y21077D01*
X50944Y21556D01*
X51749Y23500D01*
X43250D01*
X44056Y21556D01*
X45212Y21077D01*
X44814Y19077D01*
X35888D01*
X26577Y28388D01*
Y51875D01*
X26077Y53082D01*
Y70923D01*
X32067D01*
X33050Y68550D01*
X43000Y64429D01*
X52950Y68550D01*
X57071Y78500D01*
X52950Y88450D01*
X43000Y92571D01*
X33050Y88450D01*
X32067Y86077D01*
X26077D01*
Y140673D01*
X32067D01*
X33050Y138300D01*
X38052Y136229D01*
Y134064D01*
X36556Y133444D01*
X35750Y131500D01*
X44249D01*
X43884Y132380D01*
X44642Y134859D01*
X52950Y138300D01*
X55781Y145135D01*
X57759Y144685D01*
X59056Y141556D01*
X61000Y140750D01*
Y145000D01*
Y149249D01*
X59056Y148444D01*
X58919Y148114D01*
X56941Y148565D01*
X52950Y158200D01*
X43000Y162321D01*
X33050Y158200D01*
X32067Y155827D01*
X26077D01*
Y210423D01*
X32067D01*
X33050Y208050D01*
X43000Y203929D01*
X52950Y208050D01*
X57071Y218000D01*
X52950Y227950D01*
X50009Y229168D01*
Y231168D01*
X50944Y231556D01*
X51749Y233500D01*
X42858D01*
X41871Y231603D01*
X33050Y227950D01*
X32067Y225577D01*
X26077D01*
Y233521D01*
X28077Y233919D01*
X29056Y231556D01*
X31000Y230750D01*
Y235000D01*
Y239249D01*
X29056Y238444D01*
X28077Y236081D01*
X26077Y236478D01*
Y279362D01*
X26888Y280173D01*
X32067D01*
X33050Y277800D01*
X43000Y273679D01*
X52950Y277800D01*
X53933Y280173D01*
X58000D01*
X63358Y282393D01*
X94378Y313413D01*
X96074Y312280D01*
X95750Y311500D01*
X98500D01*
Y314249D01*
X97719Y313926D01*
X96586Y315621D01*
X118857Y337892D01*
X121077Y343250D01*
Y396500D01*
X132000D01*
Y402923D01*
X162750D01*
X168107Y405142D01*
X176455Y413489D01*
X178416Y413099D01*
X179056Y411555D01*
X181000Y410750D01*
Y415000D01*
X182500D01*
Y416499D01*
X186749D01*
X185944Y418444D01*
X184400Y419083D01*
X184010Y421045D01*
X202358Y439393D01*
X202510Y439760D01*
X202923Y440173D01*
X222266D01*
X223217Y438750D01*
X224961Y434539D01*
X223210Y433540D01*
X221500Y434249D01*
Y430000D01*
Y425750D01*
X222960Y426355D01*
X224607Y425106D01*
X223217Y421750D01*
X225950Y415153D01*
X223933Y414317D01*
X221006Y407250D01*
X236000D01*
Y402250D01*
X221006D01*
X223933Y395183D01*
X225950Y394347D01*
X223217Y387750D01*
X226229Y380479D01*
X226782Y380250D01*
Y378250D01*
X226229Y378021D01*
X224838Y374663D01*
X222355Y373895D01*
X221500Y374249D01*
Y370000D01*
Y365750D01*
X222886Y366324D01*
X225278Y365776D01*
X226229Y363479D01*
X233500Y360467D01*
X238500D01*
X245771Y363479D01*
X246765Y365879D01*
X249000D01*
Y365500D01*
X261500D01*
Y365500D01*
X263000D01*
Y365500D01*
X275500D01*
Y366879D01*
X277500D01*
X280944Y368306D01*
X287194Y374556D01*
X288621Y378000D01*
Y398414D01*
X290621Y398812D01*
X291556Y396555D01*
X293500Y395750D01*
Y400000D01*
Y404249D01*
X291556Y403444D01*
X290621Y401187D01*
X288621Y401585D01*
Y415500D01*
X287194Y418944D01*
X263944Y442194D01*
X260500Y443621D01*
X246765D01*
X245771Y446021D01*
X238500Y449033D01*
X236432D01*
X232358Y453107D01*
X227000Y455327D01*
X202923D01*
X201500Y456750D01*
X192500D01*
X188000Y452250D01*
Y446465D01*
X185575Y444040D01*
X183912Y445152D01*
X183953Y445250D01*
X174500D01*
Y435797D01*
X174598Y435838D01*
X175710Y434175D01*
X159612Y418077D01*
X132000D01*
X132000Y424500D01*
X132655Y426229D01*
X133444Y426555D01*
X134249Y428499D01*
X125750D01*
X126556Y426555D01*
X126689Y426500D01*
X126292Y424500D01*
X118708D01*
X118310Y426500D01*
X118444Y426555D01*
X119249Y428499D01*
X110750D01*
X111556Y426555D01*
X111689Y426500D01*
X111292Y424500D01*
X103708D01*
X103310Y426500D01*
X103444Y426555D01*
X104249Y428499D01*
X95750D01*
X96556Y426555D01*
X96689Y426500D01*
X96292Y424500D01*
X95000D01*
Y396500D01*
X105923D01*
Y372684D01*
X103923Y372286D01*
X103444Y373444D01*
X101500Y374249D01*
Y370000D01*
Y365750D01*
X103444Y366555D01*
X103923Y367713D01*
X105923Y367315D01*
Y346388D01*
X84218Y324683D01*
X82176Y325469D01*
X80944Y328444D01*
X79000Y329249D01*
Y325000D01*
X77500D01*
Y323500D01*
X73250D01*
X74056Y321555D01*
X77030Y320323D01*
X77816Y318281D01*
X55736Y296201D01*
X53397Y296620D01*
X52950Y297700D01*
X43000Y301821D01*
X33050Y297700D01*
X32067Y295327D01*
X23750D01*
X18392Y293108D01*
X13142Y287857D01*
X10923Y282500D01*
Y220750D01*
Y217000D01*
Y148250D01*
Y78500D01*
Y52375D01*
X11423Y51168D01*
Y25250D01*
X13642Y19892D01*
X27392Y6143D01*
X28848Y5539D01*
X28451Y3539D01*
X11389D01*
X10991Y5539D01*
X13444Y6556D01*
X14249Y8500D01*
X10000D01*
Y10000D01*
X8500D01*
Y14249D01*
X6556Y13444D01*
X5539Y10991D01*
X3539Y11388D01*
Y308611D01*
X5539Y309009D01*
X6556Y306555D01*
X8500Y305750D01*
Y310000D01*
Y314249D01*
X6556Y313444D01*
X5539Y310990D01*
X3539Y311388D01*
Y338611D01*
X5539Y339009D01*
X6556Y336555D01*
X8500Y335750D01*
Y340000D01*
Y344249D01*
X6556Y343444D01*
X5539Y340990D01*
X3539Y341388D01*
Y368611D01*
X5539Y369009D01*
X6556Y366555D01*
X8500Y365750D01*
Y370000D01*
Y374249D01*
X6556Y373444D01*
X5539Y370990D01*
X3539Y371388D01*
Y398611D01*
X5539Y399009D01*
X6556Y396555D01*
X8500Y395750D01*
Y400000D01*
Y404249D01*
X6556Y403444D01*
X5539Y400990D01*
X3539Y401388D01*
Y428611D01*
X5539Y429009D01*
X6556Y426555D01*
X8500Y425750D01*
Y430000D01*
Y434249D01*
X6556Y433444D01*
X5539Y430990D01*
X3539Y431388D01*
Y458611D01*
X5539Y459009D01*
X6556Y456555D01*
X8500Y455750D01*
Y460000D01*
Y464249D01*
X6556Y463444D01*
X5539Y460990D01*
X3539Y461388D01*
Y496461D01*
X546461D01*
Y480394D01*
D02*
G37*
G36*
X278879Y413483D02*
Y380018D01*
X277354Y378492D01*
X275081Y379048D01*
X275000Y379250D01*
X275000D01*
Y391750D01*
X275000D01*
Y393250D01*
X275000D01*
Y405750D01*
X273621D01*
Y411750D01*
X272194Y415194D01*
X271944Y415444D01*
X268500Y416871D01*
X265056Y415444D01*
X263629Y412000D01*
X263879Y411396D01*
Y407886D01*
X263000Y406250D01*
X251409D01*
X248067Y414317D01*
X246050Y415153D01*
X248783Y421750D01*
X245771Y429021D01*
X245218Y429250D01*
Y431250D01*
X245771Y431479D01*
X246765Y433879D01*
X258482D01*
X278879Y413483D01*
D02*
G37*
G36*
X347250Y231612D02*
Y225188D01*
X341274Y219212D01*
X338000D01*
X334173Y217627D01*
X332588Y213800D01*
X334173Y209973D01*
X336681Y208934D01*
X337024Y206628D01*
X336224Y205971D01*
X329750D01*
Y207250D01*
X328371D01*
Y209250D01*
X330500D01*
Y216250D01*
Y225250D01*
X325702D01*
X323500Y226162D01*
X321298Y225250D01*
X316500D01*
Y218621D01*
X311750D01*
Y225250D01*
X306952D01*
X304750Y226162D01*
X302548Y225250D01*
X297750D01*
Y216250D01*
Y209250D01*
X300129D01*
Y207250D01*
X298750D01*
Y195543D01*
X298727Y195462D01*
X297052Y194020D01*
X296500Y194249D01*
Y190000D01*
Y185750D01*
X296587Y185786D01*
X298250Y184675D01*
Y180571D01*
X282500D01*
Y186750D01*
X276500Y192750D01*
X275699D01*
X275301Y194750D01*
X279684Y196566D01*
X281903Y201923D01*
X283903D01*
X284056Y201556D01*
X286000Y200750D01*
Y205000D01*
Y209249D01*
X284467Y208614D01*
X282208Y208843D01*
X279684Y214934D01*
X275371Y216721D01*
Y218983D01*
X288018Y231629D01*
X347233D01*
X347250Y231612D01*
D02*
G37*
G36*
X407750Y194500D02*
X420250D01*
Y194500D01*
X421750D01*
Y194500D01*
X424461D01*
Y157216D01*
X414284Y147039D01*
X394658D01*
X393893Y148887D01*
X398503Y153497D01*
X399539Y156000D01*
Y170288D01*
X401500D01*
X405327Y171873D01*
X406912Y175700D01*
X405327Y179527D01*
X401500Y181112D01*
Y182988D01*
X405327Y184573D01*
X406912Y188400D01*
X405327Y192227D01*
X402819Y193266D01*
X402476Y195572D01*
X403276Y196229D01*
X407750D01*
Y194500D01*
D02*
G37*
G36*
X342616Y27816D02*
X351800Y24011D01*
X356620Y26008D01*
X357629Y25000D01*
X359055Y21556D01*
X360211Y21077D01*
X359814Y19077D01*
X265542D01*
X265144Y21077D01*
X265377Y21173D01*
X266962Y25000D01*
Y25129D01*
X269750D01*
Y23750D01*
X282250D01*
Y25129D01*
X289000D01*
Y25000D01*
X313000D01*
Y32767D01*
X315000Y33165D01*
X317216Y27816D01*
X326400Y24011D01*
X335584Y27816D01*
X338100Y33889D01*
X340100D01*
X342616Y27816D01*
D02*
G37*
%LPC*%
G36*
X541000Y479249D02*
X539055Y478444D01*
X538250Y476499D01*
X541000D01*
Y479249D01*
D02*
G37*
G36*
X529000D02*
Y476499D01*
X531749D01*
X530944Y478444D01*
X529000Y479249D01*
D02*
G37*
G36*
X526000D02*
X524055Y478444D01*
X523250Y476499D01*
X526000D01*
Y479249D01*
D02*
G37*
G36*
X514000D02*
Y476499D01*
X516749D01*
X515944Y478444D01*
X514000Y479249D01*
D02*
G37*
G36*
X511000D02*
X509055Y478444D01*
X508250Y476499D01*
X511000D01*
Y479249D01*
D02*
G37*
G36*
X499000D02*
Y476499D01*
X501749D01*
X500944Y478444D01*
X499000Y479249D01*
D02*
G37*
G36*
X496000D02*
X494055Y478444D01*
X493250Y476499D01*
X496000D01*
Y479249D01*
D02*
G37*
G36*
X484000D02*
Y476499D01*
X486749D01*
X485944Y478444D01*
X484000Y479249D01*
D02*
G37*
G36*
X481000D02*
X479055Y478444D01*
X478250Y476499D01*
X481000D01*
Y479249D01*
D02*
G37*
G36*
X469000D02*
Y476499D01*
X471749D01*
X470944Y478444D01*
X469000Y479249D01*
D02*
G37*
G36*
X466000D02*
X464055Y478444D01*
X463250Y476499D01*
X466000D01*
Y479249D01*
D02*
G37*
G36*
X454000D02*
Y476499D01*
X456749D01*
X455944Y478444D01*
X454000Y479249D01*
D02*
G37*
G36*
X436000D02*
X434055Y478444D01*
X433250Y476499D01*
X436000D01*
Y479249D01*
D02*
G37*
G36*
X424000D02*
Y476499D01*
X426749D01*
X425944Y478444D01*
X424000Y479249D01*
D02*
G37*
G36*
X421000D02*
X419055Y478444D01*
X418250Y476499D01*
X421000D01*
Y479249D01*
D02*
G37*
G36*
X214000D02*
Y476499D01*
X216749D01*
X215944Y478444D01*
X214000Y479249D01*
D02*
G37*
G36*
X211000D02*
X209056Y478444D01*
X208250Y476499D01*
X211000D01*
Y479249D01*
D02*
G37*
G36*
X169000D02*
Y476499D01*
X171749D01*
X170944Y478444D01*
X169000Y479249D01*
D02*
G37*
G36*
X166000D02*
X164056Y478444D01*
X163250Y476499D01*
X166000D01*
Y479249D01*
D02*
G37*
G36*
X154000D02*
Y476499D01*
X156749D01*
X155944Y478444D01*
X154000Y479249D01*
D02*
G37*
G36*
X151000D02*
X149056Y478444D01*
X148250Y476499D01*
X151000D01*
Y479249D01*
D02*
G37*
G36*
X139000D02*
Y476499D01*
X141749D01*
X140944Y478444D01*
X139000Y479249D01*
D02*
G37*
G36*
X34000D02*
Y476499D01*
X36749D01*
X35944Y478444D01*
X34000Y479249D01*
D02*
G37*
G36*
X31000D02*
X29056Y478444D01*
X28250Y476499D01*
X31000D01*
Y479249D01*
D02*
G37*
G36*
X19000D02*
Y476499D01*
X21749D01*
X20944Y478444D01*
X19000Y479249D01*
D02*
G37*
G36*
X16000D02*
X14056Y478444D01*
X13250Y476499D01*
X16000D01*
Y479249D01*
D02*
G37*
G36*
X451000D02*
X449055Y478444D01*
X447629Y475000D01*
X447283Y474654D01*
X446250Y475082D01*
Y469750D01*
X443250D01*
Y475082D01*
X442570Y474800D01*
X442370Y475000D01*
X440944Y478444D01*
X439000Y479249D01*
Y475000D01*
X437500D01*
Y473499D01*
X433250D01*
X434055Y471555D01*
X437500Y470129D01*
X439238Y468684D01*
X440541Y465541D01*
X441142Y465291D01*
X441383Y463027D01*
X440574Y461073D01*
X440440Y460750D01*
X439533Y460750D01*
X384406D01*
X384008Y462750D01*
X384710Y463041D01*
X385832Y465750D01*
X375168D01*
X376291Y463041D01*
X376992Y462750D01*
X376594Y460750D01*
X374750D01*
Y406500D01*
X440500D01*
Y424998D01*
X442500Y426164D01*
X443500Y425750D01*
Y430000D01*
Y434249D01*
X442500Y433835D01*
X440500Y435001D01*
Y454998D01*
X442500Y456164D01*
X443500Y455750D01*
Y460000D01*
X445000D01*
Y461499D01*
X449249D01*
X448543Y463203D01*
X448444Y464327D01*
Y465327D01*
X448960Y465541D01*
X450335Y468861D01*
X451000Y469250D01*
Y475000D01*
Y479249D01*
D02*
G37*
G36*
X132000Y490500D02*
X95000D01*
Y484077D01*
X58750D01*
X53393Y481857D01*
X45373Y473838D01*
X43000Y474821D01*
X38530Y472969D01*
X37999Y473499D01*
X28250D01*
X29056Y471555D01*
X32500Y470129D01*
X32722Y469907D01*
X30292Y464039D01*
X27963Y463643D01*
X26500Y464249D01*
Y460000D01*
Y455750D01*
X28444Y456555D01*
X28555Y456824D01*
X30555D01*
X32670Y451718D01*
X32542Y450325D01*
X31699Y449539D01*
X29056Y448444D01*
X28250Y446499D01*
X32500D01*
Y443499D01*
X28250D01*
X29056Y441555D01*
X31588Y440506D01*
Y438341D01*
X30754Y437996D01*
X29510Y434991D01*
X26959Y434059D01*
X26500Y434249D01*
Y430000D01*
X25000D01*
Y428499D01*
X20750D01*
X21556Y426555D01*
X25000Y425129D01*
X25802Y425461D01*
X30754Y413504D01*
X40500Y409467D01*
Y425750D01*
X43000D01*
Y428250D01*
X59283D01*
X55246Y437996D01*
X51114Y439708D01*
X51081Y441886D01*
X51749Y443499D01*
X47500D01*
Y446499D01*
X51749D01*
X51170Y447898D01*
X51713Y450288D01*
X52950Y450800D01*
X57071Y460750D01*
X56088Y463123D01*
X61888Y468923D01*
X95000D01*
Y462500D01*
X132000D01*
Y471292D01*
X134000Y471690D01*
X134056Y471555D01*
X136000Y470750D01*
Y475000D01*
Y479249D01*
X134056Y478444D01*
X134000Y478310D01*
X132000Y478707D01*
Y490500D01*
D02*
G37*
G36*
X541000Y473499D02*
X538250D01*
X539055Y471555D01*
X541000Y470750D01*
Y473499D01*
D02*
G37*
G36*
X531749D02*
X529000D01*
Y470750D01*
X530944Y471555D01*
X531749Y473499D01*
D02*
G37*
G36*
X526000D02*
X523250D01*
X524055Y471555D01*
X526000Y470750D01*
Y473499D01*
D02*
G37*
G36*
X516749D02*
X514000D01*
Y470750D01*
X515944Y471555D01*
X516749Y473499D01*
D02*
G37*
G36*
X511000D02*
X508250D01*
X509055Y471555D01*
X511000Y470750D01*
Y473499D01*
D02*
G37*
G36*
X501749D02*
X499000D01*
Y470750D01*
X500944Y471555D01*
X501749Y473499D01*
D02*
G37*
G36*
X496000D02*
X493250D01*
X494055Y471555D01*
X496000Y470750D01*
Y473499D01*
D02*
G37*
G36*
X486749D02*
X484000D01*
Y470750D01*
X485944Y471555D01*
X486749Y473499D01*
D02*
G37*
G36*
X481000D02*
X478250D01*
X479055Y471555D01*
X481000Y470750D01*
Y473499D01*
D02*
G37*
G36*
X471749D02*
X469000D01*
Y470750D01*
X470944Y471555D01*
X471749Y473499D01*
D02*
G37*
G36*
X466000D02*
X463250D01*
X464055Y471555D01*
X466000Y470750D01*
Y473499D01*
D02*
G37*
G36*
X456749D02*
X454000D01*
Y470750D01*
X455944Y471555D01*
X456749Y473499D01*
D02*
G37*
G36*
X426749D02*
X424000D01*
Y470750D01*
X425944Y471555D01*
X426749Y473499D01*
D02*
G37*
G36*
X421000D02*
X418250D01*
X419055Y471555D01*
X421000Y470750D01*
Y473499D01*
D02*
G37*
G36*
X216749D02*
X214000D01*
Y470750D01*
X215944Y471555D01*
X216749Y473499D01*
D02*
G37*
G36*
X211000D02*
X208250D01*
X209056Y471555D01*
X211000Y470750D01*
Y473499D01*
D02*
G37*
G36*
X171749D02*
X169000D01*
Y470750D01*
X170944Y471555D01*
X171749Y473499D01*
D02*
G37*
G36*
X166000D02*
X163250D01*
X164056Y471555D01*
X166000Y470750D01*
Y473499D01*
D02*
G37*
G36*
X156749D02*
X154000D01*
Y470750D01*
X155944Y471555D01*
X156749Y473499D01*
D02*
G37*
G36*
X151000D02*
X148250D01*
X149056Y471555D01*
X151000Y470750D01*
Y473499D01*
D02*
G37*
G36*
X141749D02*
X139000D01*
Y470750D01*
X140944Y471555D01*
X141749Y473499D01*
D02*
G37*
G36*
X21749D02*
X19000D01*
Y470750D01*
X20944Y471555D01*
X21749Y473499D01*
D02*
G37*
G36*
X16000D02*
X13250D01*
X14056Y471555D01*
X16000Y470750D01*
Y473499D01*
D02*
G37*
G36*
X382000Y472582D02*
Y468750D01*
X385832D01*
X384710Y471460D01*
X382000Y472582D01*
D02*
G37*
G36*
X379000D02*
X376291Y471460D01*
X375168Y468750D01*
X379000D01*
Y472582D01*
D02*
G37*
G36*
X324750Y471332D02*
Y467500D01*
X328582D01*
X327459Y470210D01*
X324750Y471332D01*
D02*
G37*
G36*
X321750D02*
X319041Y470210D01*
X317918Y467500D01*
X321750D01*
Y471332D01*
D02*
G37*
G36*
X536500Y464249D02*
Y461499D01*
X539249D01*
X538444Y463444D01*
X536500Y464249D01*
D02*
G37*
G36*
X533500D02*
X531555Y463444D01*
X530750Y461499D01*
X533500D01*
Y464249D01*
D02*
G37*
G36*
X521500D02*
Y461499D01*
X524249D01*
X523444Y463444D01*
X521500Y464249D01*
D02*
G37*
G36*
X518500D02*
X516555Y463444D01*
X515750Y461499D01*
X518500D01*
Y464249D01*
D02*
G37*
G36*
X506500D02*
Y461499D01*
X509249D01*
X508444Y463444D01*
X506500Y464249D01*
D02*
G37*
G36*
X503500D02*
X501555Y463444D01*
X500750Y461499D01*
X503500D01*
Y464249D01*
D02*
G37*
G36*
X491500D02*
Y461499D01*
X494249D01*
X493444Y463444D01*
X491500Y464249D01*
D02*
G37*
G36*
X488500D02*
X486555Y463444D01*
X485750Y461499D01*
X488500D01*
Y464249D01*
D02*
G37*
G36*
X476500D02*
Y461499D01*
X479249D01*
X478444Y463444D01*
X476500Y464249D01*
D02*
G37*
G36*
X473500D02*
X471555Y463444D01*
X470750Y461499D01*
X473500D01*
Y464249D01*
D02*
G37*
G36*
X461500D02*
Y461499D01*
X464249D01*
X463444Y463444D01*
X461500Y464249D01*
D02*
G37*
G36*
X458500D02*
X456555Y463444D01*
X455750Y461499D01*
X458500D01*
Y464249D01*
D02*
G37*
G36*
X296500D02*
Y461499D01*
X299249D01*
X298444Y463444D01*
X296500Y464249D01*
D02*
G37*
G36*
X293500D02*
X291556Y463444D01*
X290750Y461499D01*
X293500D01*
Y464249D01*
D02*
G37*
G36*
X281500D02*
Y461499D01*
X284249D01*
X283444Y463444D01*
X281500Y464249D01*
D02*
G37*
G36*
X278500D02*
X276556Y463444D01*
X275750Y461499D01*
X278500D01*
Y464249D01*
D02*
G37*
G36*
X266500D02*
Y461499D01*
X269249D01*
X268444Y463444D01*
X266500Y464249D01*
D02*
G37*
G36*
X263500D02*
X261556Y463444D01*
X260750Y461499D01*
X263500D01*
Y464249D01*
D02*
G37*
G36*
X251500D02*
Y461499D01*
X254249D01*
X253444Y463444D01*
X251500Y464249D01*
D02*
G37*
G36*
X248500D02*
X246556Y463444D01*
X245750Y461499D01*
X248500D01*
Y464249D01*
D02*
G37*
G36*
X236500D02*
Y461499D01*
X239249D01*
X238444Y463444D01*
X236500Y464249D01*
D02*
G37*
G36*
X233500D02*
X231556Y463444D01*
X230750Y461499D01*
X233500D01*
Y464249D01*
D02*
G37*
G36*
X158500D02*
X156556Y463444D01*
X155750Y461499D01*
X158500D01*
Y464249D01*
D02*
G37*
G36*
X146500D02*
Y461499D01*
X149249D01*
X148444Y463444D01*
X146500Y464249D01*
D02*
G37*
G36*
X143500D02*
X141556Y463444D01*
X140750Y461499D01*
X143500D01*
Y464249D01*
D02*
G37*
G36*
X86500D02*
Y461499D01*
X89249D01*
X88444Y463444D01*
X86500Y464249D01*
D02*
G37*
G36*
X83500D02*
X81556Y463444D01*
X80750Y461499D01*
X83500D01*
Y464249D01*
D02*
G37*
G36*
X71500D02*
Y461499D01*
X74249D01*
X73444Y463444D01*
X71500Y464249D01*
D02*
G37*
G36*
X68500D02*
X66556Y463444D01*
X65750Y461499D01*
X68500D01*
Y464249D01*
D02*
G37*
G36*
X23500D02*
X21556Y463444D01*
X20750Y461499D01*
X23500D01*
Y464249D01*
D02*
G37*
G36*
X11500D02*
Y461499D01*
X14249D01*
X13444Y463444D01*
X11500Y464249D01*
D02*
G37*
G36*
X539249Y458499D02*
X536500D01*
Y455750D01*
X538444Y456555D01*
X539249Y458499D01*
D02*
G37*
G36*
X533500D02*
X530750D01*
X531555Y456555D01*
X533500Y455750D01*
Y458499D01*
D02*
G37*
G36*
X524249D02*
X521500D01*
Y455750D01*
X523444Y456555D01*
X524249Y458499D01*
D02*
G37*
G36*
X518500D02*
X515750D01*
X516555Y456555D01*
X518500Y455750D01*
Y458499D01*
D02*
G37*
G36*
X509249D02*
X506500D01*
Y455750D01*
X508444Y456555D01*
X509249Y458499D01*
D02*
G37*
G36*
X503500D02*
X500750D01*
X501555Y456555D01*
X503500Y455750D01*
Y458499D01*
D02*
G37*
G36*
X494249D02*
X491500D01*
Y455750D01*
X493444Y456555D01*
X494249Y458499D01*
D02*
G37*
G36*
X488500D02*
X485750D01*
X486555Y456555D01*
X488500Y455750D01*
Y458499D01*
D02*
G37*
G36*
X479249D02*
X476500D01*
Y455750D01*
X478444Y456555D01*
X479249Y458499D01*
D02*
G37*
G36*
X473500D02*
X470750D01*
X471555Y456555D01*
X473500Y455750D01*
Y458499D01*
D02*
G37*
G36*
X464249D02*
X461500D01*
Y455750D01*
X463444Y456555D01*
X464249Y458499D01*
D02*
G37*
G36*
X458500D02*
X455750D01*
X456555Y456555D01*
X458500Y455750D01*
Y458499D01*
D02*
G37*
G36*
X449249D02*
X446500D01*
Y455750D01*
X448444Y456555D01*
X449249Y458499D01*
D02*
G37*
G36*
X299249D02*
X296500D01*
Y455750D01*
X298444Y456555D01*
X299249Y458499D01*
D02*
G37*
G36*
X293500D02*
X290750D01*
X291556Y456555D01*
X293500Y455750D01*
Y458499D01*
D02*
G37*
G36*
X284249D02*
X281500D01*
Y455750D01*
X283444Y456555D01*
X284249Y458499D01*
D02*
G37*
G36*
X278500D02*
X275750D01*
X276556Y456555D01*
X278500Y455750D01*
Y458499D01*
D02*
G37*
G36*
X269249D02*
X266500D01*
Y455750D01*
X268444Y456555D01*
X269249Y458499D01*
D02*
G37*
G36*
X263500D02*
X260750D01*
X261556Y456555D01*
X263500Y455750D01*
Y458499D01*
D02*
G37*
G36*
X254249D02*
X251500D01*
Y455750D01*
X253444Y456555D01*
X254249Y458499D01*
D02*
G37*
G36*
X248500D02*
X245750D01*
X246556Y456555D01*
X248500Y455750D01*
Y458499D01*
D02*
G37*
G36*
X239249D02*
X236500D01*
Y455750D01*
X238444Y456555D01*
X239249Y458499D01*
D02*
G37*
G36*
X233500D02*
X230750D01*
X231556Y456555D01*
X233500Y455750D01*
Y458499D01*
D02*
G37*
G36*
X149249D02*
X146500D01*
Y455750D01*
X148444Y456555D01*
X149249Y458499D01*
D02*
G37*
G36*
X143500D02*
X140750D01*
X141556Y456555D01*
X143500Y455750D01*
Y458499D01*
D02*
G37*
G36*
X89249D02*
X86500D01*
Y455750D01*
X88444Y456555D01*
X89249Y458499D01*
D02*
G37*
G36*
X83500D02*
X80750D01*
X81556Y456555D01*
X83500Y455750D01*
Y458499D01*
D02*
G37*
G36*
X74249D02*
X71500D01*
Y455750D01*
X73444Y456555D01*
X74249Y458499D01*
D02*
G37*
G36*
X68500D02*
X65750D01*
X66556Y456555D01*
X68500Y455750D01*
Y458499D01*
D02*
G37*
G36*
X23500D02*
X20750D01*
X21556Y456555D01*
X23500Y455750D01*
Y458499D01*
D02*
G37*
G36*
X14249D02*
X11500D01*
Y455750D01*
X13444Y456555D01*
X14249Y458499D01*
D02*
G37*
G36*
X174500Y459703D02*
Y450250D01*
X183953D01*
X181184Y456934D01*
X174500Y459703D01*
D02*
G37*
G36*
X161500Y464249D02*
Y460000D01*
X160000D01*
Y458499D01*
X155750D01*
X156556Y456555D01*
X160000Y455129D01*
X160082Y455163D01*
X161496Y453749D01*
X160047Y450250D01*
X169500D01*
Y459703D01*
X166178Y458327D01*
X164763Y459741D01*
X164870Y460000D01*
X163444Y463444D01*
X161500Y464249D01*
D02*
G37*
G36*
X541000Y449249D02*
X539055Y448444D01*
X538250Y446499D01*
X541000D01*
Y449249D01*
D02*
G37*
G36*
X529000D02*
Y446499D01*
X531749D01*
X530944Y448444D01*
X529000Y449249D01*
D02*
G37*
G36*
X526000D02*
X524055Y448444D01*
X523250Y446499D01*
X526000D01*
Y449249D01*
D02*
G37*
G36*
X514000D02*
Y446499D01*
X516749D01*
X515944Y448444D01*
X514000Y449249D01*
D02*
G37*
G36*
X511000D02*
X509055Y448444D01*
X508250Y446499D01*
X511000D01*
Y449249D01*
D02*
G37*
G36*
X499000D02*
Y446499D01*
X501749D01*
X500944Y448444D01*
X499000Y449249D01*
D02*
G37*
G36*
X496000D02*
X494055Y448444D01*
X493250Y446499D01*
X496000D01*
Y449249D01*
D02*
G37*
G36*
X484000D02*
Y446499D01*
X486749D01*
X485944Y448444D01*
X484000Y449249D01*
D02*
G37*
G36*
X481000D02*
X479055Y448444D01*
X478250Y446499D01*
X481000D01*
Y449249D01*
D02*
G37*
G36*
X469000D02*
Y446499D01*
X471749D01*
X470944Y448444D01*
X469000Y449249D01*
D02*
G37*
G36*
X466000D02*
X464055Y448444D01*
X463250Y446499D01*
X466000D01*
Y449249D01*
D02*
G37*
G36*
X454000D02*
Y446499D01*
X456749D01*
X455944Y448444D01*
X454000Y449249D01*
D02*
G37*
G36*
X451000D02*
X449055Y448444D01*
X448250Y446499D01*
X451000D01*
Y449249D01*
D02*
G37*
G36*
X154000D02*
Y446499D01*
X156749D01*
X155944Y448444D01*
X154000Y449249D01*
D02*
G37*
G36*
X151000D02*
X149056Y448444D01*
X148250Y446499D01*
X151000D01*
Y449249D01*
D02*
G37*
G36*
X139000D02*
Y446499D01*
X141749D01*
X140944Y448444D01*
X139000Y449249D01*
D02*
G37*
G36*
X136000D02*
X134056Y448444D01*
X133250Y446499D01*
X136000D01*
Y449249D01*
D02*
G37*
G36*
X124000D02*
Y446499D01*
X126749D01*
X125944Y448444D01*
X124000Y449249D01*
D02*
G37*
G36*
X121000D02*
X119056Y448444D01*
X118250Y446499D01*
X121000D01*
Y449249D01*
D02*
G37*
G36*
X109000D02*
Y446499D01*
X111749D01*
X110944Y448444D01*
X109000Y449249D01*
D02*
G37*
G36*
X106000D02*
X104056Y448444D01*
X103250Y446499D01*
X106000D01*
Y449249D01*
D02*
G37*
G36*
X94000D02*
Y446499D01*
X96749D01*
X95944Y448444D01*
X94000Y449249D01*
D02*
G37*
G36*
X91000D02*
X89056Y448444D01*
X88250Y446499D01*
X91000D01*
Y449249D01*
D02*
G37*
G36*
X79000D02*
Y446499D01*
X81749D01*
X80944Y448444D01*
X79000Y449249D01*
D02*
G37*
G36*
X76000D02*
X74056Y448444D01*
X73250Y446499D01*
X76000D01*
Y449249D01*
D02*
G37*
G36*
X64000D02*
Y446499D01*
X66749D01*
X65944Y448444D01*
X64000Y449249D01*
D02*
G37*
G36*
X61000D02*
X59056Y448444D01*
X58250Y446499D01*
X61000D01*
Y449249D01*
D02*
G37*
G36*
X19000D02*
Y446499D01*
X21749D01*
X20944Y448444D01*
X19000Y449249D01*
D02*
G37*
G36*
X16000D02*
X14056Y448444D01*
X13250Y446499D01*
X16000D01*
Y449249D01*
D02*
G37*
G36*
X541000Y443499D02*
X538250D01*
X539055Y441555D01*
X541000Y440750D01*
Y443499D01*
D02*
G37*
G36*
X531749D02*
X529000D01*
Y440750D01*
X530944Y441555D01*
X531749Y443499D01*
D02*
G37*
G36*
X526000D02*
X523250D01*
X524055Y441555D01*
X526000Y440750D01*
Y443499D01*
D02*
G37*
G36*
X516749D02*
X514000D01*
Y440750D01*
X515944Y441555D01*
X516749Y443499D01*
D02*
G37*
G36*
X511000D02*
X508250D01*
X509055Y441555D01*
X511000Y440750D01*
Y443499D01*
D02*
G37*
G36*
X501749D02*
X499000D01*
Y440750D01*
X500944Y441555D01*
X501749Y443499D01*
D02*
G37*
G36*
X496000D02*
X493250D01*
X494055Y441555D01*
X496000Y440750D01*
Y443499D01*
D02*
G37*
G36*
X486749D02*
X484000D01*
Y440750D01*
X485944Y441555D01*
X486749Y443499D01*
D02*
G37*
G36*
X481000D02*
X478250D01*
X479055Y441555D01*
X481000Y440750D01*
Y443499D01*
D02*
G37*
G36*
X471749D02*
X469000D01*
Y440750D01*
X470944Y441555D01*
X471749Y443499D01*
D02*
G37*
G36*
X466000D02*
X463250D01*
X464055Y441555D01*
X466000Y440750D01*
Y443499D01*
D02*
G37*
G36*
X156749D02*
X154000D01*
Y440750D01*
X155944Y441555D01*
X156749Y443499D01*
D02*
G37*
G36*
X151000D02*
X148250D01*
X149056Y441555D01*
X151000Y440750D01*
Y443499D01*
D02*
G37*
G36*
X141749D02*
X139000D01*
Y440750D01*
X140944Y441555D01*
X141749Y443499D01*
D02*
G37*
G36*
X136000D02*
X133250D01*
X134056Y441555D01*
X136000Y440750D01*
Y443499D01*
D02*
G37*
G36*
X126749D02*
X124000D01*
Y440750D01*
X125944Y441555D01*
X126749Y443499D01*
D02*
G37*
G36*
X121000D02*
X118250D01*
X119056Y441555D01*
X121000Y440750D01*
Y443499D01*
D02*
G37*
G36*
X111749D02*
X109000D01*
Y440750D01*
X110944Y441555D01*
X111749Y443499D01*
D02*
G37*
G36*
X106000D02*
X103250D01*
X104056Y441555D01*
X106000Y440750D01*
Y443499D01*
D02*
G37*
G36*
X96749D02*
X94000D01*
Y440750D01*
X95944Y441555D01*
X96749Y443499D01*
D02*
G37*
G36*
X91000D02*
X88250D01*
X89056Y441555D01*
X91000Y440750D01*
Y443499D01*
D02*
G37*
G36*
X81749D02*
X79000D01*
Y440750D01*
X80944Y441555D01*
X81749Y443499D01*
D02*
G37*
G36*
X76000D02*
X73250D01*
X74056Y441555D01*
X76000Y440750D01*
Y443499D01*
D02*
G37*
G36*
X66749D02*
X64000D01*
Y440750D01*
X65944Y441555D01*
X66749Y443499D01*
D02*
G37*
G36*
X61000D02*
X58250D01*
X59056Y441555D01*
X61000Y440750D01*
Y443499D01*
D02*
G37*
G36*
X21749D02*
X19000D01*
Y440750D01*
X20944Y441555D01*
X21749Y443499D01*
D02*
G37*
G36*
X16000D02*
X13250D01*
X14056Y441555D01*
X16000Y440750D01*
Y443499D01*
D02*
G37*
G36*
X169500Y445250D02*
X160047D01*
X162816Y438566D01*
X169500Y435797D01*
Y445250D01*
D02*
G37*
G36*
X536500Y434249D02*
Y431499D01*
X539249D01*
X538444Y433444D01*
X536500Y434249D01*
D02*
G37*
G36*
X533500D02*
X531555Y433444D01*
X530750Y431499D01*
X533500D01*
Y434249D01*
D02*
G37*
G36*
X521500D02*
Y431499D01*
X524249D01*
X523444Y433444D01*
X521500Y434249D01*
D02*
G37*
G36*
X518500D02*
X516555Y433444D01*
X515750Y431499D01*
X518500D01*
Y434249D01*
D02*
G37*
G36*
X506500D02*
Y431499D01*
X509249D01*
X508444Y433444D01*
X506500Y434249D01*
D02*
G37*
G36*
X503500D02*
X501555Y433444D01*
X500750Y431499D01*
X503500D01*
Y434249D01*
D02*
G37*
G36*
X491500D02*
Y431499D01*
X494249D01*
X493444Y433444D01*
X491500Y434249D01*
D02*
G37*
G36*
X488500D02*
X486555Y433444D01*
X485750Y431499D01*
X488500D01*
Y434249D01*
D02*
G37*
G36*
X476500D02*
Y431499D01*
X479249D01*
X478444Y433444D01*
X476500Y434249D01*
D02*
G37*
G36*
X473500D02*
X471555Y433444D01*
X470750Y431499D01*
X473500D01*
Y434249D01*
D02*
G37*
G36*
X461500D02*
Y431499D01*
X464249D01*
X463444Y433444D01*
X461500Y434249D01*
D02*
G37*
G36*
X218500D02*
X216556Y433444D01*
X215750Y431499D01*
X218500D01*
Y434249D01*
D02*
G37*
G36*
X206500D02*
Y431499D01*
X209249D01*
X208444Y433444D01*
X206500Y434249D01*
D02*
G37*
G36*
X203500D02*
X201556Y433444D01*
X200750Y431499D01*
X203500D01*
Y434249D01*
D02*
G37*
G36*
X161500D02*
Y431499D01*
X164249D01*
X163444Y433444D01*
X161500Y434249D01*
D02*
G37*
G36*
X158500D02*
X156556Y433444D01*
X155750Y431499D01*
X158500D01*
Y434249D01*
D02*
G37*
G36*
X146500D02*
Y431499D01*
X149249D01*
X148444Y433444D01*
X146500Y434249D01*
D02*
G37*
G36*
X143500D02*
X141556Y433444D01*
X140750Y431499D01*
X143500D01*
Y434249D01*
D02*
G37*
G36*
X131500D02*
Y431499D01*
X134249D01*
X133444Y433444D01*
X131500Y434249D01*
D02*
G37*
G36*
X128500D02*
X126556Y433444D01*
X125750Y431499D01*
X128500D01*
Y434249D01*
D02*
G37*
G36*
X116500D02*
Y431499D01*
X119249D01*
X118444Y433444D01*
X116500Y434249D01*
D02*
G37*
G36*
X113500D02*
X111556Y433444D01*
X110750Y431499D01*
X113500D01*
Y434249D01*
D02*
G37*
G36*
X101500D02*
Y431499D01*
X104249D01*
X103444Y433444D01*
X101500Y434249D01*
D02*
G37*
G36*
X98500D02*
X96556Y433444D01*
X95750Y431499D01*
X98500D01*
Y434249D01*
D02*
G37*
G36*
X86500D02*
Y431499D01*
X89249D01*
X88444Y433444D01*
X86500Y434249D01*
D02*
G37*
G36*
X83500D02*
X81556Y433444D01*
X80750Y431499D01*
X83500D01*
Y434249D01*
D02*
G37*
G36*
X71500D02*
Y431499D01*
X74249D01*
X73444Y433444D01*
X71500Y434249D01*
D02*
G37*
G36*
X68500D02*
X66556Y433444D01*
X65750Y431499D01*
X68500D01*
Y434249D01*
D02*
G37*
G36*
X23500D02*
X21556Y433444D01*
X20750Y431499D01*
X23500D01*
Y434249D01*
D02*
G37*
G36*
X11500D02*
Y431499D01*
X14249D01*
X13444Y433444D01*
X11500Y434249D01*
D02*
G37*
G36*
X539249Y428499D02*
X536500D01*
Y425750D01*
X538444Y426555D01*
X539249Y428499D01*
D02*
G37*
G36*
X533500D02*
X530750D01*
X531555Y426555D01*
X533500Y425750D01*
Y428499D01*
D02*
G37*
G36*
X524249D02*
X521500D01*
Y425750D01*
X523444Y426555D01*
X524249Y428499D01*
D02*
G37*
G36*
X518500D02*
X515750D01*
X516555Y426555D01*
X518500Y425750D01*
Y428499D01*
D02*
G37*
G36*
X509249D02*
X506500D01*
Y425750D01*
X508444Y426555D01*
X509249Y428499D01*
D02*
G37*
G36*
X503500D02*
X500750D01*
X501555Y426555D01*
X503500Y425750D01*
Y428499D01*
D02*
G37*
G36*
X494249D02*
X491500D01*
Y425750D01*
X493444Y426555D01*
X494249Y428499D01*
D02*
G37*
G36*
X488500D02*
X485750D01*
X486555Y426555D01*
X488500Y425750D01*
Y428499D01*
D02*
G37*
G36*
X479249D02*
X476500D01*
Y425750D01*
X478444Y426555D01*
X479249Y428499D01*
D02*
G37*
G36*
X473500D02*
X470750D01*
X471555Y426555D01*
X473500Y425750D01*
Y428499D01*
D02*
G37*
G36*
X464249D02*
X461500D01*
Y425750D01*
X463444Y426555D01*
X464249Y428499D01*
D02*
G37*
G36*
X456749Y443499D02*
X448250D01*
X449055Y441555D01*
X450879Y440800D01*
X451480Y440551D01*
X450983Y438592D01*
X450392Y438348D01*
X447040Y436959D01*
X446500Y435654D01*
Y430000D01*
Y425750D01*
X448444Y426555D01*
X448940Y427754D01*
X449750Y427418D01*
Y432750D01*
X452750D01*
Y427418D01*
X455460Y428540D01*
X455733D01*
X456555Y426555D01*
X458500Y425750D01*
Y430000D01*
Y434249D01*
X456863Y433571D01*
X455460Y436959D01*
X452870Y438032D01*
X452269Y438281D01*
X452767Y440239D01*
X453357Y440484D01*
X455944Y441555D01*
X456749Y443499D01*
D02*
G37*
G36*
X218500Y428499D02*
X215750D01*
X216556Y426555D01*
X218500Y425750D01*
Y428499D01*
D02*
G37*
G36*
X209249D02*
X206500D01*
Y425750D01*
X208444Y426555D01*
X209249Y428499D01*
D02*
G37*
G36*
X203500D02*
X200750D01*
X201556Y426555D01*
X203500Y425750D01*
Y428499D01*
D02*
G37*
G36*
X164249D02*
X161500D01*
Y425750D01*
X163444Y426555D01*
X164249Y428499D01*
D02*
G37*
G36*
X158500D02*
X155750D01*
X156556Y426555D01*
X158500Y425750D01*
Y428499D01*
D02*
G37*
G36*
X149249D02*
X146500D01*
Y425750D01*
X148444Y426555D01*
X149249Y428499D01*
D02*
G37*
G36*
X143500D02*
X140750D01*
X141556Y426555D01*
X143500Y425750D01*
Y428499D01*
D02*
G37*
G36*
X89249D02*
X86500D01*
Y425750D01*
X88444Y426555D01*
X89249Y428499D01*
D02*
G37*
G36*
X83500D02*
X80750D01*
X81556Y426555D01*
X83500Y425750D01*
Y428499D01*
D02*
G37*
G36*
X74249D02*
X71500D01*
Y425750D01*
X73444Y426555D01*
X74249Y428499D01*
D02*
G37*
G36*
X68500D02*
X65750D01*
X66556Y426555D01*
X68500Y425750D01*
Y428499D01*
D02*
G37*
G36*
X14249D02*
X11500D01*
Y425750D01*
X13444Y426555D01*
X14249Y428499D01*
D02*
G37*
G36*
X541000Y419249D02*
X539055Y418444D01*
X538250Y416499D01*
X541000D01*
Y419249D01*
D02*
G37*
G36*
X529000D02*
Y416499D01*
X531749D01*
X530944Y418444D01*
X529000Y419249D01*
D02*
G37*
G36*
X526000D02*
X524055Y418444D01*
X523250Y416499D01*
X526000D01*
Y419249D01*
D02*
G37*
G36*
X514000D02*
Y416499D01*
X516749D01*
X515944Y418444D01*
X514000Y419249D01*
D02*
G37*
G36*
X511000D02*
X509055Y418444D01*
X508250Y416499D01*
X511000D01*
Y419249D01*
D02*
G37*
G36*
X499000D02*
Y416499D01*
X501749D01*
X500944Y418444D01*
X499000Y419249D01*
D02*
G37*
G36*
X496000D02*
X494055Y418444D01*
X493250Y416499D01*
X496000D01*
Y419249D01*
D02*
G37*
G36*
X484000D02*
Y416499D01*
X486749D01*
X485944Y418444D01*
X484000Y419249D01*
D02*
G37*
G36*
X481000D02*
X479055Y418444D01*
X478250Y416499D01*
X481000D01*
Y419249D01*
D02*
G37*
G36*
X469000D02*
Y416499D01*
X471749D01*
X470944Y418444D01*
X469000Y419249D01*
D02*
G37*
G36*
X466000D02*
X464055Y418444D01*
X463250Y416499D01*
X466000D01*
Y419249D01*
D02*
G37*
G36*
X454000D02*
Y416499D01*
X456749D01*
X455944Y418444D01*
X454000Y419249D01*
D02*
G37*
G36*
X451000D02*
X449055Y418444D01*
X448250Y416499D01*
X451000D01*
Y419249D01*
D02*
G37*
G36*
X214000D02*
Y416499D01*
X216749D01*
X215944Y418444D01*
X214000Y419249D01*
D02*
G37*
G36*
X211000D02*
X209056Y418444D01*
X208250Y416499D01*
X211000D01*
Y419249D01*
D02*
G37*
G36*
X199000D02*
Y416499D01*
X201749D01*
X200944Y418444D01*
X199000Y419249D01*
D02*
G37*
G36*
X196000D02*
X194056Y418444D01*
X193250Y416499D01*
X196000D01*
Y419249D01*
D02*
G37*
G36*
X79000D02*
Y416499D01*
X81749D01*
X80944Y418444D01*
X79000Y419249D01*
D02*
G37*
G36*
X76000D02*
X74056Y418444D01*
X73250Y416499D01*
X76000D01*
Y419249D01*
D02*
G37*
G36*
X64000D02*
Y416499D01*
X66749D01*
X65944Y418444D01*
X64000Y419249D01*
D02*
G37*
G36*
X19000D02*
Y416499D01*
X21749D01*
X20944Y418444D01*
X19000Y419249D01*
D02*
G37*
G36*
X16000D02*
X14056Y418444D01*
X13250Y416499D01*
X16000D01*
Y419249D01*
D02*
G37*
G36*
X541000Y413500D02*
X538250D01*
X539055Y411555D01*
X541000Y410750D01*
Y413500D01*
D02*
G37*
G36*
X531749D02*
X529000D01*
Y410750D01*
X530944Y411555D01*
X531749Y413500D01*
D02*
G37*
G36*
X526000D02*
X523250D01*
X524055Y411555D01*
X526000Y410750D01*
Y413500D01*
D02*
G37*
G36*
X516749D02*
X514000D01*
Y410750D01*
X515944Y411555D01*
X516749Y413500D01*
D02*
G37*
G36*
X511000D02*
X508250D01*
X509055Y411555D01*
X511000Y410750D01*
Y413500D01*
D02*
G37*
G36*
X501749D02*
X499000D01*
Y410750D01*
X500944Y411555D01*
X501749Y413500D01*
D02*
G37*
G36*
X496000D02*
X493250D01*
X494055Y411555D01*
X496000Y410750D01*
Y413500D01*
D02*
G37*
G36*
X486749D02*
X484000D01*
Y410750D01*
X485944Y411555D01*
X486749Y413500D01*
D02*
G37*
G36*
X481000D02*
X478250D01*
X479055Y411555D01*
X481000Y410750D01*
Y413500D01*
D02*
G37*
G36*
X471749D02*
X469000D01*
Y410750D01*
X470944Y411555D01*
X471749Y413500D01*
D02*
G37*
G36*
X466000D02*
X463250D01*
X464055Y411555D01*
X466000Y410750D01*
Y413500D01*
D02*
G37*
G36*
X456749D02*
X454000D01*
Y410750D01*
X455944Y411555D01*
X456749Y413500D01*
D02*
G37*
G36*
X451000D02*
X448250D01*
X449055Y411555D01*
X451000Y410750D01*
Y413500D01*
D02*
G37*
G36*
X216749D02*
X214000D01*
Y410750D01*
X215944Y411555D01*
X216749Y413500D01*
D02*
G37*
G36*
X211000D02*
X208250D01*
X209056Y411555D01*
X211000Y410750D01*
Y413500D01*
D02*
G37*
G36*
X201749D02*
X199000D01*
Y410750D01*
X200944Y411555D01*
X201749Y413500D01*
D02*
G37*
G36*
X196000D02*
X193250D01*
X194056Y411555D01*
X196000Y410750D01*
Y413500D01*
D02*
G37*
G36*
X186749D02*
X184000D01*
Y410750D01*
X185944Y411555D01*
X186749Y413500D01*
D02*
G37*
G36*
X81749D02*
X79000D01*
Y410750D01*
X80944Y411555D01*
X81749Y413500D01*
D02*
G37*
G36*
X76000D02*
X73250D01*
X74056Y411555D01*
X76000Y410750D01*
Y413500D01*
D02*
G37*
G36*
X66749D02*
X64000D01*
Y410750D01*
X65944Y411555D01*
X66749Y413500D01*
D02*
G37*
G36*
X59283Y423250D02*
X45500D01*
Y409467D01*
X55246Y413504D01*
X55781Y414796D01*
X57830Y414515D01*
X59056Y411555D01*
X61000Y410750D01*
Y415000D01*
Y419249D01*
X59540Y418644D01*
X57893Y419894D01*
X59283Y423250D01*
D02*
G37*
G36*
X21749Y413500D02*
X19000D01*
Y410750D01*
X20944Y411555D01*
X21749Y413500D01*
D02*
G37*
G36*
X16000D02*
X13250D01*
X14056Y411555D01*
X16000Y410750D01*
Y413500D01*
D02*
G37*
G36*
X328582Y464500D02*
X317918D01*
X318643Y462750D01*
X317468Y460750D01*
X305500D01*
Y406500D01*
X371250D01*
Y460750D01*
X329032D01*
X327857Y462750D01*
X328582Y464500D01*
D02*
G37*
G36*
X536500Y404249D02*
Y401500D01*
X539249D01*
X538444Y403444D01*
X536500Y404249D01*
D02*
G37*
G36*
X533500D02*
X531555Y403444D01*
X530750Y401500D01*
X533500D01*
Y404249D01*
D02*
G37*
G36*
X521500D02*
Y401500D01*
X524249D01*
X523444Y403444D01*
X521500Y404249D01*
D02*
G37*
G36*
X518500D02*
X516555Y403444D01*
X515750Y401500D01*
X518500D01*
Y404249D01*
D02*
G37*
G36*
X506500D02*
Y401500D01*
X509249D01*
X508444Y403444D01*
X506500Y404249D01*
D02*
G37*
G36*
X503500D02*
X501555Y403444D01*
X500750Y401500D01*
X503500D01*
Y404249D01*
D02*
G37*
G36*
X491500D02*
Y401500D01*
X494249D01*
X493444Y403444D01*
X491500Y404249D01*
D02*
G37*
G36*
X488500D02*
X486555Y403444D01*
X485750Y401500D01*
X488500D01*
Y404249D01*
D02*
G37*
G36*
X476500D02*
Y401500D01*
X479249D01*
X478444Y403444D01*
X476500Y404249D01*
D02*
G37*
G36*
X473500D02*
X471555Y403444D01*
X470750Y401500D01*
X473500D01*
Y404249D01*
D02*
G37*
G36*
X461500D02*
Y401500D01*
X464249D01*
X463444Y403444D01*
X461500Y404249D01*
D02*
G37*
G36*
X296500D02*
Y401500D01*
X299249D01*
X298444Y403444D01*
X296500Y404249D01*
D02*
G37*
G36*
X206500D02*
Y401500D01*
X209249D01*
X208444Y403444D01*
X206500Y404249D01*
D02*
G37*
G36*
X203500D02*
X201556Y403444D01*
X200750Y401500D01*
X203500D01*
Y404249D01*
D02*
G37*
G36*
X191500D02*
Y401500D01*
X194249D01*
X193444Y403444D01*
X191500Y404249D01*
D02*
G37*
G36*
X188500D02*
X186556Y403444D01*
X185750Y401500D01*
X188500D01*
Y404249D01*
D02*
G37*
G36*
X26500D02*
Y401500D01*
X29249D01*
X28444Y403444D01*
X26500Y404249D01*
D02*
G37*
G36*
X23500D02*
X21556Y403444D01*
X20750Y401500D01*
X23500D01*
Y404249D01*
D02*
G37*
G36*
X11500D02*
Y401500D01*
X14249D01*
X13444Y403444D01*
X11500Y404249D01*
D02*
G37*
G36*
X449500Y404332D02*
X446791Y403209D01*
X445668Y400500D01*
X449500D01*
Y404332D01*
D02*
G37*
G36*
X539249Y398500D02*
X536500D01*
Y395750D01*
X538444Y396555D01*
X539249Y398500D01*
D02*
G37*
G36*
X533500D02*
X530750D01*
X531555Y396555D01*
X533500Y395750D01*
Y398500D01*
D02*
G37*
G36*
X524249D02*
X521500D01*
Y395750D01*
X523444Y396555D01*
X524249Y398500D01*
D02*
G37*
G36*
X518500D02*
X515750D01*
X516555Y396555D01*
X518500Y395750D01*
Y398500D01*
D02*
G37*
G36*
X509249D02*
X506500D01*
Y395750D01*
X508444Y396555D01*
X509249Y398500D01*
D02*
G37*
G36*
X503500D02*
X500750D01*
X501555Y396555D01*
X503500Y395750D01*
Y398500D01*
D02*
G37*
G36*
X494249D02*
X491500D01*
Y395750D01*
X493444Y396555D01*
X494249Y398500D01*
D02*
G37*
G36*
X488500D02*
X485750D01*
X486555Y396555D01*
X488500Y395750D01*
Y398500D01*
D02*
G37*
G36*
X479249D02*
X476500D01*
Y395750D01*
X478444Y396555D01*
X479249Y398500D01*
D02*
G37*
G36*
X473500D02*
X470750D01*
X471555Y396555D01*
X473500Y395750D01*
Y398500D01*
D02*
G37*
G36*
X464249D02*
X461500D01*
Y395750D01*
X463444Y396555D01*
X464249Y398500D01*
D02*
G37*
G36*
X452500Y404332D02*
Y399000D01*
Y393668D01*
X455210Y394790D01*
X455355Y395142D01*
X457878Y396007D01*
X458500Y395750D01*
Y400000D01*
Y404249D01*
X457172Y403699D01*
X455210Y403209D01*
X452500Y404332D01*
D02*
G37*
G36*
X299249Y398500D02*
X296500D01*
Y395750D01*
X298444Y396555D01*
X299249Y398500D01*
D02*
G37*
G36*
X209249D02*
X206500D01*
Y395750D01*
X208444Y396555D01*
X209249Y398500D01*
D02*
G37*
G36*
X203500D02*
X200750D01*
X201556Y396555D01*
X203500Y395750D01*
Y398500D01*
D02*
G37*
G36*
X194249D02*
X191500D01*
Y395750D01*
X193444Y396555D01*
X194249Y398500D01*
D02*
G37*
G36*
X188500D02*
X185750D01*
X186556Y396555D01*
X188500Y395750D01*
Y398500D01*
D02*
G37*
G36*
X29249D02*
X26500D01*
Y395750D01*
X28444Y396555D01*
X29249Y398500D01*
D02*
G37*
G36*
X23500D02*
X20750D01*
X21556Y396555D01*
X23500Y395750D01*
Y398500D01*
D02*
G37*
G36*
X14249D02*
X11500D01*
Y395750D01*
X13444Y396555D01*
X14249Y398500D01*
D02*
G37*
G36*
X449500Y397500D02*
X445668D01*
X446791Y394790D01*
X449500Y393668D01*
Y397500D01*
D02*
G37*
G36*
X541000Y389249D02*
X539055Y388444D01*
X538250Y386500D01*
X541000D01*
Y389249D01*
D02*
G37*
G36*
X529000D02*
Y386500D01*
X531749D01*
X530944Y388444D01*
X529000Y389249D01*
D02*
G37*
G36*
X526000D02*
X524055Y388444D01*
X523250Y386500D01*
X526000D01*
Y389249D01*
D02*
G37*
G36*
X514000D02*
Y386500D01*
X516749D01*
X515944Y388444D01*
X514000Y389249D01*
D02*
G37*
G36*
X511000D02*
X509055Y388444D01*
X508250Y386500D01*
X511000D01*
Y389249D01*
D02*
G37*
G36*
X499000D02*
Y386500D01*
X501749D01*
X500944Y388444D01*
X499000Y389249D01*
D02*
G37*
G36*
X496000D02*
X494055Y388444D01*
X493250Y386500D01*
X496000D01*
Y389249D01*
D02*
G37*
G36*
X484000D02*
Y386500D01*
X486749D01*
X485944Y388444D01*
X484000Y389249D01*
D02*
G37*
G36*
X481000D02*
X479055Y388444D01*
X478250Y386500D01*
X481000D01*
Y389249D01*
D02*
G37*
G36*
X469000D02*
Y386500D01*
X471749D01*
X470944Y388444D01*
X469000Y389249D01*
D02*
G37*
G36*
X466000D02*
X464055Y388444D01*
X463250Y386500D01*
X466000D01*
Y389249D01*
D02*
G37*
G36*
X454000D02*
Y386500D01*
X456749D01*
X455944Y388444D01*
X454000Y389249D01*
D02*
G37*
G36*
X451000D02*
X449055Y388444D01*
X448250Y386500D01*
X451000D01*
Y389249D01*
D02*
G37*
G36*
X214000D02*
Y386500D01*
X216749D01*
X215944Y388444D01*
X214000Y389249D01*
D02*
G37*
G36*
X211000D02*
X209056Y388444D01*
X208250Y386500D01*
X211000D01*
Y389249D01*
D02*
G37*
G36*
X199000D02*
Y386500D01*
X201749D01*
X200944Y388444D01*
X199000Y389249D01*
D02*
G37*
G36*
X196000D02*
X194056Y388444D01*
X193250Y386500D01*
X196000D01*
Y389249D01*
D02*
G37*
G36*
X19000D02*
Y386500D01*
X21749D01*
X20944Y388444D01*
X19000Y389249D01*
D02*
G37*
G36*
X16000D02*
X14056Y388444D01*
X13250Y386500D01*
X16000D01*
Y389249D01*
D02*
G37*
G36*
X541000Y383500D02*
X538250D01*
X539055Y381555D01*
X541000Y380750D01*
Y383500D01*
D02*
G37*
G36*
X531749D02*
X529000D01*
Y380750D01*
X530944Y381555D01*
X531749Y383500D01*
D02*
G37*
G36*
X526000D02*
X523250D01*
X524055Y381555D01*
X526000Y380750D01*
Y383500D01*
D02*
G37*
G36*
X516749D02*
X514000D01*
Y380750D01*
X515944Y381555D01*
X516749Y383500D01*
D02*
G37*
G36*
X511000D02*
X508250D01*
X509055Y381555D01*
X511000Y380750D01*
Y383500D01*
D02*
G37*
G36*
X501749D02*
X499000D01*
Y380750D01*
X500944Y381555D01*
X501749Y383500D01*
D02*
G37*
G36*
X496000D02*
X493250D01*
X494055Y381555D01*
X496000Y380750D01*
Y383500D01*
D02*
G37*
G36*
X486749D02*
X484000D01*
Y380750D01*
X485944Y381555D01*
X486749Y383500D01*
D02*
G37*
G36*
X481000D02*
X478250D01*
X479055Y381555D01*
X481000Y380750D01*
Y383500D01*
D02*
G37*
G36*
X471749D02*
X469000D01*
Y380750D01*
X470944Y381555D01*
X471749Y383500D01*
D02*
G37*
G36*
X466000D02*
X463250D01*
X464055Y381555D01*
X466000Y380750D01*
Y383500D01*
D02*
G37*
G36*
X456749D02*
X454000D01*
Y380750D01*
X455944Y381555D01*
X456749Y383500D01*
D02*
G37*
G36*
X451000D02*
X448250D01*
X449055Y381555D01*
X451000Y380750D01*
Y383500D01*
D02*
G37*
G36*
X216749D02*
X214000D01*
Y380750D01*
X215944Y381555D01*
X216749Y383500D01*
D02*
G37*
G36*
X211000D02*
X208250D01*
X209056Y381555D01*
X211000Y380750D01*
Y383500D01*
D02*
G37*
G36*
X201749D02*
X199000D01*
Y380750D01*
X200944Y381555D01*
X201749Y383500D01*
D02*
G37*
G36*
X196000D02*
X193250D01*
X194056Y381555D01*
X196000Y380750D01*
Y383500D01*
D02*
G37*
G36*
X21749D02*
X19000D01*
Y380750D01*
X20944Y381555D01*
X21749Y383500D01*
D02*
G37*
G36*
X16000D02*
X13250D01*
X14056Y381555D01*
X16000Y380750D01*
Y383500D01*
D02*
G37*
G36*
X43000Y406071D02*
X33050Y401950D01*
X28929Y392000D01*
X33050Y382050D01*
X43000Y377929D01*
X52950Y382050D01*
X57071Y392000D01*
X52950Y401950D01*
X43000Y406071D01*
D02*
G37*
G36*
X159750Y381035D02*
X152300Y377950D01*
X150434Y373444D01*
X148599D01*
X148295Y373506D01*
X146500Y374249D01*
Y370000D01*
Y365750D01*
X146881Y365908D01*
X149445Y364944D01*
X151686Y359533D01*
X149056Y358444D01*
X148250Y356500D01*
X152500D01*
Y355000D01*
X154000D01*
Y350750D01*
X155944Y351555D01*
X157370Y355000D01*
X158043Y355672D01*
X159750Y354964D01*
Y368000D01*
Y381035D01*
D02*
G37*
G36*
X536500Y374249D02*
Y371500D01*
X539249D01*
X538444Y373444D01*
X536500Y374249D01*
D02*
G37*
G36*
X533500D02*
X531555Y373444D01*
X530750Y371500D01*
X533500D01*
Y374249D01*
D02*
G37*
G36*
X521500D02*
Y371500D01*
X524249D01*
X523444Y373444D01*
X521500Y374249D01*
D02*
G37*
G36*
X518500D02*
X516555Y373444D01*
X515750Y371500D01*
X518500D01*
Y374249D01*
D02*
G37*
G36*
X506500D02*
Y371500D01*
X509249D01*
X508444Y373444D01*
X506500Y374249D01*
D02*
G37*
G36*
X503500D02*
X501555Y373444D01*
X500750Y371500D01*
X503500D01*
Y374249D01*
D02*
G37*
G36*
X488500D02*
X486555Y373444D01*
X485750Y371500D01*
X488500D01*
Y374249D01*
D02*
G37*
G36*
X473500D02*
X471555Y373444D01*
X470750Y371500D01*
X473500D01*
Y374249D01*
D02*
G37*
G36*
X461500D02*
Y371500D01*
X464249D01*
X463444Y373444D01*
X461500Y374249D01*
D02*
G37*
G36*
X218500D02*
X216556Y373444D01*
X215750Y371500D01*
X218500D01*
Y374249D01*
D02*
G37*
G36*
X143500D02*
X141556Y373444D01*
X140750Y371500D01*
X143500D01*
Y374249D01*
D02*
G37*
G36*
X131500D02*
Y371500D01*
X134249D01*
X133444Y373444D01*
X131500Y374249D01*
D02*
G37*
G36*
X128500D02*
X126556Y373444D01*
X125750Y371500D01*
X128500D01*
Y374249D01*
D02*
G37*
G36*
X98500D02*
X96556Y373444D01*
X95750Y371500D01*
X98500D01*
Y374249D01*
D02*
G37*
G36*
X86500D02*
Y371500D01*
X89249D01*
X88444Y373444D01*
X86500Y374249D01*
D02*
G37*
G36*
X83500D02*
X81556Y373444D01*
X80750Y371500D01*
X83500D01*
Y374249D01*
D02*
G37*
G36*
X71500D02*
Y371500D01*
X74249D01*
X73444Y373444D01*
X71500Y374249D01*
D02*
G37*
G36*
X68500D02*
X66556Y373444D01*
X65750Y371500D01*
X68500D01*
Y374249D01*
D02*
G37*
G36*
X56500D02*
Y371500D01*
X59249D01*
X58444Y373444D01*
X56500Y374249D01*
D02*
G37*
G36*
X26500D02*
Y371500D01*
X29249D01*
X28444Y373444D01*
X26500Y374249D01*
D02*
G37*
G36*
X23500D02*
X21556Y373444D01*
X20750Y371500D01*
X23500D01*
Y374249D01*
D02*
G37*
G36*
X11500D02*
Y371500D01*
X14249D01*
X13444Y373444D01*
X11500Y374249D01*
D02*
G37*
G36*
X448750Y375082D02*
X446040Y373960D01*
X444918Y371250D01*
X448750D01*
Y375082D01*
D02*
G37*
G36*
X164750Y381036D02*
Y370500D01*
X175286D01*
X172200Y377950D01*
X164750Y381036D01*
D02*
G37*
G36*
X53500Y374249D02*
X51556Y373444D01*
X50129Y370000D01*
X48799Y368669D01*
X43000Y371071D01*
X33050Y366950D01*
X28929Y357000D01*
X33050Y347050D01*
X43000Y342929D01*
X52950Y347050D01*
X57071Y357000D01*
X54083Y364213D01*
X55000Y365129D01*
X58444Y366555D01*
X59249Y368500D01*
X55000D01*
Y370000D01*
X53500D01*
Y374249D01*
D02*
G37*
G36*
X491500D02*
Y370000D01*
X490000D01*
Y368500D01*
X484139D01*
X483747Y368108D01*
X481617Y368990D01*
X479870Y370000D01*
X478444Y373444D01*
X476500Y374249D01*
Y370000D01*
X475000D01*
Y368500D01*
X470750D01*
X471555Y366555D01*
X475000Y365129D01*
X474974Y365000D01*
X480500D01*
Y363500D01*
X482000D01*
Y358168D01*
X484710Y359291D01*
X485692Y361662D01*
X486449Y363490D01*
X488301Y364240D01*
X489058Y362412D01*
X490041Y360041D01*
X492750Y358918D01*
Y364250D01*
X494250D01*
Y365750D01*
X499582D01*
X498460Y368460D01*
X494851Y369954D01*
X494870Y370000D01*
X493444Y373444D01*
X491500Y374249D01*
D02*
G37*
G36*
X539249Y368500D02*
X536500D01*
Y365750D01*
X538444Y366555D01*
X539249Y368500D01*
D02*
G37*
G36*
X533500D02*
X530750D01*
X531555Y366555D01*
X533500Y365750D01*
Y368500D01*
D02*
G37*
G36*
X524249D02*
X521500D01*
Y365750D01*
X523444Y366555D01*
X524249Y368500D01*
D02*
G37*
G36*
X518500D02*
X515750D01*
X516555Y366555D01*
X518500Y365750D01*
Y368500D01*
D02*
G37*
G36*
X509249D02*
X506500D01*
Y365750D01*
X508444Y366555D01*
X509249Y368500D01*
D02*
G37*
G36*
X503500D02*
X500750D01*
X501555Y366555D01*
X503500Y365750D01*
Y368500D01*
D02*
G37*
G36*
X464249D02*
X461500D01*
Y365750D01*
X463444Y366555D01*
X464249Y368500D01*
D02*
G37*
G36*
X451750Y375082D02*
Y369750D01*
Y364418D01*
X454459Y365541D01*
X454708Y366140D01*
X456973Y366382D01*
X458500Y365750D01*
Y370000D01*
Y374249D01*
X456797Y373544D01*
X455658Y373444D01*
X454673D01*
X454459Y373960D01*
X451750Y375082D01*
D02*
G37*
G36*
X218500Y368500D02*
X215750D01*
X216556Y366555D01*
X218500Y365750D01*
Y368500D01*
D02*
G37*
G36*
X143500D02*
X140750D01*
X141556Y366555D01*
X143500Y365750D01*
Y368500D01*
D02*
G37*
G36*
X134249D02*
X131500D01*
Y365750D01*
X133444Y366555D01*
X134249Y368500D01*
D02*
G37*
G36*
X128500D02*
X125750D01*
X126556Y366555D01*
X128500Y365750D01*
Y368500D01*
D02*
G37*
G36*
X98500D02*
X95750D01*
X96556Y366555D01*
X98500Y365750D01*
Y368500D01*
D02*
G37*
G36*
X89249D02*
X86500D01*
Y365750D01*
X88444Y366555D01*
X89249Y368500D01*
D02*
G37*
G36*
X83500D02*
X80750D01*
X81556Y366555D01*
X83500Y365750D01*
Y368500D01*
D02*
G37*
G36*
X74249D02*
X71500D01*
Y365750D01*
X73444Y366555D01*
X74249Y368500D01*
D02*
G37*
G36*
X68500D02*
X65750D01*
X66556Y366555D01*
X68500Y365750D01*
Y368500D01*
D02*
G37*
G36*
X29249D02*
X26500D01*
Y365750D01*
X28444Y366555D01*
X29249Y368500D01*
D02*
G37*
G36*
X23500D02*
X20750D01*
X21556Y366555D01*
X23500Y365750D01*
Y368500D01*
D02*
G37*
G36*
X14249D02*
X11500D01*
Y365750D01*
X13444Y366555D01*
X14249Y368500D01*
D02*
G37*
G36*
X448750Y368250D02*
X444918D01*
X446040Y365541D01*
X448750Y364418D01*
Y368250D01*
D02*
G37*
G36*
X530500Y362832D02*
Y359000D01*
X534332D01*
X533209Y361710D01*
X530500Y362832D01*
D02*
G37*
G36*
X527500D02*
X524790Y361710D01*
X523668Y359000D01*
X527500D01*
Y362832D01*
D02*
G37*
G36*
X499582Y362750D02*
X495750D01*
Y358918D01*
X498460Y360041D01*
X499582Y362750D01*
D02*
G37*
G36*
X479000Y362000D02*
X475168D01*
X476291Y359291D01*
X479000Y358168D01*
Y362000D01*
D02*
G37*
G36*
X202250Y378000D02*
X192250D01*
X187250Y373000D01*
Y363000D01*
X192250Y358000D01*
X202250D01*
X207250Y363000D01*
Y373000D01*
X202250Y378000D01*
D02*
G37*
G36*
X541000Y359249D02*
X539055Y358444D01*
X538250Y356500D01*
X541000D01*
Y359249D01*
D02*
G37*
G36*
X514000D02*
Y356500D01*
X516749D01*
X515944Y358444D01*
X514000Y359249D01*
D02*
G37*
G36*
X511000D02*
X509055Y358444D01*
X508250Y356500D01*
X511000D01*
Y359249D01*
D02*
G37*
G36*
X454000D02*
Y356500D01*
X456749D01*
X455944Y358444D01*
X454000Y359249D01*
D02*
G37*
G36*
X451000D02*
X449055Y358444D01*
X448250Y356500D01*
X451000D01*
Y359249D01*
D02*
G37*
G36*
X139000D02*
Y356500D01*
X141749D01*
X140944Y358444D01*
X139000Y359249D01*
D02*
G37*
G36*
X136000D02*
X134056Y358444D01*
X133250Y356500D01*
X136000D01*
Y359249D01*
D02*
G37*
G36*
X94000D02*
Y356500D01*
X96749D01*
X95944Y358444D01*
X94000Y359249D01*
D02*
G37*
G36*
X91000D02*
X89056Y358444D01*
X88250Y356500D01*
X91000D01*
Y359249D01*
D02*
G37*
G36*
X19000D02*
Y356500D01*
X21749D01*
X20944Y358444D01*
X19000Y359249D01*
D02*
G37*
G36*
X16000D02*
X14056Y358444D01*
X13250Y356500D01*
X16000D01*
Y359249D01*
D02*
G37*
G36*
X175285Y365500D02*
X164750D01*
Y354964D01*
X172200Y358050D01*
X175285Y365500D01*
D02*
G37*
G36*
X534332Y356000D02*
X530500D01*
Y352168D01*
X533209Y353290D01*
X534332Y356000D01*
D02*
G37*
G36*
X527500D02*
X523668D01*
X524790Y353290D01*
X527500Y352168D01*
Y356000D01*
D02*
G37*
G36*
X541000Y353500D02*
X538250D01*
X539055Y351555D01*
X541000Y350750D01*
Y353500D01*
D02*
G37*
G36*
X516749D02*
X514000D01*
Y350750D01*
X515944Y351555D01*
X516749Y353500D01*
D02*
G37*
G36*
X511000D02*
X508250D01*
X509055Y351555D01*
X511000Y350750D01*
Y353500D01*
D02*
G37*
G36*
X456749D02*
X454000D01*
Y350750D01*
X455944Y351555D01*
X456749Y353500D01*
D02*
G37*
G36*
X451000D02*
X448250D01*
X449055Y351555D01*
X451000Y350750D01*
Y353500D01*
D02*
G37*
G36*
X151000D02*
X148250D01*
X149056Y351555D01*
X151000Y350750D01*
Y353500D01*
D02*
G37*
G36*
X141749D02*
X139000D01*
Y350750D01*
X140944Y351555D01*
X141749Y353500D01*
D02*
G37*
G36*
X136000D02*
X133250D01*
X134056Y351555D01*
X136000Y350750D01*
Y353500D01*
D02*
G37*
G36*
X96749D02*
X94000D01*
Y350750D01*
X95944Y351555D01*
X96749Y353500D01*
D02*
G37*
G36*
X91000D02*
X88250D01*
X89056Y351555D01*
X91000Y350750D01*
Y353500D01*
D02*
G37*
G36*
X21749D02*
X19000D01*
Y350750D01*
X20944Y351555D01*
X21749Y353500D01*
D02*
G37*
G36*
X16000D02*
X13250D01*
X14056Y351555D01*
X16000Y350750D01*
Y353500D01*
D02*
G37*
G36*
X500500Y354250D02*
X495500D01*
Y349250D01*
X500500D01*
Y354250D01*
D02*
G37*
G36*
X440500Y403000D02*
X374750D01*
Y348750D01*
X440500D01*
Y403000D01*
D02*
G37*
G36*
X371250D02*
X305500D01*
Y348750D01*
X371250D01*
Y403000D01*
D02*
G37*
G36*
X391250Y344582D02*
X388540Y343460D01*
X386673Y344177D01*
X386500Y344249D01*
Y340000D01*
Y335750D01*
X387991Y336368D01*
X388540Y335041D01*
X391250Y333918D01*
Y339250D01*
Y344582D01*
D02*
G37*
G36*
X401500Y344249D02*
Y341500D01*
X404249D01*
X403444Y343444D01*
X401500Y344249D01*
D02*
G37*
G36*
X383500D02*
X381555Y343444D01*
X380750Y341500D01*
X383500D01*
Y344249D01*
D02*
G37*
G36*
X206500D02*
Y341500D01*
X209249D01*
X208444Y343444D01*
X206500Y344249D01*
D02*
G37*
G36*
X203500D02*
X201556Y343444D01*
X200750Y341500D01*
X203500D01*
Y344249D01*
D02*
G37*
G36*
X191500D02*
Y341500D01*
X194249D01*
X193444Y343444D01*
X191500Y344249D01*
D02*
G37*
G36*
X188500D02*
X186556Y343444D01*
X185750Y341500D01*
X188500D01*
Y344249D01*
D02*
G37*
G36*
X161500D02*
Y341500D01*
X164249D01*
X163444Y343444D01*
X161500Y344249D01*
D02*
G37*
G36*
X158500D02*
X156556Y343444D01*
X155750Y341500D01*
X158500D01*
Y344249D01*
D02*
G37*
G36*
X146500D02*
Y341500D01*
X149249D01*
X148444Y343444D01*
X146500Y344249D01*
D02*
G37*
G36*
X143500D02*
X141556Y343444D01*
X140750Y341500D01*
X143500D01*
Y344249D01*
D02*
G37*
G36*
X131500D02*
Y341500D01*
X134249D01*
X133444Y343444D01*
X131500Y344249D01*
D02*
G37*
G36*
X128500D02*
X126556Y343444D01*
X125750Y341500D01*
X128500D01*
Y344249D01*
D02*
G37*
G36*
X71500D02*
Y341500D01*
X74249D01*
X73444Y343444D01*
X71500Y344249D01*
D02*
G37*
G36*
X68500D02*
X66556Y343444D01*
X65750Y341500D01*
X68500D01*
Y344249D01*
D02*
G37*
G36*
X56500D02*
Y341500D01*
X59249D01*
X58444Y343444D01*
X56500Y344249D01*
D02*
G37*
G36*
X53500D02*
X51556Y343444D01*
X50750Y341500D01*
X53500D01*
Y344249D01*
D02*
G37*
G36*
X26500D02*
Y341500D01*
X29249D01*
X28444Y343444D01*
X26500Y344249D01*
D02*
G37*
G36*
X23500D02*
X21556Y343444D01*
X20750Y341500D01*
X23500D01*
Y344249D01*
D02*
G37*
G36*
X11500D02*
Y341500D01*
X14249D01*
X13444Y343444D01*
X11500Y344249D01*
D02*
G37*
G36*
X436500Y343582D02*
Y339750D01*
X440332D01*
X439210Y342459D01*
X436500Y343582D01*
D02*
G37*
G36*
X433500D02*
X430790Y342459D01*
X429668Y339750D01*
X433500D01*
Y343582D01*
D02*
G37*
G36*
X351750Y343332D02*
Y339500D01*
X355582D01*
X354459Y342210D01*
X351750Y343332D01*
D02*
G37*
G36*
X348750D02*
X346040Y342210D01*
X344918Y339500D01*
X348750D01*
Y343332D01*
D02*
G37*
G36*
X59249Y338500D02*
X50750D01*
X50864Y338226D01*
X49333Y336695D01*
X45500Y338283D01*
Y322000D01*
Y305717D01*
X55246Y309754D01*
X59976Y321174D01*
X61000Y320750D01*
Y325000D01*
Y329249D01*
X59703Y328712D01*
X57296Y329297D01*
X55645Y333281D01*
X55289Y334301D01*
X56397Y335708D01*
X58444Y336555D01*
X59249Y338500D01*
D02*
G37*
G36*
X404249D02*
X401500D01*
Y335750D01*
X403444Y336555D01*
X404249Y338500D01*
D02*
G37*
G36*
X394250Y344582D02*
Y339250D01*
Y333918D01*
X396959Y335041D01*
X397436Y336191D01*
X398500Y335750D01*
Y340000D01*
Y344249D01*
X396777Y343535D01*
X394250Y344582D01*
D02*
G37*
G36*
X383500Y338500D02*
X380750D01*
X381555Y336555D01*
X383500Y335750D01*
Y338500D01*
D02*
G37*
G36*
X209249D02*
X206500D01*
Y335750D01*
X208444Y336555D01*
X209249Y338500D01*
D02*
G37*
G36*
X203500D02*
X200750D01*
X201556Y336555D01*
X203500Y335750D01*
Y338500D01*
D02*
G37*
G36*
X194249D02*
X191500D01*
Y335750D01*
X193444Y336555D01*
X194249Y338500D01*
D02*
G37*
G36*
X188500D02*
X185750D01*
X186556Y336555D01*
X188500Y335750D01*
Y338500D01*
D02*
G37*
G36*
X164249D02*
X161500D01*
Y335750D01*
X163444Y336555D01*
X164249Y338500D01*
D02*
G37*
G36*
X158500D02*
X155750D01*
X156556Y336555D01*
X158500Y335750D01*
Y338500D01*
D02*
G37*
G36*
X149249D02*
X146500D01*
Y335750D01*
X148444Y336555D01*
X149249Y338500D01*
D02*
G37*
G36*
X143500D02*
X140750D01*
X141556Y336555D01*
X143500Y335750D01*
Y338500D01*
D02*
G37*
G36*
X134249D02*
X131500D01*
Y335750D01*
X133444Y336555D01*
X134249Y338500D01*
D02*
G37*
G36*
X128500D02*
X125750D01*
X126556Y336555D01*
X128500Y335750D01*
Y338500D01*
D02*
G37*
G36*
X74249D02*
X71500D01*
Y335750D01*
X73444Y336555D01*
X74249Y338500D01*
D02*
G37*
G36*
X68500D02*
X65750D01*
X66556Y336555D01*
X68500Y335750D01*
Y338500D01*
D02*
G37*
G36*
X29249D02*
X26500D01*
Y335750D01*
X28444Y336555D01*
X29249Y338500D01*
D02*
G37*
G36*
X23500D02*
X20750D01*
X21556Y336555D01*
X23500Y335750D01*
Y338500D01*
D02*
G37*
G36*
X14249D02*
X11500D01*
Y335750D01*
X13444Y336555D01*
X14249Y338500D01*
D02*
G37*
G36*
X266500Y338582D02*
Y334750D01*
X270332D01*
X269209Y337459D01*
X266500Y338582D01*
D02*
G37*
G36*
X263500D02*
X260791Y337459D01*
X259668Y334750D01*
X263500D01*
Y338582D01*
D02*
G37*
G36*
X440332Y336750D02*
X436500D01*
Y332918D01*
X439210Y334040D01*
X440332Y336750D01*
D02*
G37*
G36*
X433500D02*
X429668D01*
X430790Y334040D01*
X433500Y332918D01*
Y336750D01*
D02*
G37*
G36*
X355582Y336500D02*
X351750D01*
Y332668D01*
X354459Y333791D01*
X355582Y336500D01*
D02*
G37*
G36*
X348750D02*
X344918D01*
X346040Y333791D01*
X348750Y332668D01*
Y336500D01*
D02*
G37*
G36*
X263500Y331750D02*
X259668D01*
X259975Y331010D01*
X259000Y330035D01*
Y326500D01*
X261785D01*
X263290Y328005D01*
X263500Y327918D01*
Y331750D01*
D02*
G37*
G36*
X379000Y329249D02*
Y326500D01*
X381749D01*
X380944Y328444D01*
X379000Y329249D01*
D02*
G37*
G36*
X376000D02*
X374055Y328444D01*
X373250Y326500D01*
X376000D01*
Y329249D01*
D02*
G37*
G36*
X364000D02*
Y326500D01*
X366749D01*
X365944Y328444D01*
X364000Y329249D01*
D02*
G37*
G36*
X361000D02*
X359055Y328444D01*
X358250Y326500D01*
X361000D01*
Y329249D01*
D02*
G37*
G36*
X349000D02*
Y326500D01*
X351749D01*
X350944Y328444D01*
X349000Y329249D01*
D02*
G37*
G36*
X346000D02*
X344055Y328444D01*
X343250Y326500D01*
X346000D01*
Y329249D01*
D02*
G37*
G36*
X334000D02*
Y326500D01*
X336749D01*
X335944Y328444D01*
X334000Y329249D01*
D02*
G37*
G36*
X331000D02*
X329055Y328444D01*
X328250Y326500D01*
X331000D01*
Y329249D01*
D02*
G37*
G36*
X289000D02*
Y326500D01*
X291749D01*
X290944Y328444D01*
X289000Y329249D01*
D02*
G37*
G36*
X286000D02*
X284056Y328444D01*
X283250Y326500D01*
X286000D01*
Y329249D01*
D02*
G37*
G36*
X274000D02*
Y326500D01*
X276749D01*
X275944Y328444D01*
X274000Y329249D01*
D02*
G37*
G36*
X270332Y331750D02*
X266500D01*
Y327918D01*
X266709Y328005D01*
X268214Y326500D01*
X271000D01*
Y330036D01*
X270025Y331010D01*
X270332Y331750D01*
D02*
G37*
G36*
X256000Y329249D02*
X254056Y328444D01*
X253250Y326500D01*
X256000D01*
Y329249D01*
D02*
G37*
G36*
X229000D02*
Y326500D01*
X231749D01*
X230944Y328444D01*
X229000Y329249D01*
D02*
G37*
G36*
X226000D02*
X224056Y328444D01*
X223250Y326500D01*
X226000D01*
Y329249D01*
D02*
G37*
G36*
X214000D02*
Y326500D01*
X216749D01*
X215944Y328444D01*
X214000Y329249D01*
D02*
G37*
G36*
X211000D02*
X209056Y328444D01*
X208250Y326500D01*
X211000D01*
Y329249D01*
D02*
G37*
G36*
X199000D02*
Y326500D01*
X201749D01*
X200944Y328444D01*
X199000Y329249D01*
D02*
G37*
G36*
X196000D02*
X194056Y328444D01*
X193250Y326500D01*
X196000D01*
Y329249D01*
D02*
G37*
G36*
X76000D02*
X74056Y328444D01*
X73250Y326500D01*
X76000D01*
Y329249D01*
D02*
G37*
G36*
X64000D02*
Y326500D01*
X66749D01*
X65944Y328444D01*
X64000Y329249D01*
D02*
G37*
G36*
X19000D02*
Y326500D01*
X21749D01*
X20944Y328444D01*
X19000Y329249D01*
D02*
G37*
G36*
X16000D02*
X14056Y328444D01*
X13250Y326500D01*
X16000D01*
Y329249D01*
D02*
G37*
G36*
X40500Y338283D02*
X30754Y334246D01*
X26717Y324500D01*
X40500D01*
Y338283D01*
D02*
G37*
G36*
X541500Y326332D02*
X538791Y325210D01*
X537668Y322500D01*
X541500D01*
Y326332D01*
D02*
G37*
G36*
X381749Y323500D02*
X379000D01*
Y320750D01*
X380944Y321555D01*
X381749Y323500D01*
D02*
G37*
G36*
X376000D02*
X373250D01*
X374055Y321555D01*
X376000Y320750D01*
Y323500D01*
D02*
G37*
G36*
X366749D02*
X364000D01*
Y320750D01*
X365944Y321555D01*
X366749Y323500D01*
D02*
G37*
G36*
X361000D02*
X358250D01*
X359055Y321555D01*
X361000Y320750D01*
Y323500D01*
D02*
G37*
G36*
X351749D02*
X349000D01*
Y320750D01*
X350944Y321555D01*
X351749Y323500D01*
D02*
G37*
G36*
X346000D02*
X343250D01*
X344055Y321555D01*
X346000Y320750D01*
Y323500D01*
D02*
G37*
G36*
X336749D02*
X334000D01*
Y320750D01*
X335944Y321555D01*
X336749Y323500D01*
D02*
G37*
G36*
X331000D02*
X328250D01*
X329055Y321555D01*
X331000Y320750D01*
Y323500D01*
D02*
G37*
G36*
X291749D02*
X289000D01*
Y320750D01*
X290944Y321555D01*
X291749Y323500D01*
D02*
G37*
G36*
X286000D02*
X283250D01*
X284056Y321555D01*
X286000Y320750D01*
Y323500D01*
D02*
G37*
G36*
X276749D02*
X274000D01*
Y320750D01*
X275944Y321555D01*
X276749Y323500D01*
D02*
G37*
G36*
X271000D02*
X268250D01*
X269056Y321555D01*
X271000Y320750D01*
Y323500D01*
D02*
G37*
G36*
X261749D02*
X259000D01*
Y320750D01*
X260944Y321555D01*
X261749Y323500D01*
D02*
G37*
G36*
X256000D02*
X253250D01*
X254056Y321555D01*
X256000Y320750D01*
Y323500D01*
D02*
G37*
G36*
X231749D02*
X229000D01*
Y320750D01*
X230944Y321555D01*
X231749Y323500D01*
D02*
G37*
G36*
X226000D02*
X223250D01*
X224056Y321555D01*
X226000Y320750D01*
Y323500D01*
D02*
G37*
G36*
X216749D02*
X214000D01*
Y320750D01*
X215944Y321555D01*
X216749Y323500D01*
D02*
G37*
G36*
X211000D02*
X208250D01*
X209056Y321555D01*
X211000Y320750D01*
Y323500D01*
D02*
G37*
G36*
X201749D02*
X199000D01*
Y320750D01*
X200944Y321555D01*
X201749Y323500D01*
D02*
G37*
G36*
X196000D02*
X193250D01*
X194056Y321555D01*
X196000Y320750D01*
Y323500D01*
D02*
G37*
G36*
X66749D02*
X64000D01*
Y320750D01*
X65944Y321555D01*
X66749Y323500D01*
D02*
G37*
G36*
X21749D02*
X19000D01*
Y320750D01*
X20944Y321555D01*
X21749Y323500D01*
D02*
G37*
G36*
X16000D02*
X13250D01*
X14056Y321555D01*
X16000Y320750D01*
Y323500D01*
D02*
G37*
G36*
X541500Y319500D02*
X537668D01*
X538791Y316791D01*
X541500Y315668D01*
Y319500D01*
D02*
G37*
G36*
X40500D02*
X26717D01*
X28305Y315666D01*
X26775Y314135D01*
X26500Y314249D01*
Y310000D01*
Y305750D01*
X28444Y306555D01*
X29292Y308603D01*
X30699Y309711D01*
X31718Y309355D01*
X40500Y305717D01*
Y319500D01*
D02*
G37*
G36*
X386500Y314249D02*
Y311500D01*
X389249D01*
X388444Y313444D01*
X386500Y314249D01*
D02*
G37*
G36*
X383500D02*
X381555Y313444D01*
X380750Y311500D01*
X383500D01*
Y314249D01*
D02*
G37*
G36*
X341500D02*
Y311500D01*
X344249D01*
X343444Y313444D01*
X341500Y314249D01*
D02*
G37*
G36*
X338500D02*
X336555Y313444D01*
X335750Y311500D01*
X338500D01*
Y314249D01*
D02*
G37*
G36*
X326500D02*
Y311500D01*
X329249D01*
X328444Y313444D01*
X326500Y314249D01*
D02*
G37*
G36*
X323500D02*
X321555Y313444D01*
X320750Y311500D01*
X323500D01*
Y314249D01*
D02*
G37*
G36*
X281500D02*
Y311500D01*
X284249D01*
X283444Y313444D01*
X281500Y314249D01*
D02*
G37*
G36*
X278500D02*
X276556Y313444D01*
X275750Y311500D01*
X278500D01*
Y314249D01*
D02*
G37*
G36*
X266500D02*
Y311500D01*
X269249D01*
X268444Y313444D01*
X266500Y314249D01*
D02*
G37*
G36*
X263500D02*
X261556Y313444D01*
X260750Y311500D01*
X263500D01*
Y314249D01*
D02*
G37*
G36*
X251500D02*
Y311500D01*
X254249D01*
X253444Y313444D01*
X251500Y314249D01*
D02*
G37*
G36*
X248500D02*
X246556Y313444D01*
X245750Y311500D01*
X248500D01*
Y314249D01*
D02*
G37*
G36*
X221500D02*
Y311500D01*
X224249D01*
X223444Y313444D01*
X221500Y314249D01*
D02*
G37*
G36*
X218500D02*
X216556Y313444D01*
X215750Y311500D01*
X218500D01*
Y314249D01*
D02*
G37*
G36*
X176500D02*
Y311500D01*
X179249D01*
X178444Y313444D01*
X176500Y314249D01*
D02*
G37*
G36*
X173500D02*
X171556Y313444D01*
X170750Y311500D01*
X173500D01*
Y314249D01*
D02*
G37*
G36*
X161500D02*
Y311500D01*
X164249D01*
X163444Y313444D01*
X161500Y314249D01*
D02*
G37*
G36*
X158500D02*
X156556Y313444D01*
X155750Y311500D01*
X158500D01*
Y314249D01*
D02*
G37*
G36*
X146500D02*
Y311500D01*
X149249D01*
X148444Y313444D01*
X146500Y314249D01*
D02*
G37*
G36*
X143500D02*
X141556Y313444D01*
X140750Y311500D01*
X143500D01*
Y314249D01*
D02*
G37*
G36*
X131500D02*
Y311500D01*
X134249D01*
X133444Y313444D01*
X131500Y314249D01*
D02*
G37*
G36*
X128500D02*
X126556Y313444D01*
X125750Y311500D01*
X128500D01*
Y314249D01*
D02*
G37*
G36*
X116500D02*
Y311500D01*
X119249D01*
X118444Y313444D01*
X116500Y314249D01*
D02*
G37*
G36*
X113500D02*
X111556Y313444D01*
X110750Y311500D01*
X113500D01*
Y314249D01*
D02*
G37*
G36*
X101500D02*
Y311500D01*
X104249D01*
X103444Y313444D01*
X101500Y314249D01*
D02*
G37*
G36*
X23500D02*
X21556Y313444D01*
X20750Y311500D01*
X23500D01*
Y314249D01*
D02*
G37*
G36*
X11500D02*
Y311500D01*
X14249D01*
X13444Y313444D01*
X11500Y314249D01*
D02*
G37*
G36*
X389249Y308500D02*
X386500D01*
Y305750D01*
X388444Y306555D01*
X389249Y308500D01*
D02*
G37*
G36*
X383500D02*
X380750D01*
X381555Y306555D01*
X383500Y305750D01*
Y308500D01*
D02*
G37*
G36*
X344249D02*
X341500D01*
Y305750D01*
X343444Y306555D01*
X344249Y308500D01*
D02*
G37*
G36*
X338500D02*
X335750D01*
X336555Y306555D01*
X338500Y305750D01*
Y308500D01*
D02*
G37*
G36*
X329249D02*
X326500D01*
Y305750D01*
X328444Y306555D01*
X329249Y308500D01*
D02*
G37*
G36*
X323500D02*
X320750D01*
X321555Y306555D01*
X323500Y305750D01*
Y308500D01*
D02*
G37*
G36*
X284249D02*
X281500D01*
Y305750D01*
X283444Y306555D01*
X284249Y308500D01*
D02*
G37*
G36*
X278500D02*
X275750D01*
X276556Y306555D01*
X278500Y305750D01*
Y308500D01*
D02*
G37*
G36*
X254249D02*
X251500D01*
Y305750D01*
X253444Y306555D01*
X254249Y308500D01*
D02*
G37*
G36*
X248500D02*
X245750D01*
X246556Y306555D01*
X248500Y305750D01*
Y308500D01*
D02*
G37*
G36*
X224249D02*
X221500D01*
Y305750D01*
X223444Y306555D01*
X224249Y308500D01*
D02*
G37*
G36*
X218500D02*
X215750D01*
X216556Y306555D01*
X218500Y305750D01*
Y308500D01*
D02*
G37*
G36*
X179249D02*
X176500D01*
Y305750D01*
X178444Y306555D01*
X179249Y308500D01*
D02*
G37*
G36*
X173500D02*
X170750D01*
X171556Y306555D01*
X173500Y305750D01*
Y308500D01*
D02*
G37*
G36*
X164249D02*
X161500D01*
Y305750D01*
X163444Y306555D01*
X164249Y308500D01*
D02*
G37*
G36*
X158500D02*
X155750D01*
X156556Y306555D01*
X158500Y305750D01*
Y308500D01*
D02*
G37*
G36*
X149249D02*
X146500D01*
Y305750D01*
X148444Y306555D01*
X149249Y308500D01*
D02*
G37*
G36*
X143500D02*
X140750D01*
X141556Y306555D01*
X143500Y305750D01*
Y308500D01*
D02*
G37*
G36*
X134249D02*
X131500D01*
Y305750D01*
X133444Y306555D01*
X134249Y308500D01*
D02*
G37*
G36*
X128500D02*
X125750D01*
X126556Y306555D01*
X128500Y305750D01*
Y308500D01*
D02*
G37*
G36*
X119249D02*
X116500D01*
Y305750D01*
X118444Y306555D01*
X119249Y308500D01*
D02*
G37*
G36*
X113500D02*
X110750D01*
X111556Y306555D01*
X113500Y305750D01*
Y308500D01*
D02*
G37*
G36*
X104249D02*
X101500D01*
Y305750D01*
X103444Y306555D01*
X104249Y308500D01*
D02*
G37*
G36*
X98500D02*
X95750D01*
X96556Y306555D01*
X98500Y305750D01*
Y308500D01*
D02*
G37*
G36*
X23500D02*
X20750D01*
X21556Y306555D01*
X23500Y305750D01*
Y308500D01*
D02*
G37*
G36*
X14249D02*
X11500D01*
Y305750D01*
X13444Y306555D01*
X14249Y308500D01*
D02*
G37*
G36*
X541000Y299249D02*
X539055Y298444D01*
X538250Y296500D01*
X541000D01*
Y299249D01*
D02*
G37*
G36*
X229000D02*
Y296500D01*
X231749D01*
X230944Y298444D01*
X229000Y299249D01*
D02*
G37*
G36*
X226000D02*
X224056Y298444D01*
X223250Y296500D01*
X226000D01*
Y299249D01*
D02*
G37*
G36*
X199000D02*
Y296500D01*
X201749D01*
X200944Y298444D01*
X199000Y299249D01*
D02*
G37*
G36*
X196000D02*
X194056Y298444D01*
X193250Y296500D01*
X196000D01*
Y299249D01*
D02*
G37*
G36*
X184000D02*
Y296500D01*
X186749D01*
X185944Y298444D01*
X184000Y299249D01*
D02*
G37*
G36*
X181000D02*
X179056Y298444D01*
X178250Y296500D01*
X181000D01*
Y299249D01*
D02*
G37*
G36*
X169000D02*
Y296500D01*
X171749D01*
X170944Y298444D01*
X169000Y299249D01*
D02*
G37*
G36*
X166000D02*
X164056Y298444D01*
X163250Y296500D01*
X166000D01*
Y299249D01*
D02*
G37*
G36*
X154000D02*
Y296500D01*
X156749D01*
X155944Y298444D01*
X154000Y299249D01*
D02*
G37*
G36*
X151000D02*
X149056Y298444D01*
X148250Y296500D01*
X151000D01*
Y299249D01*
D02*
G37*
G36*
X139000D02*
Y296500D01*
X141749D01*
X140944Y298444D01*
X139000Y299249D01*
D02*
G37*
G36*
X136000D02*
X134056Y298444D01*
X133250Y296500D01*
X136000D01*
Y299249D01*
D02*
G37*
G36*
X124000D02*
Y296500D01*
X126749D01*
X125944Y298444D01*
X124000Y299249D01*
D02*
G37*
G36*
X121000D02*
X119056Y298444D01*
X118250Y296500D01*
X121000D01*
Y299249D01*
D02*
G37*
G36*
X109000D02*
Y296500D01*
X111749D01*
X110944Y298444D01*
X109000Y299249D01*
D02*
G37*
G36*
X106000D02*
X104056Y298444D01*
X103250Y296500D01*
X106000D01*
Y299249D01*
D02*
G37*
G36*
X94000D02*
Y296500D01*
X96749D01*
X95944Y298444D01*
X94000Y299249D01*
D02*
G37*
G36*
X91000D02*
X89056Y298444D01*
X88250Y296500D01*
X91000D01*
Y299249D01*
D02*
G37*
G36*
X541000Y293500D02*
X538250D01*
X539055Y291555D01*
X541000Y290750D01*
Y293500D01*
D02*
G37*
G36*
X231749D02*
X229000D01*
Y290750D01*
X230944Y291555D01*
X231749Y293500D01*
D02*
G37*
G36*
X226000D02*
X223250D01*
X224056Y291555D01*
X226000Y290750D01*
Y293500D01*
D02*
G37*
G36*
X201749D02*
X199000D01*
Y290750D01*
X200944Y291555D01*
X201749Y293500D01*
D02*
G37*
G36*
X196000D02*
X193250D01*
X194056Y291555D01*
X196000Y290750D01*
Y293500D01*
D02*
G37*
G36*
X186749D02*
X184000D01*
Y290750D01*
X185944Y291555D01*
X186749Y293500D01*
D02*
G37*
G36*
X181000D02*
X178250D01*
X179056Y291555D01*
X181000Y290750D01*
Y293500D01*
D02*
G37*
G36*
X171749D02*
X169000D01*
Y290750D01*
X170944Y291555D01*
X171749Y293500D01*
D02*
G37*
G36*
X166000D02*
X163250D01*
X164056Y291555D01*
X166000Y290750D01*
Y293500D01*
D02*
G37*
G36*
X156749D02*
X154000D01*
Y290750D01*
X155944Y291555D01*
X156749Y293500D01*
D02*
G37*
G36*
X151000D02*
X148250D01*
X149056Y291555D01*
X151000Y290750D01*
Y293500D01*
D02*
G37*
G36*
X141749D02*
X139000D01*
Y290750D01*
X140944Y291555D01*
X141749Y293500D01*
D02*
G37*
G36*
X136000D02*
X133250D01*
X134056Y291555D01*
X136000Y290750D01*
Y293500D01*
D02*
G37*
G36*
X126749D02*
X124000D01*
Y290750D01*
X125944Y291555D01*
X126749Y293500D01*
D02*
G37*
G36*
X121000D02*
X118250D01*
X119056Y291555D01*
X121000Y290750D01*
Y293500D01*
D02*
G37*
G36*
X111749D02*
X109000D01*
Y290750D01*
X110944Y291555D01*
X111749Y293500D01*
D02*
G37*
G36*
X106000D02*
X103250D01*
X104056Y291555D01*
X106000Y290750D01*
Y293500D01*
D02*
G37*
G36*
X96749D02*
X94000D01*
Y290750D01*
X95944Y291555D01*
X96749Y293500D01*
D02*
G37*
G36*
X91000D02*
X88250D01*
X89056Y291555D01*
X91000Y290750D01*
Y293500D01*
D02*
G37*
G36*
X476500Y284249D02*
Y281500D01*
X479249D01*
X478444Y283444D01*
X476500Y284249D01*
D02*
G37*
G36*
X473500D02*
X471555Y283444D01*
X470750Y281500D01*
X473500D01*
Y284249D01*
D02*
G37*
G36*
X386500D02*
Y281500D01*
X389249D01*
X388444Y283444D01*
X386500Y284249D01*
D02*
G37*
G36*
X383500D02*
X381555Y283444D01*
X380750Y281500D01*
X383500D01*
Y284249D01*
D02*
G37*
G36*
X341500D02*
Y281500D01*
X344249D01*
X343444Y283444D01*
X341500Y284249D01*
D02*
G37*
G36*
X338500D02*
X336555Y283444D01*
X335750Y281500D01*
X338500D01*
Y284249D01*
D02*
G37*
G36*
X326500D02*
Y281500D01*
X329249D01*
X328444Y283444D01*
X326500Y284249D01*
D02*
G37*
G36*
X323500D02*
X321555Y283444D01*
X320750Y281500D01*
X323500D01*
Y284249D01*
D02*
G37*
G36*
X311500D02*
Y281500D01*
X314249D01*
X313444Y283444D01*
X311500Y284249D01*
D02*
G37*
G36*
X308500D02*
X306556Y283444D01*
X305750Y281500D01*
X308500D01*
Y284249D01*
D02*
G37*
G36*
X296500D02*
Y281500D01*
X299249D01*
X298444Y283444D01*
X296500Y284249D01*
D02*
G37*
G36*
X293500D02*
X291556Y283444D01*
X290750Y281500D01*
X293500D01*
Y284249D01*
D02*
G37*
G36*
X206500D02*
Y281500D01*
X209249D01*
X208444Y283444D01*
X206500Y284249D01*
D02*
G37*
G36*
X203500D02*
X201556Y283444D01*
X200750Y281500D01*
X203500D01*
Y284249D01*
D02*
G37*
G36*
X158500D02*
X156556Y283444D01*
X155750Y281500D01*
X158500D01*
Y284249D01*
D02*
G37*
G36*
X146500D02*
Y281500D01*
X149249D01*
X148444Y283444D01*
X146500Y284249D01*
D02*
G37*
G36*
X143500D02*
X141556Y283444D01*
X140750Y281500D01*
X143500D01*
Y284249D01*
D02*
G37*
G36*
X131500D02*
Y281500D01*
X134249D01*
X133444Y283444D01*
X131500Y284249D01*
D02*
G37*
G36*
X128500D02*
X126556Y283444D01*
X125750Y281500D01*
X128500D01*
Y284249D01*
D02*
G37*
G36*
X116500D02*
Y281500D01*
X119249D01*
X118444Y283444D01*
X116500Y284249D01*
D02*
G37*
G36*
X113500D02*
X111556Y283444D01*
X110750Y281500D01*
X113500D01*
Y284249D01*
D02*
G37*
G36*
X479249Y278500D02*
X476500D01*
Y275750D01*
X478444Y276556D01*
X479249Y278500D01*
D02*
G37*
G36*
X473500D02*
X470750D01*
X471555Y276556D01*
X473500Y275750D01*
Y278500D01*
D02*
G37*
G36*
X389249D02*
X386500D01*
Y275750D01*
X388444Y276556D01*
X389249Y278500D01*
D02*
G37*
G36*
X383500D02*
X380750D01*
X381555Y276556D01*
X383500Y275750D01*
Y278500D01*
D02*
G37*
G36*
X344249D02*
X341500D01*
Y275750D01*
X343444Y276556D01*
X344249Y278500D01*
D02*
G37*
G36*
X338500D02*
X335750D01*
X336555Y276556D01*
X338500Y275750D01*
Y278500D01*
D02*
G37*
G36*
X329249D02*
X326500D01*
Y275750D01*
X328444Y276556D01*
X329249Y278500D01*
D02*
G37*
G36*
X323500D02*
X320750D01*
X321555Y276556D01*
X323500Y275750D01*
Y278500D01*
D02*
G37*
G36*
X314249D02*
X311500D01*
Y275750D01*
X313444Y276556D01*
X314249Y278500D01*
D02*
G37*
G36*
X308500D02*
X305750D01*
X306556Y276556D01*
X308500Y275750D01*
Y278500D01*
D02*
G37*
G36*
X299249D02*
X296500D01*
Y275750D01*
X298444Y276556D01*
X299249Y278500D01*
D02*
G37*
G36*
X293500D02*
X290750D01*
X291556Y276556D01*
X293500Y275750D01*
Y278500D01*
D02*
G37*
G36*
X158500D02*
X155750D01*
X156556Y276556D01*
X158500Y275750D01*
Y278500D01*
D02*
G37*
G36*
X149249D02*
X146500D01*
Y275750D01*
X148444Y276556D01*
X149249Y278500D01*
D02*
G37*
G36*
X143500D02*
X140750D01*
X141556Y276556D01*
X143500Y275750D01*
Y278500D01*
D02*
G37*
G36*
X134249D02*
X131500D01*
Y275750D01*
X133444Y276556D01*
X134249Y278500D01*
D02*
G37*
G36*
X128500D02*
X125750D01*
X126556Y276556D01*
X128500Y275750D01*
Y278500D01*
D02*
G37*
G36*
X119249D02*
X116500D01*
Y275750D01*
X118444Y276556D01*
X119249Y278500D01*
D02*
G37*
G36*
X113500D02*
X110750D01*
X111556Y276556D01*
X113500Y275750D01*
Y278500D01*
D02*
G37*
G36*
X267750Y282203D02*
Y272750D01*
X277203D01*
X274434Y279434D01*
X267750Y282203D01*
D02*
G37*
G36*
X542250Y274832D02*
X539540Y273710D01*
X538418Y271000D01*
X542250D01*
Y274832D01*
D02*
G37*
G36*
X334000D02*
Y271000D01*
X337832D01*
X336710Y273710D01*
X334000Y274832D01*
D02*
G37*
G36*
X331000D02*
X328290Y273710D01*
X327168Y271000D01*
X331000D01*
Y274832D01*
D02*
G37*
G36*
X469000Y269249D02*
Y266500D01*
X471749D01*
X470944Y268444D01*
X469000Y269249D01*
D02*
G37*
G36*
X466000D02*
X464055Y268444D01*
X463250Y266500D01*
X466000D01*
Y269249D01*
D02*
G37*
G36*
X349000D02*
Y266500D01*
X351749D01*
X350944Y268444D01*
X349000Y269249D01*
D02*
G37*
G36*
X346000D02*
X344055Y268444D01*
X343250Y266500D01*
X346000D01*
Y269249D01*
D02*
G37*
G36*
X289000D02*
Y266500D01*
X291749D01*
X290944Y268444D01*
X289000Y269249D01*
D02*
G37*
G36*
X286000D02*
X284056Y268444D01*
X283250Y266500D01*
X286000D01*
Y269249D01*
D02*
G37*
G36*
X154000D02*
Y266500D01*
X156749D01*
X155944Y268444D01*
X154000Y269249D01*
D02*
G37*
G36*
X151000D02*
X149056Y268444D01*
X148250Y266500D01*
X151000D01*
Y269249D01*
D02*
G37*
G36*
X139000D02*
Y266500D01*
X141749D01*
X140944Y268444D01*
X139000Y269249D01*
D02*
G37*
G36*
X136000D02*
X134056Y268444D01*
X133250Y266500D01*
X136000D01*
Y269249D01*
D02*
G37*
G36*
X124000D02*
Y266500D01*
X126749D01*
X125944Y268444D01*
X124000Y269249D01*
D02*
G37*
G36*
X121000D02*
X119056Y268444D01*
X118250Y266500D01*
X121000D01*
Y269249D01*
D02*
G37*
G36*
X484750Y269082D02*
Y265250D01*
X488582D01*
X487459Y267959D01*
X484750Y269082D01*
D02*
G37*
G36*
X481750D02*
X479040Y267959D01*
X477918Y265250D01*
X481750D01*
Y269082D01*
D02*
G37*
G36*
X106750Y284950D02*
X80750D01*
Y279821D01*
X75700D01*
X72256Y278394D01*
X65730Y271868D01*
X64423Y271327D01*
X62838Y267500D01*
X64423Y263673D01*
X68250Y262088D01*
X72077Y263673D01*
X72618Y264980D01*
X77717Y270079D01*
X80750D01*
Y264950D01*
X106750D01*
Y284950D01*
D02*
G37*
G36*
X542250Y268000D02*
X538418D01*
X539540Y265291D01*
X542250Y264168D01*
Y268000D01*
D02*
G37*
G36*
X337832D02*
X334000D01*
Y264168D01*
X336710Y265291D01*
X337832Y268000D01*
D02*
G37*
G36*
X331000D02*
X327168D01*
X328290Y265291D01*
X331000Y264168D01*
Y268000D01*
D02*
G37*
G36*
X471749Y263500D02*
X469000D01*
Y260750D01*
X470944Y261556D01*
X471749Y263500D01*
D02*
G37*
G36*
X466000D02*
X463250D01*
X464055Y261556D01*
X466000Y260750D01*
Y263500D01*
D02*
G37*
G36*
X351749D02*
X349000D01*
Y260750D01*
X350944Y261556D01*
X351749Y263500D01*
D02*
G37*
G36*
X346000D02*
X343250D01*
X344055Y261556D01*
X346000Y260750D01*
Y263500D01*
D02*
G37*
G36*
X291749D02*
X289000D01*
Y260750D01*
X290944Y261556D01*
X291749Y263500D01*
D02*
G37*
G36*
X286000D02*
X283250D01*
X284056Y261556D01*
X286000Y260750D01*
Y263500D01*
D02*
G37*
G36*
X156749D02*
X154000D01*
Y260750D01*
X155944Y261556D01*
X156749Y263500D01*
D02*
G37*
G36*
X151000D02*
X148250D01*
X149056Y261556D01*
X151000Y260750D01*
Y263500D01*
D02*
G37*
G36*
X141749D02*
X139000D01*
Y260750D01*
X140944Y261556D01*
X141749Y263500D01*
D02*
G37*
G36*
X136000D02*
X133250D01*
X134056Y261556D01*
X136000Y260750D01*
Y263500D01*
D02*
G37*
G36*
X126749D02*
X124000D01*
Y260750D01*
X125944Y261556D01*
X126749Y263500D01*
D02*
G37*
G36*
X121000D02*
X118250D01*
X119056Y261556D01*
X121000Y260750D01*
Y263500D01*
D02*
G37*
G36*
X488582Y262250D02*
X484750D01*
Y258418D01*
X487459Y259541D01*
X488582Y262250D01*
D02*
G37*
G36*
X481750D02*
X477918D01*
X479040Y259541D01*
X481750Y258418D01*
Y262250D01*
D02*
G37*
G36*
X277203Y267750D02*
X267750D01*
Y258297D01*
X274434Y261066D01*
X277203Y267750D01*
D02*
G37*
G36*
X262750D02*
X253297D01*
X256066Y261066D01*
X262750Y258297D01*
Y267750D01*
D02*
G37*
G36*
X397250Y261332D02*
X394540Y260210D01*
X393418Y257500D01*
X397250D01*
Y261332D01*
D02*
G37*
G36*
X176000Y260050D02*
X164250D01*
Y255251D01*
X162250Y253938D01*
X161500Y254249D01*
Y250000D01*
Y245750D01*
X162250Y246061D01*
X164250Y244748D01*
Y239050D01*
X164250Y239050D01*
X163591Y237323D01*
X163250Y236500D01*
X167500D01*
Y235000D01*
X169000D01*
Y230750D01*
X169460Y230941D01*
X171791Y230541D01*
X174500Y229418D01*
Y234750D01*
X176000D01*
Y236250D01*
X181332D01*
X181000Y237050D01*
X182337Y239050D01*
X191250D01*
Y247800D01*
X177750D01*
Y249550D01*
X176000D01*
Y260050D01*
D02*
G37*
G36*
X476500Y254249D02*
Y251500D01*
X479249D01*
X478444Y253444D01*
X476500Y254249D01*
D02*
G37*
G36*
X473500D02*
X471555Y253444D01*
X470750Y251500D01*
X473500D01*
Y254249D01*
D02*
G37*
G36*
X461500D02*
Y251500D01*
X464249D01*
X463444Y253444D01*
X461500Y254249D01*
D02*
G37*
G36*
X458500D02*
X456555Y253444D01*
X455750Y251500D01*
X458500D01*
Y254249D01*
D02*
G37*
G36*
X386500D02*
Y251500D01*
X389249D01*
X388444Y253444D01*
X386500Y254249D01*
D02*
G37*
G36*
X383500D02*
X381555Y253444D01*
X380750Y251500D01*
X383500D01*
Y254249D01*
D02*
G37*
G36*
X371500D02*
Y251500D01*
X374249D01*
X373444Y253444D01*
X371500Y254249D01*
D02*
G37*
G36*
X368500D02*
X366555Y253444D01*
X365750Y251500D01*
X368500D01*
Y254249D01*
D02*
G37*
G36*
X341500D02*
Y251500D01*
X344249D01*
X343444Y253444D01*
X341500Y254249D01*
D02*
G37*
G36*
X338500D02*
X336555Y253444D01*
X335750Y251500D01*
X338500D01*
Y254249D01*
D02*
G37*
G36*
X326500D02*
Y251500D01*
X329249D01*
X328444Y253444D01*
X326500Y254249D01*
D02*
G37*
G36*
X323500D02*
X321555Y253444D01*
X320750Y251500D01*
X323500D01*
Y254249D01*
D02*
G37*
G36*
X296500D02*
Y251500D01*
X299249D01*
X298444Y253444D01*
X296500Y254249D01*
D02*
G37*
G36*
X293500D02*
X291556Y253444D01*
X290750Y251500D01*
X293500D01*
Y254249D01*
D02*
G37*
G36*
X281500D02*
Y251500D01*
X284249D01*
X283444Y253444D01*
X281500Y254249D01*
D02*
G37*
G36*
X278500D02*
X276556Y253444D01*
X275750Y251500D01*
X278500D01*
Y254249D01*
D02*
G37*
G36*
X236500D02*
Y251500D01*
X239249D01*
X238444Y253444D01*
X236500Y254249D01*
D02*
G37*
G36*
X158500D02*
X156556Y253444D01*
X155750Y251500D01*
X158500D01*
Y254249D01*
D02*
G37*
G36*
X146500D02*
Y251500D01*
X149249D01*
X148444Y253444D01*
X146500Y254249D01*
D02*
G37*
G36*
X143500D02*
X141556Y253444D01*
X140750Y251500D01*
X143500D01*
Y254249D01*
D02*
G37*
G36*
X131500D02*
Y251500D01*
X134249D01*
X133444Y253444D01*
X131500Y254249D01*
D02*
G37*
G36*
X128500D02*
X126556Y253444D01*
X125750Y251500D01*
X128500D01*
Y254249D01*
D02*
G37*
G36*
X116500D02*
Y251500D01*
X119249D01*
X118444Y253444D01*
X116500Y254249D01*
D02*
G37*
G36*
X113500D02*
X111556Y253444D01*
X110750Y251500D01*
X113500D01*
Y254249D01*
D02*
G37*
G36*
X191250Y260050D02*
X179500D01*
Y251300D01*
X191250D01*
Y260050D01*
D02*
G37*
G36*
X107250D02*
X95500D01*
Y251300D01*
X107250D01*
Y260050D01*
D02*
G37*
G36*
X92000D02*
X80250D01*
Y251300D01*
X92000D01*
Y260050D01*
D02*
G37*
G36*
X310750Y255082D02*
Y251250D01*
X314582D01*
X313459Y253960D01*
X310750Y255082D01*
D02*
G37*
G36*
X307750D02*
X305040Y253960D01*
X303918Y251250D01*
X307750D01*
Y255082D01*
D02*
G37*
G36*
X479249Y248500D02*
X476500D01*
Y245750D01*
X478444Y246556D01*
X479249Y248500D01*
D02*
G37*
G36*
X473500D02*
X470750D01*
X471555Y246556D01*
X473500Y245750D01*
Y248500D01*
D02*
G37*
G36*
X389249D02*
X386500D01*
Y245750D01*
X388444Y246556D01*
X389249Y248500D01*
D02*
G37*
G36*
X383500D02*
X380750D01*
X381555Y246556D01*
X383500Y245750D01*
Y248500D01*
D02*
G37*
G36*
X374249D02*
X371500D01*
Y245750D01*
X373444Y246556D01*
X374249Y248500D01*
D02*
G37*
G36*
X368500D02*
X365750D01*
X366555Y246556D01*
X368500Y245750D01*
Y248500D01*
D02*
G37*
G36*
X344249D02*
X341500D01*
Y245750D01*
X343444Y246556D01*
X344249Y248500D01*
D02*
G37*
G36*
X338500D02*
X335750D01*
X336555Y246556D01*
X338500Y245750D01*
Y248500D01*
D02*
G37*
G36*
X329249D02*
X326500D01*
Y245750D01*
X328444Y246556D01*
X329249Y248500D01*
D02*
G37*
G36*
X323500D02*
X320750D01*
X321555Y246556D01*
X323500Y245750D01*
Y248500D01*
D02*
G37*
G36*
X299249D02*
X296500D01*
Y245750D01*
X298444Y246556D01*
X299249Y248500D01*
D02*
G37*
G36*
X293500D02*
X290750D01*
X291556Y246556D01*
X293500Y245750D01*
Y248500D01*
D02*
G37*
G36*
X284249D02*
X281500D01*
Y245750D01*
X283444Y246556D01*
X284249Y248500D01*
D02*
G37*
G36*
X278500D02*
X275750D01*
X276556Y246556D01*
X278500Y245750D01*
Y248500D01*
D02*
G37*
G36*
X239249D02*
X236500D01*
Y245750D01*
X238444Y246556D01*
X239249Y248500D01*
D02*
G37*
G36*
X233500D02*
X230750D01*
X231556Y246556D01*
X233500Y245750D01*
Y248500D01*
D02*
G37*
G36*
X158500D02*
X155750D01*
X156556Y246556D01*
X158500Y245750D01*
Y248500D01*
D02*
G37*
G36*
X149249D02*
X146500D01*
Y245750D01*
X148444Y246556D01*
X149249Y248500D01*
D02*
G37*
G36*
X143500D02*
X140750D01*
X141556Y246556D01*
X143500Y245750D01*
Y248500D01*
D02*
G37*
G36*
X134249D02*
X131500D01*
Y245750D01*
X133444Y246556D01*
X134249Y248500D01*
D02*
G37*
G36*
X128500D02*
X125750D01*
X126556Y246556D01*
X128500Y245750D01*
Y248500D01*
D02*
G37*
G36*
X119249D02*
X116500D01*
Y245750D01*
X118444Y246556D01*
X119249Y248500D01*
D02*
G37*
G36*
X113500D02*
X110750D01*
X111556Y246556D01*
X113500Y245750D01*
Y248500D01*
D02*
G37*
G36*
X464249D02*
X455359D01*
X454500Y247641D01*
Y243250D01*
X458332D01*
X458129Y243739D01*
X459660Y245269D01*
X460000Y245129D01*
X463444Y246556D01*
X464249Y248500D01*
D02*
G37*
G36*
X314582Y248250D02*
X310750D01*
Y244418D01*
X313459Y245541D01*
X314582Y248250D01*
D02*
G37*
G36*
X307750D02*
X303918D01*
X305040Y245541D01*
X307750Y244418D01*
Y248250D01*
D02*
G37*
G36*
X451500Y247082D02*
X448791Y245959D01*
X447668Y243250D01*
X451500D01*
Y247082D01*
D02*
G37*
G36*
X541000Y239249D02*
X539055Y238444D01*
X538250Y236500D01*
X541000D01*
Y239249D01*
D02*
G37*
G36*
X514000D02*
Y236500D01*
X516749D01*
X515944Y238444D01*
X514000Y239249D01*
D02*
G37*
G36*
X511000D02*
X509055Y238444D01*
X508250Y236500D01*
X511000D01*
Y239249D01*
D02*
G37*
G36*
X499000D02*
Y236500D01*
X501749D01*
X500944Y238444D01*
X499000Y239249D01*
D02*
G37*
G36*
X496000D02*
X494055Y238444D01*
X493250Y236500D01*
X496000D01*
Y239249D01*
D02*
G37*
G36*
X484000D02*
Y236500D01*
X486749D01*
X485944Y238444D01*
X484000Y239249D01*
D02*
G37*
G36*
X481000D02*
X479055Y238444D01*
X478250Y236500D01*
X481000D01*
Y239249D01*
D02*
G37*
G36*
X469000D02*
Y236500D01*
X471749D01*
X470944Y238444D01*
X469000Y239249D01*
D02*
G37*
G36*
X466000D02*
X464055Y238444D01*
X463250Y236500D01*
X466000D01*
Y239249D01*
D02*
G37*
G36*
X458332Y240250D02*
X447668D01*
X448736Y237672D01*
X448250Y236500D01*
X456749D01*
X456448Y237225D01*
X457210Y237540D01*
X458332Y240250D01*
D02*
G37*
G36*
X259000Y239249D02*
Y236500D01*
X261749D01*
X260944Y238444D01*
X259000Y239249D01*
D02*
G37*
G36*
X256000D02*
X254056Y238444D01*
X253250Y236500D01*
X256000D01*
Y239249D01*
D02*
G37*
G36*
X244000D02*
Y236500D01*
X246749D01*
X245944Y238444D01*
X244000Y239249D01*
D02*
G37*
G36*
X241000D02*
X239056Y238444D01*
X238250Y236500D01*
X241000D01*
Y239249D01*
D02*
G37*
G36*
X154000D02*
Y236500D01*
X156749D01*
X155944Y238444D01*
X154000Y239249D01*
D02*
G37*
G36*
X151000D02*
X149056Y238444D01*
X148250Y236500D01*
X151000D01*
Y239249D01*
D02*
G37*
G36*
X139000D02*
Y236500D01*
X141749D01*
X140944Y238444D01*
X139000Y239249D01*
D02*
G37*
G36*
X136000D02*
X134056Y238444D01*
X133250Y236500D01*
X136000D01*
Y239249D01*
D02*
G37*
G36*
X124000D02*
Y236500D01*
X126749D01*
X125944Y238444D01*
X124000Y239249D01*
D02*
G37*
G36*
X121000D02*
X119056Y238444D01*
X118250Y236500D01*
X121000D01*
Y239249D01*
D02*
G37*
G36*
X76000D02*
X74056Y238444D01*
X73250Y236500D01*
X76000D01*
Y239249D01*
D02*
G37*
G36*
X64000D02*
Y236500D01*
X66749D01*
X65944Y238444D01*
X64000Y239249D01*
D02*
G37*
G36*
X61000D02*
X59056Y238444D01*
X58250Y236500D01*
X61000D01*
Y239249D01*
D02*
G37*
G36*
X43000Y266821D02*
X33050Y262700D01*
X28929Y252750D01*
X33050Y242800D01*
X42136Y239037D01*
X43388Y236831D01*
X43250Y236500D01*
X51749D01*
X50944Y238444D01*
X49301Y239124D01*
Y241289D01*
X52950Y242800D01*
X57071Y252750D01*
X52950Y262700D01*
X43000Y266821D01*
D02*
G37*
G36*
X34000Y239249D02*
Y236500D01*
X36749D01*
X35944Y238444D01*
X34000Y239249D01*
D02*
G37*
G36*
X528250Y239832D02*
Y236000D01*
X532082D01*
X530960Y238710D01*
X528250Y239832D01*
D02*
G37*
G36*
X525250D02*
X522541Y238710D01*
X521418Y236000D01*
X525250D01*
Y239832D01*
D02*
G37*
G36*
X541000Y233500D02*
X538250D01*
X539055Y231556D01*
X541000Y230750D01*
Y233500D01*
D02*
G37*
G36*
X516749D02*
X514000D01*
Y230750D01*
X515944Y231556D01*
X516749Y233500D01*
D02*
G37*
G36*
X511000D02*
X508250D01*
X509055Y231556D01*
X511000Y230750D01*
Y233500D01*
D02*
G37*
G36*
X501749D02*
X499000D01*
Y230750D01*
X500944Y231556D01*
X501749Y233500D01*
D02*
G37*
G36*
X496000D02*
X493250D01*
X494055Y231556D01*
X496000Y230750D01*
Y233500D01*
D02*
G37*
G36*
X486749D02*
X484000D01*
Y230750D01*
X485944Y231556D01*
X486749Y233500D01*
D02*
G37*
G36*
X481000D02*
X478250D01*
X479055Y231556D01*
X481000Y230750D01*
Y233500D01*
D02*
G37*
G36*
X471749D02*
X469000D01*
Y230750D01*
X470944Y231556D01*
X471749Y233500D01*
D02*
G37*
G36*
X466000D02*
X463250D01*
X464055Y231556D01*
X466000Y230750D01*
Y233500D01*
D02*
G37*
G36*
X456749D02*
X454000D01*
Y230750D01*
X455944Y231556D01*
X456749Y233500D01*
D02*
G37*
G36*
X451000D02*
X448250D01*
X449055Y231556D01*
X451000Y230750D01*
Y233500D01*
D02*
G37*
G36*
X261749D02*
X259000D01*
Y230750D01*
X260944Y231556D01*
X261749Y233500D01*
D02*
G37*
G36*
X256000D02*
X253250D01*
X254056Y231556D01*
X256000Y230750D01*
Y233500D01*
D02*
G37*
G36*
X246749D02*
X244000D01*
Y230750D01*
X245944Y231556D01*
X246749Y233500D01*
D02*
G37*
G36*
X241000D02*
X238250D01*
X239056Y231556D01*
X241000Y230750D01*
Y233500D01*
D02*
G37*
G36*
X166000D02*
X163250D01*
X164056Y231556D01*
X166000Y230750D01*
Y233500D01*
D02*
G37*
G36*
X156749D02*
X154000D01*
Y230750D01*
X155944Y231556D01*
X156749Y233500D01*
D02*
G37*
G36*
X151000D02*
X148250D01*
X149056Y231556D01*
X151000Y230750D01*
Y233500D01*
D02*
G37*
G36*
X141749D02*
X139000D01*
Y230750D01*
X140944Y231556D01*
X141749Y233500D01*
D02*
G37*
G36*
X136000D02*
X133250D01*
X134056Y231556D01*
X136000Y230750D01*
Y233500D01*
D02*
G37*
G36*
X126749D02*
X124000D01*
Y230750D01*
X125944Y231556D01*
X126749Y233500D01*
D02*
G37*
G36*
X121000D02*
X118250D01*
X119056Y231556D01*
X121000Y230750D01*
Y233500D01*
D02*
G37*
G36*
X111749D02*
X109000D01*
Y230750D01*
X110944Y231556D01*
X111749Y233500D01*
D02*
G37*
G36*
X107250Y247800D02*
X93750D01*
X80250D01*
Y240896D01*
X79000Y240061D01*
Y236500D01*
X81749D01*
X81521Y237050D01*
X82858Y239050D01*
X87142D01*
X88478Y237050D01*
X88250Y236500D01*
X92500D01*
Y235000D01*
X94000D01*
Y230750D01*
X95944Y231556D01*
X95998Y231687D01*
X97250Y231168D01*
Y236500D01*
X100250D01*
Y231168D01*
X102959Y232290D01*
X104004Y231680D01*
X104056Y231556D01*
X106000Y230750D01*
Y235000D01*
X107500D01*
Y236500D01*
X111749D01*
X110944Y238444D01*
X107500Y239870D01*
X107250Y240037D01*
Y247800D01*
D02*
G37*
G36*
X91000Y233500D02*
X88250D01*
X89056Y231556D01*
X91000Y230750D01*
Y233500D01*
D02*
G37*
G36*
X81749D02*
X79000D01*
Y230750D01*
X80944Y231556D01*
X81749Y233500D01*
D02*
G37*
G36*
X76000D02*
X73250D01*
X74056Y231556D01*
X76000Y230750D01*
Y233500D01*
D02*
G37*
G36*
X66749D02*
X64000D01*
Y230750D01*
X65944Y231556D01*
X66749Y233500D01*
D02*
G37*
G36*
X61000D02*
X58250D01*
X59056Y231556D01*
X61000Y230750D01*
Y233500D01*
D02*
G37*
G36*
X36749D02*
X34000D01*
Y230750D01*
X35944Y231556D01*
X36749Y233500D01*
D02*
G37*
G36*
X181332Y233250D02*
X177500D01*
Y229418D01*
X180210Y230541D01*
X181332Y233250D01*
D02*
G37*
G36*
X201250Y233082D02*
X198540Y231959D01*
X197418Y229250D01*
X201250D01*
Y233082D01*
D02*
G37*
G36*
X532082Y233000D02*
X528250D01*
Y229168D01*
X530960Y230291D01*
X532082Y233000D01*
D02*
G37*
G36*
X525250D02*
X521418D01*
X522541Y230291D01*
X525250Y229168D01*
Y233000D01*
D02*
G37*
G36*
X201250Y226250D02*
X197418D01*
X198540Y223540D01*
X201250Y222418D01*
Y226250D01*
D02*
G37*
G36*
X536500Y224249D02*
Y221500D01*
X539249D01*
X538444Y223444D01*
X536500Y224249D01*
D02*
G37*
G36*
X533500D02*
X531555Y223444D01*
X530750Y221500D01*
X533500D01*
Y224249D01*
D02*
G37*
G36*
X521500D02*
Y221500D01*
X524249D01*
X523444Y223444D01*
X521500Y224249D01*
D02*
G37*
G36*
X518500D02*
X516555Y223444D01*
X515750Y221500D01*
X518500D01*
Y224249D01*
D02*
G37*
G36*
X506500D02*
Y221500D01*
X509249D01*
X508444Y223444D01*
X506500Y224249D01*
D02*
G37*
G36*
X503500D02*
X501555Y223444D01*
X500750Y221500D01*
X503500D01*
Y224249D01*
D02*
G37*
G36*
X491500D02*
Y221500D01*
X494249D01*
X493444Y223444D01*
X491500Y224249D01*
D02*
G37*
G36*
X488500D02*
X486555Y223444D01*
X485750Y221500D01*
X488500D01*
Y224249D01*
D02*
G37*
G36*
X476500D02*
Y221500D01*
X479249D01*
X478444Y223444D01*
X476500Y224249D01*
D02*
G37*
G36*
X473500D02*
X471555Y223444D01*
X470750Y221500D01*
X473500D01*
Y224249D01*
D02*
G37*
G36*
X461500D02*
Y221500D01*
X464249D01*
X463444Y223444D01*
X461500Y224249D01*
D02*
G37*
G36*
X458500D02*
X456555Y223444D01*
X455750Y221500D01*
X458500D01*
Y224249D01*
D02*
G37*
G36*
X251500D02*
Y221500D01*
X254249D01*
X253444Y223444D01*
X251500Y224249D01*
D02*
G37*
G36*
X248500D02*
X246556Y223444D01*
X245750Y221500D01*
X248500D01*
Y224249D01*
D02*
G37*
G36*
X236500D02*
Y221500D01*
X239249D01*
X238444Y223444D01*
X236500Y224249D01*
D02*
G37*
G36*
X233500D02*
X231556Y223444D01*
X230750Y221500D01*
X233500D01*
Y224249D01*
D02*
G37*
G36*
X176500D02*
Y221500D01*
X179249D01*
X178444Y223444D01*
X176500Y224249D01*
D02*
G37*
G36*
X173500D02*
X171556Y223444D01*
X170750Y221500D01*
X173500D01*
Y224249D01*
D02*
G37*
G36*
X161500D02*
Y221500D01*
X164249D01*
X163444Y223444D01*
X161500Y224249D01*
D02*
G37*
G36*
X158500D02*
X156556Y223444D01*
X155750Y221500D01*
X158500D01*
Y224249D01*
D02*
G37*
G36*
X146500D02*
Y221500D01*
X149249D01*
X148444Y223444D01*
X146500Y224249D01*
D02*
G37*
G36*
X143500D02*
X141556Y223444D01*
X140750Y221500D01*
X143500D01*
Y224249D01*
D02*
G37*
G36*
X131500D02*
Y221500D01*
X134249D01*
X133444Y223444D01*
X131500Y224249D01*
D02*
G37*
G36*
X128500D02*
X126556Y223444D01*
X125750Y221500D01*
X128500D01*
Y224249D01*
D02*
G37*
G36*
X116500D02*
Y221500D01*
X119249D01*
X118444Y223444D01*
X116500Y224249D01*
D02*
G37*
G36*
X113500D02*
X111556Y223444D01*
X110750Y221500D01*
X113500D01*
Y224249D01*
D02*
G37*
G36*
X101500D02*
Y221500D01*
X104249D01*
X103444Y223444D01*
X101500Y224249D01*
D02*
G37*
G36*
X98500D02*
X96556Y223444D01*
X95750Y221500D01*
X98500D01*
Y224249D01*
D02*
G37*
G36*
X86500D02*
Y221500D01*
X89249D01*
X88444Y223444D01*
X86500Y224249D01*
D02*
G37*
G36*
X83500D02*
X81556Y223444D01*
X80750Y221500D01*
X83500D01*
Y224249D01*
D02*
G37*
G36*
X71500D02*
Y221500D01*
X74249D01*
X73444Y223444D01*
X71500Y224249D01*
D02*
G37*
G36*
X68500D02*
X66556Y223444D01*
X65750Y221500D01*
X68500D01*
Y224249D01*
D02*
G37*
G36*
X539249Y218500D02*
X536500D01*
Y215750D01*
X538444Y216556D01*
X539249Y218500D01*
D02*
G37*
G36*
X533500D02*
X530750D01*
X531555Y216556D01*
X533500Y215750D01*
Y218500D01*
D02*
G37*
G36*
X524249D02*
X521500D01*
Y215750D01*
X523444Y216556D01*
X524249Y218500D01*
D02*
G37*
G36*
X518500D02*
X515750D01*
X516555Y216556D01*
X518500Y215750D01*
Y218500D01*
D02*
G37*
G36*
X509249D02*
X506500D01*
Y215750D01*
X508444Y216556D01*
X509249Y218500D01*
D02*
G37*
G36*
X503500D02*
X500750D01*
X501555Y216556D01*
X503500Y215750D01*
Y218500D01*
D02*
G37*
G36*
X494249D02*
X491500D01*
Y215750D01*
X493444Y216556D01*
X494249Y218500D01*
D02*
G37*
G36*
X488500D02*
X485750D01*
X486555Y216556D01*
X488500Y215750D01*
Y218500D01*
D02*
G37*
G36*
X479249D02*
X476500D01*
Y215750D01*
X478444Y216556D01*
X479249Y218500D01*
D02*
G37*
G36*
X473500D02*
X470750D01*
X471555Y216556D01*
X473500Y215750D01*
Y218500D01*
D02*
G37*
G36*
X464249D02*
X461500D01*
Y215750D01*
X463444Y216556D01*
X464249Y218500D01*
D02*
G37*
G36*
X458500D02*
X455750D01*
X456555Y216556D01*
X458500Y215750D01*
Y218500D01*
D02*
G37*
G36*
X368500D02*
X365750D01*
X366555Y216556D01*
X368500Y215750D01*
Y218500D01*
D02*
G37*
G36*
X254249D02*
X251500D01*
Y215750D01*
X253444Y216556D01*
X254249Y218500D01*
D02*
G37*
G36*
X248500D02*
X245750D01*
X246556Y216556D01*
X248500Y215750D01*
Y218500D01*
D02*
G37*
G36*
X239249D02*
X236500D01*
Y215750D01*
X238444Y216556D01*
X239249Y218500D01*
D02*
G37*
G36*
X233500D02*
X230750D01*
X231556Y216556D01*
X233500Y215750D01*
Y218500D01*
D02*
G37*
G36*
X158500D02*
X155750D01*
X156556Y216556D01*
X158500Y215750D01*
Y218500D01*
D02*
G37*
G36*
X149249D02*
X146500D01*
Y215750D01*
X148444Y216556D01*
X149249Y218500D01*
D02*
G37*
G36*
X143500D02*
X140750D01*
X141556Y216556D01*
X143500Y215750D01*
Y218500D01*
D02*
G37*
G36*
X134249D02*
X131500D01*
Y215750D01*
X133444Y216556D01*
X134249Y218500D01*
D02*
G37*
G36*
X128500D02*
X125750D01*
X126556Y216556D01*
X128500Y215750D01*
Y218500D01*
D02*
G37*
G36*
X119249D02*
X116500D01*
Y215750D01*
X118444Y216556D01*
X119249Y218500D01*
D02*
G37*
G36*
X113500D02*
X110750D01*
X111556Y216556D01*
X113500Y215750D01*
Y218500D01*
D02*
G37*
G36*
X74249D02*
X71500D01*
Y215750D01*
X73444Y216556D01*
X74249Y218500D01*
D02*
G37*
G36*
X68500D02*
X65750D01*
X66556Y216556D01*
X68500Y215750D01*
Y218500D01*
D02*
G37*
G36*
X104249D02*
X95750D01*
X96289Y217200D01*
X95298Y215200D01*
X89701D01*
X88711Y217200D01*
X89249Y218500D01*
X80750D01*
X81289Y217200D01*
X80298Y215200D01*
X80250D01*
Y210071D01*
X76450D01*
X73006Y208644D01*
X65730Y201368D01*
X64423Y200827D01*
X62838Y197000D01*
X64423Y193173D01*
X68250Y191588D01*
X72077Y193173D01*
X72618Y194480D01*
X78250Y200112D01*
X80250Y199804D01*
Y195200D01*
X106250D01*
Y215200D01*
X104701D01*
X103711Y217200D01*
X104249Y218500D01*
D02*
G37*
G36*
X541000Y209249D02*
X539055Y208444D01*
X538250Y206500D01*
X541000D01*
Y209249D01*
D02*
G37*
G36*
X529000D02*
Y206500D01*
X531749D01*
X530944Y208444D01*
X529000Y209249D01*
D02*
G37*
G36*
X526000D02*
X524055Y208444D01*
X523250Y206500D01*
X526000D01*
Y209249D01*
D02*
G37*
G36*
X514000D02*
Y206500D01*
X516749D01*
X515944Y208444D01*
X514000Y209249D01*
D02*
G37*
G36*
X511000D02*
X509055Y208444D01*
X508250Y206500D01*
X511000D01*
Y209249D01*
D02*
G37*
G36*
X499000D02*
Y206500D01*
X501749D01*
X500944Y208444D01*
X499000Y209249D01*
D02*
G37*
G36*
X496000D02*
X494055Y208444D01*
X493250Y206500D01*
X496000D01*
Y209249D01*
D02*
G37*
G36*
X484000D02*
Y206500D01*
X486749D01*
X485944Y208444D01*
X484000Y209249D01*
D02*
G37*
G36*
X481000D02*
X479055Y208444D01*
X478250Y206500D01*
X481000D01*
Y209249D01*
D02*
G37*
G36*
X469000D02*
Y206500D01*
X471749D01*
X470944Y208444D01*
X469000Y209249D01*
D02*
G37*
G36*
X466000D02*
X464055Y208444D01*
X463250Y206500D01*
X466000D01*
Y209249D01*
D02*
G37*
G36*
X454000D02*
Y206500D01*
X456749D01*
X455944Y208444D01*
X454000Y209249D01*
D02*
G37*
G36*
X451000D02*
X449055Y208444D01*
X448250Y206500D01*
X451000D01*
Y209249D01*
D02*
G37*
G36*
X379000D02*
Y206500D01*
X381749D01*
X380944Y208444D01*
X379000Y209249D01*
D02*
G37*
G36*
X376000D02*
X374055Y208444D01*
X373250Y206500D01*
X376000D01*
Y209249D01*
D02*
G37*
G36*
X364000D02*
Y206500D01*
X366749D01*
X365944Y208444D01*
X364000Y209249D01*
D02*
G37*
G36*
X361000D02*
X359055Y208444D01*
X358250Y206500D01*
X361000D01*
Y209249D01*
D02*
G37*
G36*
X244000D02*
Y206500D01*
X246749D01*
X245944Y208444D01*
X244000Y209249D01*
D02*
G37*
G36*
X241000D02*
X239056Y208444D01*
X238250Y206500D01*
X241000D01*
Y209249D01*
D02*
G37*
G36*
X154000D02*
Y206500D01*
X156749D01*
X155944Y208444D01*
X154000Y209249D01*
D02*
G37*
G36*
X151000D02*
X149056Y208444D01*
X148250Y206500D01*
X151000D01*
Y209249D01*
D02*
G37*
G36*
X139000D02*
Y206500D01*
X141749D01*
X140944Y208444D01*
X139000Y209249D01*
D02*
G37*
G36*
X136000D02*
X134056Y208444D01*
X133250Y206500D01*
X136000D01*
Y209249D01*
D02*
G37*
G36*
X124000D02*
Y206500D01*
X126749D01*
X125944Y208444D01*
X124000Y209249D01*
D02*
G37*
G36*
X121000D02*
X119056Y208444D01*
X118250Y206500D01*
X121000D01*
Y209249D01*
D02*
G37*
G36*
X541000Y203500D02*
X538250D01*
X539055Y201556D01*
X541000Y200750D01*
Y203500D01*
D02*
G37*
G36*
X531749D02*
X529000D01*
Y200750D01*
X530944Y201556D01*
X531749Y203500D01*
D02*
G37*
G36*
X526000D02*
X523250D01*
X524055Y201556D01*
X526000Y200750D01*
Y203500D01*
D02*
G37*
G36*
X516749D02*
X514000D01*
Y200750D01*
X515944Y201556D01*
X516749Y203500D01*
D02*
G37*
G36*
X511000D02*
X508250D01*
X509055Y201556D01*
X511000Y200750D01*
Y203500D01*
D02*
G37*
G36*
X501749D02*
X499000D01*
Y200750D01*
X500944Y201556D01*
X501749Y203500D01*
D02*
G37*
G36*
X496000D02*
X493250D01*
X494055Y201556D01*
X496000Y200750D01*
Y203500D01*
D02*
G37*
G36*
X486749D02*
X484000D01*
Y200750D01*
X485944Y201556D01*
X486749Y203500D01*
D02*
G37*
G36*
X481000D02*
X478250D01*
X479055Y201556D01*
X481000Y200750D01*
Y203500D01*
D02*
G37*
G36*
X471749D02*
X469000D01*
Y200750D01*
X470944Y201556D01*
X471749Y203500D01*
D02*
G37*
G36*
X466000D02*
X463250D01*
X464055Y201556D01*
X466000Y200750D01*
Y203500D01*
D02*
G37*
G36*
X456749D02*
X454000D01*
Y200750D01*
X455944Y201556D01*
X456749Y203500D01*
D02*
G37*
G36*
X451000D02*
X448250D01*
X449055Y201556D01*
X451000Y200750D01*
Y203500D01*
D02*
G37*
G36*
X381749D02*
X379000D01*
Y200750D01*
X380944Y201556D01*
X381749Y203500D01*
D02*
G37*
G36*
X376000D02*
X373250D01*
X374055Y201556D01*
X376000Y200750D01*
Y203500D01*
D02*
G37*
G36*
X366749D02*
X364000D01*
Y200750D01*
X365944Y201556D01*
X366749Y203500D01*
D02*
G37*
G36*
X361000D02*
X358250D01*
X359055Y201556D01*
X361000Y200750D01*
Y203500D01*
D02*
G37*
G36*
X246749D02*
X244000D01*
Y200750D01*
X245944Y201556D01*
X246749Y203500D01*
D02*
G37*
G36*
X241000D02*
X238250D01*
X239056Y201556D01*
X241000Y200750D01*
Y203500D01*
D02*
G37*
G36*
X156749D02*
X154000D01*
Y200750D01*
X155944Y201556D01*
X156749Y203500D01*
D02*
G37*
G36*
X151000D02*
X148250D01*
X149056Y201556D01*
X151000Y200750D01*
Y203500D01*
D02*
G37*
G36*
X141749D02*
X139000D01*
Y200750D01*
X140944Y201556D01*
X141749Y203500D01*
D02*
G37*
G36*
X136000D02*
X133250D01*
X134056Y201556D01*
X136000Y200750D01*
Y203500D01*
D02*
G37*
G36*
X126749D02*
X124000D01*
Y200750D01*
X125944Y201556D01*
X126749Y203500D01*
D02*
G37*
G36*
X121000D02*
X118250D01*
X119056Y201556D01*
X121000Y200750D01*
Y203500D01*
D02*
G37*
G36*
X368500Y194249D02*
X366555Y193444D01*
X366355Y192959D01*
X364459D01*
X361750Y194082D01*
Y188750D01*
Y183418D01*
X364459Y184541D01*
X364898Y185600D01*
X367327Y186236D01*
X368500Y185750D01*
Y190000D01*
Y194249D01*
D02*
G37*
G36*
X536500D02*
Y191500D01*
X539249D01*
X538444Y193444D01*
X536500Y194249D01*
D02*
G37*
G36*
X533500D02*
X531555Y193444D01*
X530750Y191500D01*
X533500D01*
Y194249D01*
D02*
G37*
G36*
X521500D02*
Y191500D01*
X524249D01*
X523444Y193444D01*
X521500Y194249D01*
D02*
G37*
G36*
X518500D02*
X516555Y193444D01*
X515750Y191500D01*
X518500D01*
Y194249D01*
D02*
G37*
G36*
X506500D02*
Y191500D01*
X509249D01*
X508444Y193444D01*
X506500Y194249D01*
D02*
G37*
G36*
X503500D02*
X501555Y193444D01*
X500750Y191500D01*
X503500D01*
Y194249D01*
D02*
G37*
G36*
X491500D02*
Y191500D01*
X494249D01*
X493444Y193444D01*
X491500Y194249D01*
D02*
G37*
G36*
X488500D02*
X486555Y193444D01*
X485750Y191500D01*
X488500D01*
Y194249D01*
D02*
G37*
G36*
X476500D02*
Y191500D01*
X479249D01*
X478444Y193444D01*
X476500Y194249D01*
D02*
G37*
G36*
X473500D02*
X471555Y193444D01*
X470750Y191500D01*
X473500D01*
Y194249D01*
D02*
G37*
G36*
X461500D02*
Y191500D01*
X464249D01*
X463444Y193444D01*
X461500Y194249D01*
D02*
G37*
G36*
X458500D02*
X456555Y193444D01*
X455750Y191500D01*
X458500D01*
Y194249D01*
D02*
G37*
G36*
X446500D02*
Y191500D01*
X449249D01*
X448444Y193444D01*
X446500Y194249D01*
D02*
G37*
G36*
X443500D02*
X441555Y193444D01*
X440750Y191500D01*
X443500D01*
Y194249D01*
D02*
G37*
G36*
X251500D02*
Y191500D01*
X254249D01*
X253444Y193444D01*
X251500Y194249D01*
D02*
G37*
G36*
X248500D02*
X246556Y193444D01*
X245750Y191500D01*
X248500D01*
Y194249D01*
D02*
G37*
G36*
X236500D02*
Y191500D01*
X239249D01*
X238444Y193444D01*
X236500Y194249D01*
D02*
G37*
G36*
X158500D02*
X156556Y193444D01*
X155750Y191500D01*
X158500D01*
Y194249D01*
D02*
G37*
G36*
X146500D02*
Y191500D01*
X149249D01*
X148444Y193444D01*
X146500Y194249D01*
D02*
G37*
G36*
X143500D02*
X141556Y193444D01*
X140750Y191500D01*
X143500D01*
Y194249D01*
D02*
G37*
G36*
X131500D02*
Y191500D01*
X134249D01*
X133444Y193444D01*
X131500Y194249D01*
D02*
G37*
G36*
X128500D02*
X126556Y193444D01*
X125750Y191500D01*
X128500D01*
Y194249D01*
D02*
G37*
G36*
X116500D02*
Y191500D01*
X119249D01*
X118444Y193444D01*
X116500Y194249D01*
D02*
G37*
G36*
X113500D02*
X111556Y193444D01*
X110750Y191500D01*
X113500D01*
Y194249D01*
D02*
G37*
G36*
X539249Y188500D02*
X536500D01*
Y185750D01*
X538444Y186556D01*
X539249Y188500D01*
D02*
G37*
G36*
X533500D02*
X530750D01*
X531555Y186556D01*
X533500Y185750D01*
Y188500D01*
D02*
G37*
G36*
X524249D02*
X521500D01*
Y185750D01*
X523444Y186556D01*
X524249Y188500D01*
D02*
G37*
G36*
X518500D02*
X515750D01*
X516555Y186556D01*
X518500Y185750D01*
Y188500D01*
D02*
G37*
G36*
X509249D02*
X506500D01*
Y185750D01*
X508444Y186556D01*
X509249Y188500D01*
D02*
G37*
G36*
X503500D02*
X500750D01*
X501555Y186556D01*
X503500Y185750D01*
Y188500D01*
D02*
G37*
G36*
X494249D02*
X491500D01*
Y185750D01*
X493444Y186556D01*
X494249Y188500D01*
D02*
G37*
G36*
X488500D02*
X485750D01*
X486555Y186556D01*
X488500Y185750D01*
Y188500D01*
D02*
G37*
G36*
X479249D02*
X476500D01*
Y185750D01*
X478444Y186556D01*
X479249Y188500D01*
D02*
G37*
G36*
X473500D02*
X470750D01*
X471555Y186556D01*
X473500Y185750D01*
Y188500D01*
D02*
G37*
G36*
X464249D02*
X461500D01*
Y185750D01*
X463444Y186556D01*
X464249Y188500D01*
D02*
G37*
G36*
X458500D02*
X455750D01*
X456555Y186556D01*
X458500Y185750D01*
Y188500D01*
D02*
G37*
G36*
X449249D02*
X446500D01*
Y185750D01*
X448444Y186556D01*
X449249Y188500D01*
D02*
G37*
G36*
X443500D02*
X440750D01*
X441555Y186556D01*
X443500Y185750D01*
Y188500D01*
D02*
G37*
G36*
X254249D02*
X251500D01*
Y185750D01*
X253444Y186556D01*
X254249Y188500D01*
D02*
G37*
G36*
X248500D02*
X245750D01*
X246556Y186556D01*
X248500Y185750D01*
Y188500D01*
D02*
G37*
G36*
X158500D02*
X155750D01*
X156556Y186556D01*
X158500Y185750D01*
Y188500D01*
D02*
G37*
G36*
X149249D02*
X146500D01*
Y185750D01*
X148444Y186556D01*
X149249Y188500D01*
D02*
G37*
G36*
X143500D02*
X140750D01*
X141556Y186556D01*
X143500Y185750D01*
Y188500D01*
D02*
G37*
G36*
X134249D02*
X131500D01*
Y185750D01*
X133444Y186556D01*
X134249Y188500D01*
D02*
G37*
G36*
X128500D02*
X125750D01*
X126556Y186556D01*
X128500Y185750D01*
Y188500D01*
D02*
G37*
G36*
X119249D02*
X116500D01*
Y185750D01*
X118444Y186556D01*
X119249Y188500D01*
D02*
G37*
G36*
X113500D02*
X110750D01*
X111556Y186556D01*
X113500Y185750D01*
Y188500D01*
D02*
G37*
G36*
X106750Y190300D02*
X95000D01*
Y181550D01*
X106750D01*
Y190300D01*
D02*
G37*
G36*
X91500D02*
X79750D01*
Y181550D01*
X91500D01*
Y190300D01*
D02*
G37*
G36*
X190750D02*
X179000D01*
Y181550D01*
X190750D01*
Y190300D01*
D02*
G37*
G36*
X161500Y194249D02*
Y190000D01*
Y185750D01*
X161750Y185854D01*
X163750Y184517D01*
Y181550D01*
X175500D01*
Y190300D01*
X164746D01*
X163444Y193444D01*
X161500Y194249D01*
D02*
G37*
G36*
X541000Y179249D02*
X539055Y178444D01*
X538250Y176500D01*
X541000D01*
Y179249D01*
D02*
G37*
G36*
X529000D02*
Y176500D01*
X531749D01*
X530944Y178444D01*
X529000Y179249D01*
D02*
G37*
G36*
X526000D02*
X524055Y178444D01*
X523250Y176500D01*
X526000D01*
Y179249D01*
D02*
G37*
G36*
X514000D02*
Y176500D01*
X516749D01*
X515944Y178444D01*
X514000Y179249D01*
D02*
G37*
G36*
X511000D02*
X509055Y178444D01*
X508250Y176500D01*
X511000D01*
Y179249D01*
D02*
G37*
G36*
X499000D02*
Y176500D01*
X501749D01*
X500944Y178444D01*
X499000Y179249D01*
D02*
G37*
G36*
X496000D02*
X494055Y178444D01*
X493250Y176500D01*
X496000D01*
Y179249D01*
D02*
G37*
G36*
X484000D02*
Y176500D01*
X486749D01*
X485944Y178444D01*
X484000Y179249D01*
D02*
G37*
G36*
X481000D02*
X479055Y178444D01*
X478250Y176500D01*
X481000D01*
Y179249D01*
D02*
G37*
G36*
X469000D02*
Y176500D01*
X471749D01*
X470944Y178444D01*
X469000Y179249D01*
D02*
G37*
G36*
X466000D02*
X464055Y178444D01*
X463250Y176500D01*
X466000D01*
Y179249D01*
D02*
G37*
G36*
X454000D02*
Y176500D01*
X456749D01*
X455944Y178444D01*
X454000Y179249D01*
D02*
G37*
G36*
X451000D02*
X449055Y178444D01*
X448250Y176500D01*
X451000D01*
Y179249D01*
D02*
G37*
G36*
X439000D02*
Y176500D01*
X441749D01*
X440944Y178444D01*
X439000Y179249D01*
D02*
G37*
G36*
X154000D02*
Y176500D01*
X156749D01*
X155944Y178444D01*
X154000Y179249D01*
D02*
G37*
G36*
X151000D02*
X149056Y178444D01*
X148250Y176500D01*
X151000D01*
Y179249D01*
D02*
G37*
G36*
X139000D02*
Y176500D01*
X141749D01*
X140944Y178444D01*
X139000Y179249D01*
D02*
G37*
G36*
X136000D02*
X134056Y178444D01*
X133250Y176500D01*
X136000D01*
Y179249D01*
D02*
G37*
G36*
X124000D02*
Y176500D01*
X126749D01*
X125944Y178444D01*
X124000Y179249D01*
D02*
G37*
G36*
X121000D02*
X119056Y178444D01*
X118250Y176500D01*
X121000D01*
Y179249D01*
D02*
G37*
G36*
X541000Y173500D02*
X538250D01*
X539055Y171556D01*
X541000Y170750D01*
Y173500D01*
D02*
G37*
G36*
X531749D02*
X529000D01*
Y170750D01*
X530944Y171556D01*
X531749Y173500D01*
D02*
G37*
G36*
X526000D02*
X523250D01*
X524055Y171556D01*
X526000Y170750D01*
Y173500D01*
D02*
G37*
G36*
X516749D02*
X514000D01*
Y170750D01*
X515944Y171556D01*
X516749Y173500D01*
D02*
G37*
G36*
X511000D02*
X508250D01*
X509055Y171556D01*
X511000Y170750D01*
Y173500D01*
D02*
G37*
G36*
X501749D02*
X499000D01*
Y170750D01*
X500944Y171556D01*
X501749Y173500D01*
D02*
G37*
G36*
X496000D02*
X493250D01*
X494055Y171556D01*
X496000Y170750D01*
Y173500D01*
D02*
G37*
G36*
X486749D02*
X484000D01*
Y170750D01*
X485944Y171556D01*
X486749Y173500D01*
D02*
G37*
G36*
X481000D02*
X478250D01*
X479055Y171556D01*
X481000Y170750D01*
Y173500D01*
D02*
G37*
G36*
X471749D02*
X469000D01*
Y170750D01*
X470944Y171556D01*
X471749Y173500D01*
D02*
G37*
G36*
X466000D02*
X463250D01*
X464055Y171556D01*
X466000Y170750D01*
Y173500D01*
D02*
G37*
G36*
X456749D02*
X454000D01*
Y170750D01*
X455944Y171556D01*
X456749Y173500D01*
D02*
G37*
G36*
X451000D02*
X448250D01*
X449055Y171556D01*
X451000Y170750D01*
Y173500D01*
D02*
G37*
G36*
X441749D02*
X439000D01*
Y170750D01*
X440944Y171556D01*
X441749Y173500D01*
D02*
G37*
G36*
X156749D02*
X154000D01*
Y170750D01*
X155944Y171556D01*
X156749Y173500D01*
D02*
G37*
G36*
X151000D02*
X148250D01*
X149056Y171556D01*
X151000Y170750D01*
Y173500D01*
D02*
G37*
G36*
X141749D02*
X139000D01*
Y170750D01*
X140944Y171556D01*
X141749Y173500D01*
D02*
G37*
G36*
X136000D02*
X133250D01*
X134056Y171556D01*
X136000Y170750D01*
Y173500D01*
D02*
G37*
G36*
X126749D02*
X124000D01*
Y170750D01*
X125944Y171556D01*
X126749Y173500D01*
D02*
G37*
G36*
X121000D02*
X118250D01*
X119056Y171556D01*
X121000Y170750D01*
Y173500D01*
D02*
G37*
G36*
X43000Y197071D02*
X33050Y192950D01*
X28929Y183000D01*
X33050Y173050D01*
X43000Y168929D01*
X52950Y173050D01*
X57071Y183000D01*
X52950Y192950D01*
X43000Y197071D01*
D02*
G37*
G36*
X190750Y178050D02*
X177250D01*
X163750D01*
Y169300D01*
X166620D01*
X167957Y167300D01*
X167418Y166000D01*
X178082D01*
X177543Y167300D01*
X178880Y169300D01*
X190750D01*
Y178050D01*
D02*
G37*
G36*
X106750Y178050D02*
X93250D01*
X79750D01*
Y169300D01*
X85370D01*
X86707Y167300D01*
X85598Y164623D01*
X85000Y164870D01*
X81556Y163444D01*
X80750Y161500D01*
X85000D01*
Y160000D01*
X86500D01*
Y155750D01*
X88444Y156556D01*
X89595Y159336D01*
X90000Y159168D01*
Y164500D01*
X93000D01*
Y159168D01*
X95093Y160035D01*
X95129Y160000D01*
X96556Y156556D01*
X98500Y155750D01*
Y160000D01*
Y164981D01*
X97153Y165652D01*
X96523Y167644D01*
X97630Y169300D01*
X106750D01*
Y178050D01*
D02*
G37*
G36*
X361250Y167500D02*
X356250D01*
Y162500D01*
X361250D01*
Y167500D01*
D02*
G37*
G36*
X536500Y164249D02*
Y161500D01*
X539249D01*
X538444Y163444D01*
X536500Y164249D01*
D02*
G37*
G36*
X533500D02*
X531555Y163444D01*
X530750Y161500D01*
X533500D01*
Y164249D01*
D02*
G37*
G36*
X521500D02*
Y161500D01*
X524249D01*
X523444Y163444D01*
X521500Y164249D01*
D02*
G37*
G36*
X518500D02*
X516555Y163444D01*
X515750Y161500D01*
X518500D01*
Y164249D01*
D02*
G37*
G36*
X506500D02*
Y161500D01*
X509249D01*
X508444Y163444D01*
X506500Y164249D01*
D02*
G37*
G36*
X503500D02*
X501555Y163444D01*
X500750Y161500D01*
X503500D01*
Y164249D01*
D02*
G37*
G36*
X491500D02*
Y161500D01*
X494249D01*
X493444Y163444D01*
X491500Y164249D01*
D02*
G37*
G36*
X488500D02*
X486555Y163444D01*
X485750Y161500D01*
X488500D01*
Y164249D01*
D02*
G37*
G36*
X476500D02*
Y161500D01*
X479249D01*
X478444Y163444D01*
X476500Y164249D01*
D02*
G37*
G36*
X473500D02*
X471555Y163444D01*
X470750Y161500D01*
X473500D01*
Y164249D01*
D02*
G37*
G36*
X461500D02*
Y161500D01*
X464249D01*
X463444Y163444D01*
X461500Y164249D01*
D02*
G37*
G36*
X458500D02*
X456555Y163444D01*
X455750Y161500D01*
X458500D01*
Y164249D01*
D02*
G37*
G36*
X446500D02*
Y161500D01*
X449249D01*
X448444Y163444D01*
X446500Y164249D01*
D02*
G37*
G36*
X443500D02*
X441555Y163444D01*
X440750Y161500D01*
X443500D01*
Y164249D01*
D02*
G37*
G36*
X161500D02*
Y161500D01*
X164249D01*
X163444Y163444D01*
X161500Y164249D01*
D02*
G37*
G36*
X158500D02*
X156556Y163444D01*
X155750Y161500D01*
X158500D01*
Y164249D01*
D02*
G37*
G36*
X146500D02*
Y161500D01*
X149249D01*
X148444Y163444D01*
X146500Y164249D01*
D02*
G37*
G36*
X143500D02*
X141556Y163444D01*
X140750Y161500D01*
X143500D01*
Y164249D01*
D02*
G37*
G36*
X131500D02*
Y161500D01*
X134249D01*
X133444Y163444D01*
X131500Y164249D01*
D02*
G37*
G36*
X128500D02*
X126556Y163444D01*
X125750Y161500D01*
X128500D01*
Y164249D01*
D02*
G37*
G36*
X116500D02*
Y161500D01*
X119249D01*
X118444Y163444D01*
X116500Y164249D01*
D02*
G37*
G36*
X113500D02*
X111556Y163444D01*
X110750Y161500D01*
X113500D01*
Y164249D01*
D02*
G37*
G36*
X101500D02*
Y161500D01*
X104249D01*
X103444Y163444D01*
X101500Y164249D01*
D02*
G37*
G36*
X71500D02*
Y161500D01*
X74249D01*
X73444Y163444D01*
X71500Y164249D01*
D02*
G37*
G36*
X68500D02*
X66556Y163444D01*
X65750Y161500D01*
X68500D01*
Y164249D01*
D02*
G37*
G36*
X200500Y163582D02*
X197791Y162460D01*
X196668Y159750D01*
X200500D01*
Y163582D01*
D02*
G37*
G36*
X178082Y163000D02*
X174250D01*
Y159168D01*
X176959Y160291D01*
X178082Y163000D01*
D02*
G37*
G36*
X171250D02*
X167418D01*
X168540Y160291D01*
X171250Y159168D01*
Y163000D01*
D02*
G37*
G36*
X539249Y158500D02*
X536500D01*
Y155750D01*
X538444Y156556D01*
X539249Y158500D01*
D02*
G37*
G36*
X533500D02*
X530750D01*
X531555Y156556D01*
X533500Y155750D01*
Y158500D01*
D02*
G37*
G36*
X524249D02*
X521500D01*
Y155750D01*
X523444Y156556D01*
X524249Y158500D01*
D02*
G37*
G36*
X518500D02*
X515750D01*
X516555Y156556D01*
X518500Y155750D01*
Y158500D01*
D02*
G37*
G36*
X509249D02*
X506500D01*
Y155750D01*
X508444Y156556D01*
X509249Y158500D01*
D02*
G37*
G36*
X503500D02*
X500750D01*
X501555Y156556D01*
X503500Y155750D01*
Y158500D01*
D02*
G37*
G36*
X494249D02*
X491500D01*
Y155750D01*
X493444Y156556D01*
X494249Y158500D01*
D02*
G37*
G36*
X488500D02*
X485750D01*
X486555Y156556D01*
X488500Y155750D01*
Y158500D01*
D02*
G37*
G36*
X479249D02*
X476500D01*
Y155750D01*
X478444Y156556D01*
X479249Y158500D01*
D02*
G37*
G36*
X473500D02*
X470750D01*
X471555Y156556D01*
X473500Y155750D01*
Y158500D01*
D02*
G37*
G36*
X464249D02*
X461500D01*
Y155750D01*
X463444Y156556D01*
X464249Y158500D01*
D02*
G37*
G36*
X449249D02*
X446500D01*
Y155750D01*
X448444Y156556D01*
X449249Y158500D01*
D02*
G37*
G36*
X443500D02*
X440750D01*
X441555Y156556D01*
X443500Y155750D01*
Y158500D01*
D02*
G37*
G36*
X164249D02*
X161500D01*
Y155750D01*
X163444Y156556D01*
X164249Y158500D01*
D02*
G37*
G36*
X158500D02*
X155750D01*
X156556Y156556D01*
X158500Y155750D01*
Y158500D01*
D02*
G37*
G36*
X149249D02*
X146500D01*
Y155750D01*
X148444Y156556D01*
X149249Y158500D01*
D02*
G37*
G36*
X143500D02*
X140750D01*
X141556Y156556D01*
X143500Y155750D01*
Y158500D01*
D02*
G37*
G36*
X134249D02*
X131500D01*
Y155750D01*
X133444Y156556D01*
X134249Y158500D01*
D02*
G37*
G36*
X128500D02*
X125750D01*
X126556Y156556D01*
X128500Y155750D01*
Y158500D01*
D02*
G37*
G36*
X119249D02*
X116500D01*
Y155750D01*
X118444Y156556D01*
X119249Y158500D01*
D02*
G37*
G36*
X113500D02*
X110750D01*
X111556Y156556D01*
X113500Y155750D01*
Y158500D01*
D02*
G37*
G36*
X104249D02*
X101500D01*
Y155750D01*
X103444Y156556D01*
X104249Y158500D01*
D02*
G37*
G36*
X83500D02*
X80750D01*
X81556Y156556D01*
X83500Y155750D01*
Y158500D01*
D02*
G37*
G36*
X74249D02*
X71500D01*
Y155750D01*
X73444Y156556D01*
X74249Y158500D01*
D02*
G37*
G36*
X68500D02*
X65750D01*
X66556Y156556D01*
X68500Y155750D01*
Y158500D01*
D02*
G37*
G36*
X458500D02*
X455750D01*
X456067Y157735D01*
X456552Y156564D01*
X455780Y154727D01*
X454607Y155205D01*
X455778Y154720D01*
Y154720D01*
X453000Y155871D01*
X449556Y154444D01*
X448129Y151000D01*
X448879Y149189D01*
Y145929D01*
X447500Y144500D01*
X442500D01*
Y137750D01*
X440750D01*
Y136000D01*
X434000D01*
Y135378D01*
X432000Y134042D01*
X431500Y134249D01*
Y130000D01*
Y125750D01*
X432500Y126165D01*
X434500Y124999D01*
Y117500D01*
X440112D01*
X441306Y116306D01*
X444750Y114879D01*
X445943D01*
X447250Y114338D01*
X448557Y114879D01*
X450000D01*
X453444Y116306D01*
X454388Y117250D01*
X460000D01*
Y129750D01*
X460000D01*
Y131250D01*
X460000D01*
Y143750D01*
X458621D01*
Y150250D01*
X457245Y153573D01*
X457194Y153694D01*
X456972Y153920D01*
X456449Y154455D01*
X457222Y156279D01*
X458500Y155750D01*
Y158500D01*
D02*
G37*
G36*
X361250Y159000D02*
X356250D01*
Y154000D01*
X361250D01*
Y159000D01*
D02*
G37*
G36*
X200500Y156750D02*
X196668D01*
X197791Y154040D01*
X200500Y152918D01*
Y156750D01*
D02*
G37*
G36*
X541000Y149249D02*
X539055Y148444D01*
X538250Y146500D01*
X541000D01*
Y149249D01*
D02*
G37*
G36*
X529000D02*
Y146500D01*
X531749D01*
X530944Y148444D01*
X529000Y149249D01*
D02*
G37*
G36*
X526000D02*
X524055Y148444D01*
X523250Y146500D01*
X526000D01*
Y149249D01*
D02*
G37*
G36*
X514000D02*
Y146500D01*
X516749D01*
X515944Y148444D01*
X514000Y149249D01*
D02*
G37*
G36*
X511000D02*
X509055Y148444D01*
X508250Y146500D01*
X511000D01*
Y149249D01*
D02*
G37*
G36*
X484000D02*
Y146500D01*
X486749D01*
X485944Y148444D01*
X484000Y149249D01*
D02*
G37*
G36*
X481000D02*
X479055Y148444D01*
X478250Y146500D01*
X481000D01*
Y149249D01*
D02*
G37*
G36*
X469000D02*
Y146500D01*
X471749D01*
X470944Y148444D01*
X469000Y149249D01*
D02*
G37*
G36*
X466000D02*
X464055Y148444D01*
X463250Y146500D01*
X466000D01*
Y149249D01*
D02*
G37*
G36*
X286000D02*
X284056Y148444D01*
X283250Y146500D01*
X286000D01*
Y149249D01*
D02*
G37*
G36*
X274000D02*
Y146500D01*
X276749D01*
X275944Y148444D01*
X274000Y149249D01*
D02*
G37*
G36*
X271000D02*
X269056Y148444D01*
X268250Y146500D01*
X271000D01*
Y149249D01*
D02*
G37*
G36*
X199000D02*
Y146500D01*
X201749D01*
X200944Y148444D01*
X199000Y149249D01*
D02*
G37*
G36*
X196000D02*
X194056Y148444D01*
X193250Y146500D01*
X196000D01*
Y149249D01*
D02*
G37*
G36*
X154000D02*
Y146500D01*
X156749D01*
X155944Y148444D01*
X154000Y149249D01*
D02*
G37*
G36*
X151000D02*
X149056Y148444D01*
X148250Y146500D01*
X151000D01*
Y149249D01*
D02*
G37*
G36*
X139000D02*
Y146500D01*
X141749D01*
X140944Y148444D01*
X139000Y149249D01*
D02*
G37*
G36*
X136000D02*
X134056Y148444D01*
X133250Y146500D01*
X136000D01*
Y149249D01*
D02*
G37*
G36*
X124000D02*
Y146500D01*
X126749D01*
X125944Y148444D01*
X124000Y149249D01*
D02*
G37*
G36*
X121000D02*
X119056Y148444D01*
X118250Y146500D01*
X121000D01*
Y149249D01*
D02*
G37*
G36*
X64000D02*
Y146500D01*
X66749D01*
X65944Y148444D01*
X64000Y149249D01*
D02*
G37*
G36*
X293934Y144610D02*
X294000Y144580D01*
X294003Y144578D01*
X293934Y144610D01*
D02*
G37*
G36*
X541000Y143500D02*
X538250D01*
X539055Y141556D01*
X541000Y140750D01*
Y143500D01*
D02*
G37*
G36*
X531749D02*
X529000D01*
Y140750D01*
X530944Y141556D01*
X531749Y143500D01*
D02*
G37*
G36*
X526000D02*
X523250D01*
X524055Y141556D01*
X526000Y140750D01*
Y143500D01*
D02*
G37*
G36*
X486749D02*
X484000D01*
Y140750D01*
X485944Y141556D01*
X486749Y143500D01*
D02*
G37*
G36*
X481000D02*
X478250D01*
X479055Y141556D01*
X481000Y140750D01*
Y143500D01*
D02*
G37*
G36*
X471749D02*
X469000D01*
Y140750D01*
X470944Y141556D01*
X471749Y143500D01*
D02*
G37*
G36*
X466000D02*
X463250D01*
X464055Y141556D01*
X466000Y140750D01*
Y143500D01*
D02*
G37*
G36*
X286000D02*
X283250D01*
X284056Y141556D01*
X286000Y140750D01*
Y143500D01*
D02*
G37*
G36*
X276749D02*
X274000D01*
Y140750D01*
X275944Y141556D01*
X276749Y143500D01*
D02*
G37*
G36*
X271000D02*
X268250D01*
X269056Y141556D01*
X271000Y140750D01*
Y143500D01*
D02*
G37*
G36*
X201749D02*
X199000D01*
Y140750D01*
X200944Y141556D01*
X201749Y143500D01*
D02*
G37*
G36*
X196000D02*
X193250D01*
X194056Y141556D01*
X196000Y140750D01*
Y143500D01*
D02*
G37*
G36*
X156749D02*
X154000D01*
Y140750D01*
X155944Y141556D01*
X156749Y143500D01*
D02*
G37*
G36*
X151000D02*
X148250D01*
X149056Y141556D01*
X151000Y140750D01*
Y143500D01*
D02*
G37*
G36*
X141749D02*
X139000D01*
Y140750D01*
X140944Y141556D01*
X141749Y143500D01*
D02*
G37*
G36*
X136000D02*
X133250D01*
X134056Y141556D01*
X136000Y140750D01*
Y143500D01*
D02*
G37*
G36*
X126749D02*
X124000D01*
Y140750D01*
X125944Y141556D01*
X126749Y143500D01*
D02*
G37*
G36*
X121000D02*
X118250D01*
X119056Y141556D01*
X121000Y140750D01*
Y143500D01*
D02*
G37*
G36*
X66749D02*
X64000D01*
Y140750D01*
X65944Y141556D01*
X66749Y143500D01*
D02*
G37*
G36*
X439000Y144500D02*
X434000D01*
Y139500D01*
X439000D01*
Y144500D01*
D02*
G37*
G36*
X284000Y138332D02*
Y134500D01*
X287832D01*
X286709Y137210D01*
X284000Y138332D01*
D02*
G37*
G36*
X281000D02*
X278291Y137210D01*
X277168Y134500D01*
X281000D01*
Y138332D01*
D02*
G37*
G36*
X536500Y134249D02*
Y131500D01*
X539249D01*
X538444Y133444D01*
X536500Y134249D01*
D02*
G37*
G36*
X533500D02*
X531555Y133444D01*
X530750Y131500D01*
X533500D01*
Y134249D01*
D02*
G37*
G36*
X521500D02*
Y131500D01*
X524249D01*
X523444Y133444D01*
X521500Y134249D01*
D02*
G37*
G36*
X428500D02*
X426555Y133444D01*
X425750Y131500D01*
X428500D01*
Y134249D01*
D02*
G37*
G36*
X341500D02*
Y131500D01*
X344249D01*
X343444Y133444D01*
X341500Y134249D01*
D02*
G37*
G36*
X236500D02*
Y131500D01*
X239249D01*
X238444Y133444D01*
X236500Y134249D01*
D02*
G37*
G36*
X233500D02*
X231556Y133444D01*
X230750Y131500D01*
X233500D01*
Y134249D01*
D02*
G37*
G36*
X158500D02*
X156556Y133444D01*
X155750Y131500D01*
X158500D01*
Y134249D01*
D02*
G37*
G36*
X146500D02*
Y131500D01*
X149249D01*
X148444Y133444D01*
X146500Y134249D01*
D02*
G37*
G36*
X143500D02*
X141556Y133444D01*
X140750Y131500D01*
X143500D01*
Y134249D01*
D02*
G37*
G36*
X131500D02*
Y131500D01*
X134249D01*
X133444Y133444D01*
X131500Y134249D01*
D02*
G37*
G36*
X128500D02*
X126556Y133444D01*
X125750Y131500D01*
X128500D01*
Y134249D01*
D02*
G37*
G36*
X116500D02*
Y131500D01*
X119249D01*
X118444Y133444D01*
X116500Y134249D01*
D02*
G37*
G36*
X113500D02*
X111556Y133444D01*
X110750Y131500D01*
X113500D01*
Y134249D01*
D02*
G37*
G36*
X56500D02*
Y131500D01*
X59249D01*
X58444Y133444D01*
X56500Y134249D01*
D02*
G37*
G36*
X53500D02*
X51556Y133444D01*
X50750Y131500D01*
X53500D01*
Y134249D01*
D02*
G37*
G36*
X360332Y134750D02*
X356500D01*
Y130918D01*
X359210Y132041D01*
X360332Y134750D01*
D02*
G37*
G36*
X353500D02*
X349668D01*
X350790Y132041D01*
X353500Y130918D01*
Y134750D01*
D02*
G37*
G36*
X287832Y131500D02*
X284000D01*
Y127668D01*
X286709Y128791D01*
X287832Y131500D01*
D02*
G37*
G36*
X281000D02*
X277168D01*
X278291Y128791D01*
X281000Y127668D01*
Y131500D01*
D02*
G37*
G36*
X369250Y132000D02*
X364250D01*
Y127000D01*
X369250D01*
Y132000D01*
D02*
G37*
G36*
X539249Y128500D02*
X536500D01*
Y125750D01*
X538444Y126556D01*
X539249Y128500D01*
D02*
G37*
G36*
X533500D02*
X530750D01*
X531555Y126556D01*
X533500Y125750D01*
Y128500D01*
D02*
G37*
G36*
X524249D02*
X521500D01*
Y125750D01*
X523444Y126556D01*
X524249Y128500D01*
D02*
G37*
G36*
X500750Y143571D02*
X490800Y139450D01*
X486679Y129500D01*
X490800Y119550D01*
X500750Y115429D01*
X506655Y117875D01*
X508030Y116500D01*
X516749D01*
X515944Y118444D01*
X512924Y119694D01*
X512500Y119870D01*
X511570Y121650D01*
X513996Y127508D01*
X516161D01*
X516555Y126556D01*
X518500Y125750D01*
Y130000D01*
Y134249D01*
X516555Y133444D01*
X515954Y131992D01*
X513789Y131992D01*
X511070Y138556D01*
X512500Y140129D01*
X512571Y140159D01*
X515944Y141556D01*
X516749Y143500D01*
X508250D01*
X508685Y142449D01*
X507155Y140918D01*
X500750Y143571D01*
D02*
G37*
G36*
X428500Y128500D02*
X425750D01*
X426555Y126556D01*
X428500Y125750D01*
Y128500D01*
D02*
G37*
G36*
X344249D02*
X341500D01*
Y125750D01*
X343444Y126556D01*
X344249Y128500D01*
D02*
G37*
G36*
X239249D02*
X236500D01*
Y125750D01*
X238444Y126556D01*
X239249Y128500D01*
D02*
G37*
G36*
X233500D02*
X230750D01*
X231556Y126556D01*
X233500Y125750D01*
Y128500D01*
D02*
G37*
G36*
X158500D02*
X155750D01*
X156556Y126556D01*
X158500Y125750D01*
Y128500D01*
D02*
G37*
G36*
X149249D02*
X146500D01*
Y125750D01*
X148444Y126556D01*
X149249Y128500D01*
D02*
G37*
G36*
X143500D02*
X140750D01*
X141556Y126556D01*
X143500Y125750D01*
Y128500D01*
D02*
G37*
G36*
X134249D02*
X131500D01*
Y125750D01*
X133444Y126556D01*
X134249Y128500D01*
D02*
G37*
G36*
X128500D02*
X125750D01*
X126556Y126556D01*
X128500Y125750D01*
Y128500D01*
D02*
G37*
G36*
X119249D02*
X116500D01*
Y125750D01*
X118444Y126556D01*
X119249Y128500D01*
D02*
G37*
G36*
X113500D02*
X110750D01*
X111556Y126556D01*
X113500Y125750D01*
Y128500D01*
D02*
G37*
G36*
X59249D02*
X56500D01*
Y125750D01*
X58444Y126556D01*
X59249Y128500D01*
D02*
G37*
G36*
X53500D02*
X50750D01*
X51556Y126556D01*
X53500Y125750D01*
Y128500D01*
D02*
G37*
G36*
X106250Y145450D02*
X80250D01*
Y140321D01*
X76450D01*
X73006Y138894D01*
X65230Y131118D01*
X63923Y130577D01*
X62338Y126750D01*
X63923Y122923D01*
X67750Y121338D01*
X71577Y122923D01*
X72118Y124230D01*
X78250Y130362D01*
X80250Y130054D01*
Y125450D01*
X106250D01*
Y145450D01*
D02*
G37*
G36*
X541000Y119249D02*
X539055Y118444D01*
X538250Y116500D01*
X541000D01*
Y119249D01*
D02*
G37*
G36*
X529000D02*
Y116500D01*
X531749D01*
X530944Y118444D01*
X529000Y119249D01*
D02*
G37*
G36*
X526000D02*
X524055Y118444D01*
X523250Y116500D01*
X526000D01*
Y119249D01*
D02*
G37*
G36*
X484000D02*
Y116500D01*
X486749D01*
X485944Y118444D01*
X484000Y119249D01*
D02*
G37*
G36*
X481000D02*
X479055Y118444D01*
X478250Y116500D01*
X481000D01*
Y119249D01*
D02*
G37*
G36*
X469000D02*
Y116500D01*
X471749D01*
X470944Y118444D01*
X469000Y119249D01*
D02*
G37*
G36*
X466000D02*
X464055Y118444D01*
X463250Y116500D01*
X466000D01*
Y119249D01*
D02*
G37*
G36*
X241000D02*
X239056Y118444D01*
X238250Y116500D01*
X241000D01*
Y119249D01*
D02*
G37*
G36*
X229000D02*
Y116500D01*
X231749D01*
X230944Y118444D01*
X229000Y119249D01*
D02*
G37*
G36*
X226000D02*
X224056Y118444D01*
X223250Y116500D01*
X226000D01*
Y119249D01*
D02*
G37*
G36*
X154000D02*
Y116500D01*
X156749D01*
X155944Y118444D01*
X154000Y119249D01*
D02*
G37*
G36*
X151000D02*
X149056Y118444D01*
X148250Y116500D01*
X151000D01*
Y119249D01*
D02*
G37*
G36*
X139000D02*
Y116500D01*
X141749D01*
X140944Y118444D01*
X139000Y119249D01*
D02*
G37*
G36*
X136000D02*
X134056Y118444D01*
X133250Y116500D01*
X136000D01*
Y119249D01*
D02*
G37*
G36*
X124000D02*
Y116500D01*
X126749D01*
X125944Y118444D01*
X124000Y119249D01*
D02*
G37*
G36*
X121000D02*
X119056Y118444D01*
X118250Y116500D01*
X121000D01*
Y119249D01*
D02*
G37*
G36*
X106750Y120550D02*
X95000D01*
Y111800D01*
X106750D01*
Y120550D01*
D02*
G37*
G36*
X91500D02*
X79750D01*
Y111800D01*
X91500D01*
Y120550D01*
D02*
G37*
G36*
X190750D02*
X179000D01*
Y111800D01*
X190750D01*
Y120550D01*
D02*
G37*
G36*
X175500D02*
X163750D01*
Y111800D01*
X175500D01*
Y120550D01*
D02*
G37*
G36*
X541000Y113500D02*
X538250D01*
X539055Y111556D01*
X541000Y110750D01*
Y113500D01*
D02*
G37*
G36*
X531749D02*
X529000D01*
Y110750D01*
X530944Y111556D01*
X531749Y113500D01*
D02*
G37*
G36*
X526000D02*
X523250D01*
X524055Y111556D01*
X526000Y110750D01*
Y113500D01*
D02*
G37*
G36*
X516749D02*
X514000D01*
Y110750D01*
X515944Y111556D01*
X516749Y113500D01*
D02*
G37*
G36*
X511000D02*
X508250D01*
X509055Y111556D01*
X511000Y110750D01*
Y113500D01*
D02*
G37*
G36*
X486749D02*
X484000D01*
Y110750D01*
X485944Y111556D01*
X486749Y113500D01*
D02*
G37*
G36*
X481000D02*
X478250D01*
X479055Y111556D01*
X481000Y110750D01*
Y113500D01*
D02*
G37*
G36*
X471749D02*
X469000D01*
Y110750D01*
X470944Y111556D01*
X471749Y113500D01*
D02*
G37*
G36*
X466000D02*
X463250D01*
X464055Y111556D01*
X466000Y110750D01*
Y113500D01*
D02*
G37*
G36*
X411749D02*
X409000D01*
Y110750D01*
X410944Y111556D01*
X411749Y113500D01*
D02*
G37*
G36*
X406000D02*
X403250D01*
X404055Y111556D01*
X406000Y110750D01*
Y113500D01*
D02*
G37*
G36*
X231749D02*
X229000D01*
Y110750D01*
X230944Y111556D01*
X231749Y113500D01*
D02*
G37*
G36*
X226000D02*
X223250D01*
X224056Y111556D01*
X226000Y110750D01*
Y113500D01*
D02*
G37*
G36*
X156749D02*
X154000D01*
Y110750D01*
X155944Y111556D01*
X156749Y113500D01*
D02*
G37*
G36*
X151000D02*
X148250D01*
X149056Y111556D01*
X151000Y110750D01*
Y113500D01*
D02*
G37*
G36*
X141749D02*
X139000D01*
Y110750D01*
X140944Y111556D01*
X141749Y113500D01*
D02*
G37*
G36*
X136000D02*
X133250D01*
X134056Y111556D01*
X136000Y110750D01*
Y113500D01*
D02*
G37*
G36*
X126749D02*
X124000D01*
Y110750D01*
X125944Y111556D01*
X126749Y113500D01*
D02*
G37*
G36*
X121000D02*
X118250D01*
X119056Y111556D01*
X121000Y110750D01*
Y113500D01*
D02*
G37*
G36*
X190750Y108300D02*
X177250D01*
X163750D01*
Y105482D01*
X161750Y104145D01*
X161500Y104249D01*
Y100000D01*
Y95750D01*
X163444Y96556D01*
X164684Y99550D01*
X174672D01*
X175070Y97550D01*
X173041Y96709D01*
X171918Y94000D01*
X182582D01*
X181460Y96709D01*
X179430Y97550D01*
X179828Y99550D01*
X190750D01*
Y108300D01*
D02*
G37*
G36*
X536500Y104249D02*
Y101500D01*
X539249D01*
X538444Y103444D01*
X536500Y104249D01*
D02*
G37*
G36*
X476500D02*
Y101500D01*
X479249D01*
X478444Y103444D01*
X476500Y104249D01*
D02*
G37*
G36*
X473500D02*
X471555Y103444D01*
X470750Y101500D01*
X473500D01*
Y104249D01*
D02*
G37*
G36*
X461500D02*
Y101500D01*
X464249D01*
X463444Y103444D01*
X461500Y104249D01*
D02*
G37*
G36*
X458500D02*
X456555Y103444D01*
X455750Y101500D01*
X458500D01*
Y104249D01*
D02*
G37*
G36*
X416500D02*
Y101500D01*
X419249D01*
X418444Y103444D01*
X416500Y104249D01*
D02*
G37*
G36*
X413500D02*
X411555Y103444D01*
X410750Y101500D01*
X413500D01*
Y104249D01*
D02*
G37*
G36*
X203500D02*
X201556Y103444D01*
X200750Y101500D01*
X203500D01*
Y104249D01*
D02*
G37*
G36*
X158500D02*
X156556Y103444D01*
X155750Y101500D01*
X158500D01*
Y104249D01*
D02*
G37*
G36*
X146500D02*
Y101500D01*
X149249D01*
X148444Y103444D01*
X146500Y104249D01*
D02*
G37*
G36*
X143500D02*
X141556Y103444D01*
X140750Y101500D01*
X143500D01*
Y104249D01*
D02*
G37*
G36*
X131500D02*
Y101500D01*
X134249D01*
X133444Y103444D01*
X131500Y104249D01*
D02*
G37*
G36*
X128500D02*
X126556Y103444D01*
X125750Y101500D01*
X128500D01*
Y104249D01*
D02*
G37*
G36*
X116500D02*
Y101500D01*
X119249D01*
X118444Y103444D01*
X116500Y104249D01*
D02*
G37*
G36*
X113500D02*
X111556Y103444D01*
X110750Y101500D01*
X113500D01*
Y104249D01*
D02*
G37*
G36*
X71500D02*
Y101500D01*
X74249D01*
X73444Y103444D01*
X71500Y104249D01*
D02*
G37*
G36*
X68500D02*
X66556Y103444D01*
X65750Y101500D01*
X68500D01*
Y104249D01*
D02*
G37*
G36*
X403250Y104082D02*
Y100250D01*
X407082D01*
X405960Y102959D01*
X403250Y104082D01*
D02*
G37*
G36*
X400250D02*
X397541Y102959D01*
X396418Y100250D01*
X400250D01*
Y104082D01*
D02*
G37*
G36*
X479249Y98500D02*
X476500D01*
Y95750D01*
X478444Y96556D01*
X479249Y98500D01*
D02*
G37*
G36*
X473500D02*
X470750D01*
X471555Y96556D01*
X473500Y95750D01*
Y98500D01*
D02*
G37*
G36*
X464249D02*
X461500D01*
Y95750D01*
X463444Y96556D01*
X464249Y98500D01*
D02*
G37*
G36*
X458500D02*
X455750D01*
X456555Y96556D01*
X458500Y95750D01*
Y98500D01*
D02*
G37*
G36*
X419249D02*
X416500D01*
Y95750D01*
X418444Y96556D01*
X419249Y98500D01*
D02*
G37*
G36*
X413500D02*
X410750D01*
X411555Y96556D01*
X413500Y95750D01*
Y98500D01*
D02*
G37*
G36*
X203500D02*
X200750D01*
X201556Y96556D01*
X203500Y95750D01*
Y98500D01*
D02*
G37*
G36*
X158500D02*
X155750D01*
X156556Y96556D01*
X158500Y95750D01*
Y98500D01*
D02*
G37*
G36*
X149249D02*
X146500D01*
Y95750D01*
X148444Y96556D01*
X149249Y98500D01*
D02*
G37*
G36*
X143500D02*
X140750D01*
X141556Y96556D01*
X143500Y95750D01*
Y98500D01*
D02*
G37*
G36*
X134249D02*
X131500D01*
Y95750D01*
X133444Y96556D01*
X134249Y98500D01*
D02*
G37*
G36*
X128500D02*
X125750D01*
X126556Y96556D01*
X128500Y95750D01*
Y98500D01*
D02*
G37*
G36*
X119249D02*
X116500D01*
Y95750D01*
X118444Y96556D01*
X119249Y98500D01*
D02*
G37*
G36*
X113500D02*
X110750D01*
X111556Y96556D01*
X113500Y95750D01*
Y98500D01*
D02*
G37*
G36*
X74249D02*
X71500D01*
Y95750D01*
X73444Y96556D01*
X74249Y98500D01*
D02*
G37*
G36*
X68500D02*
X65750D01*
X66556Y96556D01*
X68500Y95750D01*
Y98500D01*
D02*
G37*
G36*
X59249D02*
X56500D01*
Y95750D01*
X58444Y96556D01*
X59249Y98500D01*
D02*
G37*
G36*
X44249Y128500D02*
X35750D01*
X36463Y126778D01*
X36556Y125939D01*
Y124652D01*
X33050Y123200D01*
X28929Y113250D01*
X33050Y103300D01*
X43000Y99179D01*
X48781Y101573D01*
X50195Y100159D01*
X50129Y100000D01*
X51556Y96556D01*
X53500Y95750D01*
Y100000D01*
X55000D01*
Y101500D01*
X59249D01*
X58444Y103444D01*
X55000Y104870D01*
X54010Y105860D01*
X57071Y113250D01*
X52950Y123200D01*
X43650Y127052D01*
X44249Y128500D01*
D02*
G37*
G36*
X106750Y108300D02*
X93250D01*
X79750D01*
Y99550D01*
X88018D01*
X88724Y97550D01*
X87668Y95000D01*
X98332D01*
X97276Y97550D01*
X97982Y99550D01*
X106750D01*
Y108300D01*
D02*
G37*
G36*
X175750Y91000D02*
X171918D01*
X172330Y90005D01*
X172567Y89434D01*
X170785Y88510D01*
X170218Y88744D01*
X169000Y89249D01*
Y86500D01*
X171749D01*
X171654Y86730D01*
X171418Y87300D01*
X173199Y88225D01*
X173766Y87990D01*
X175750Y87168D01*
Y91000D01*
D02*
G37*
G36*
X200750Y92332D02*
X198041Y91209D01*
X196918Y88500D01*
X200750D01*
Y92332D01*
D02*
G37*
G36*
X182582Y91000D02*
X178750D01*
Y87168D01*
X181460Y88291D01*
X182582Y91000D01*
D02*
G37*
G36*
X541000Y89249D02*
X539055Y88444D01*
X538250Y86500D01*
X541000D01*
Y89249D01*
D02*
G37*
G36*
X484000D02*
Y86500D01*
X486749D01*
X485944Y88444D01*
X484000Y89249D01*
D02*
G37*
G36*
X481000D02*
X479055Y88444D01*
X478250Y86500D01*
X481000D01*
Y89249D01*
D02*
G37*
G36*
X469000D02*
Y86500D01*
X471749D01*
X470944Y88444D01*
X469000Y89249D01*
D02*
G37*
G36*
X466000D02*
X464055Y88444D01*
X463250Y86500D01*
X466000D01*
Y89249D01*
D02*
G37*
G36*
X439000D02*
Y86500D01*
X441749D01*
X440944Y88444D01*
X439000Y89249D01*
D02*
G37*
G36*
X436000D02*
X434055Y88444D01*
X433250Y86500D01*
X436000D01*
Y89249D01*
D02*
G37*
G36*
X166000D02*
X164056Y88444D01*
X163250Y86500D01*
X166000D01*
Y89249D01*
D02*
G37*
G36*
X154000D02*
Y86500D01*
X156749D01*
X155944Y88444D01*
X154000Y89249D01*
D02*
G37*
G36*
X151000D02*
X149056Y88444D01*
X148250Y86500D01*
X151000D01*
Y89249D01*
D02*
G37*
G36*
X139000D02*
Y86500D01*
X141749D01*
X140944Y88444D01*
X139000Y89249D01*
D02*
G37*
G36*
X136000D02*
X134056Y88444D01*
X133250Y86500D01*
X136000D01*
Y89249D01*
D02*
G37*
G36*
X124000D02*
Y86500D01*
X126749D01*
X125944Y88444D01*
X124000Y89249D01*
D02*
G37*
G36*
X121000D02*
X119056Y88444D01*
X118250Y86500D01*
X121000D01*
Y89249D01*
D02*
G37*
G36*
X109000D02*
Y86500D01*
X111749D01*
X110944Y88444D01*
X109000Y89249D01*
D02*
G37*
G36*
X106000D02*
X104056Y88444D01*
X103250Y86500D01*
X106000D01*
Y89249D01*
D02*
G37*
G36*
X98332Y92000D02*
X87668D01*
X88790Y89291D01*
X88551Y87225D01*
X88250Y86500D01*
X96749D01*
X96595Y86871D01*
X97210Y89291D01*
X98332Y92000D01*
D02*
G37*
G36*
X79000Y89249D02*
Y86500D01*
X81749D01*
X80944Y88444D01*
X79000Y89249D01*
D02*
G37*
G36*
X76000D02*
X74056Y88444D01*
X73250Y86500D01*
X76000D01*
Y89249D01*
D02*
G37*
G36*
X64000D02*
Y86500D01*
X66749D01*
X65944Y88444D01*
X64000Y89249D01*
D02*
G37*
G36*
X61000D02*
X59056Y88444D01*
X58250Y86500D01*
X61000D01*
Y89249D01*
D02*
G37*
G36*
X421000Y91250D02*
X410250D01*
Y85500D01*
X421000D01*
Y91250D01*
D02*
G37*
G36*
X407082Y97250D02*
X396418D01*
X397541Y94541D01*
X400656Y93250D01*
X400258Y91250D01*
X396000D01*
Y85500D01*
X406750D01*
Y91250D01*
X403242D01*
X402844Y93250D01*
X405960Y94541D01*
X407082Y97250D01*
D02*
G37*
G36*
X200750Y85500D02*
X196918D01*
X198041Y82790D01*
X200750Y81668D01*
Y85500D01*
D02*
G37*
G36*
X541000Y83500D02*
X538250D01*
X539055Y81556D01*
X541000Y80750D01*
Y83500D01*
D02*
G37*
G36*
X486749D02*
X484000D01*
Y80750D01*
X485944Y81556D01*
X486749Y83500D01*
D02*
G37*
G36*
X481000D02*
X478250D01*
X479055Y81556D01*
X481000Y80750D01*
Y83500D01*
D02*
G37*
G36*
X471749D02*
X469000D01*
Y80750D01*
X470944Y81556D01*
X471749Y83500D01*
D02*
G37*
G36*
X466000D02*
X463250D01*
X464055Y81556D01*
X466000Y80750D01*
Y83500D01*
D02*
G37*
G36*
X441749D02*
X439000D01*
Y80750D01*
X440944Y81556D01*
X441749Y83500D01*
D02*
G37*
G36*
X436000D02*
X433250D01*
X434055Y81556D01*
X436000Y80750D01*
Y83500D01*
D02*
G37*
G36*
X171749D02*
X169000D01*
Y80750D01*
X170944Y81556D01*
X171749Y83500D01*
D02*
G37*
G36*
X166000D02*
X163250D01*
X164056Y81556D01*
X166000Y80750D01*
Y83500D01*
D02*
G37*
G36*
X156749D02*
X154000D01*
Y80750D01*
X155944Y81556D01*
X156749Y83500D01*
D02*
G37*
G36*
X151000D02*
X148250D01*
X149056Y81556D01*
X151000Y80750D01*
Y83500D01*
D02*
G37*
G36*
X141749D02*
X139000D01*
Y80750D01*
X140944Y81556D01*
X141749Y83500D01*
D02*
G37*
G36*
X136000D02*
X133250D01*
X134056Y81556D01*
X136000Y80750D01*
Y83500D01*
D02*
G37*
G36*
X126749D02*
X124000D01*
Y80750D01*
X125944Y81556D01*
X126749Y83500D01*
D02*
G37*
G36*
X121000D02*
X118250D01*
X119056Y81556D01*
X121000Y80750D01*
Y83500D01*
D02*
G37*
G36*
X111749D02*
X109000D01*
Y80750D01*
X110944Y81556D01*
X111749Y83500D01*
D02*
G37*
G36*
X106000D02*
X103250D01*
X104056Y81556D01*
X106000Y80750D01*
Y83500D01*
D02*
G37*
G36*
X96749D02*
X94000D01*
Y80750D01*
X95944Y81556D01*
X96749Y83500D01*
D02*
G37*
G36*
X91000D02*
X88250D01*
X89056Y81556D01*
X91000Y80750D01*
Y83500D01*
D02*
G37*
G36*
X81749D02*
X79000D01*
Y80750D01*
X80944Y81556D01*
X81749Y83500D01*
D02*
G37*
G36*
X76000D02*
X73250D01*
X74056Y81556D01*
X76000Y80750D01*
Y83500D01*
D02*
G37*
G36*
X66749D02*
X64000D01*
Y80750D01*
X65944Y81556D01*
X66749Y83500D01*
D02*
G37*
G36*
X61000D02*
X58250D01*
X59056Y81556D01*
X61000Y80750D01*
Y83500D01*
D02*
G37*
G36*
X391750Y85500D02*
X386750D01*
Y80500D01*
X391750D01*
Y85500D01*
D02*
G37*
G36*
X476500Y74249D02*
Y71500D01*
X479249D01*
X478444Y73444D01*
X476500Y74249D01*
D02*
G37*
G36*
X473500D02*
X471555Y73444D01*
X470750Y71500D01*
X473500D01*
Y74249D01*
D02*
G37*
G36*
X428500D02*
X426555Y73444D01*
X425750Y71500D01*
X428500D01*
Y74249D01*
D02*
G37*
G36*
X356500D02*
Y71500D01*
X359249D01*
X358444Y73444D01*
X356500Y74249D01*
D02*
G37*
G36*
X353500D02*
X351555Y73444D01*
X350750Y71500D01*
X353500D01*
Y74249D01*
D02*
G37*
G36*
X203500D02*
X201556Y73444D01*
X200750Y71500D01*
X203500D01*
Y74249D01*
D02*
G37*
G36*
X158500D02*
X156556Y73444D01*
X155750Y71500D01*
X158500D01*
Y74249D01*
D02*
G37*
G36*
X146500D02*
Y71500D01*
X149249D01*
X148444Y73444D01*
X146500Y74249D01*
D02*
G37*
G36*
X143500D02*
X141556Y73444D01*
X140750Y71500D01*
X143500D01*
Y74249D01*
D02*
G37*
G36*
X131500D02*
Y71500D01*
X134249D01*
X133444Y73444D01*
X131500Y74249D01*
D02*
G37*
G36*
X128500D02*
X126556Y73444D01*
X125750Y71500D01*
X128500D01*
Y74249D01*
D02*
G37*
G36*
X116500D02*
Y71500D01*
X119249D01*
X118444Y73444D01*
X116500Y74249D01*
D02*
G37*
G36*
X113500D02*
X111556Y73444D01*
X110750Y71500D01*
X113500D01*
Y74249D01*
D02*
G37*
G36*
X453250Y87371D02*
X449806Y85944D01*
X448379Y82500D01*
X449129Y80689D01*
Y74782D01*
X448000Y73250D01*
X443000D01*
Y66500D01*
X439500D01*
Y73250D01*
X434500D01*
X434500Y73250D01*
X432707Y73749D01*
X431500Y74249D01*
Y70000D01*
Y65750D01*
X432500Y66165D01*
X434500Y64999D01*
Y59750D01*
X434500D01*
X435000Y58750D01*
Y46250D01*
X441967D01*
X442179Y45867D01*
X441555Y43444D01*
X440750Y41500D01*
X449249D01*
X448755Y42693D01*
X449383Y45118D01*
X450361Y45523D01*
X451500D01*
X451500Y45523D01*
X452651Y46000D01*
X457500D01*
X457898Y44000D01*
X456555Y43444D01*
X455750Y41500D01*
X464249D01*
X463444Y43444D01*
X461175Y44383D01*
X460250Y46000D01*
X460250Y46718D01*
Y58500D01*
X460250D01*
Y60000D01*
X460250D01*
Y72500D01*
X458871D01*
Y81750D01*
X457444Y85194D01*
X456694Y85944D01*
X453250Y87371D01*
D02*
G37*
G36*
X479249Y68500D02*
X476500D01*
Y65750D01*
X478444Y66556D01*
X479249Y68500D01*
D02*
G37*
G36*
X473500D02*
X470750D01*
X471555Y66556D01*
X473500Y65750D01*
Y68500D01*
D02*
G37*
G36*
X428500D02*
X425750D01*
X426555Y66556D01*
X428500Y65750D01*
Y68500D01*
D02*
G37*
G36*
X359249D02*
X356500D01*
Y65750D01*
X358444Y66556D01*
X359249Y68500D01*
D02*
G37*
G36*
X353500D02*
X350750D01*
X351555Y66556D01*
X353500Y65750D01*
Y68500D01*
D02*
G37*
G36*
X239249D02*
X236500D01*
Y65750D01*
X238444Y66556D01*
X239249Y68500D01*
D02*
G37*
G36*
X233500D02*
X230750D01*
X231556Y66556D01*
X233500Y65750D01*
Y68500D01*
D02*
G37*
G36*
X158500D02*
X155750D01*
X156556Y66556D01*
X158500Y65750D01*
Y68500D01*
D02*
G37*
G36*
X149249D02*
X146500D01*
Y65750D01*
X148444Y66556D01*
X149249Y68500D01*
D02*
G37*
G36*
X143500D02*
X140750D01*
X141556Y66556D01*
X143500Y65750D01*
Y68500D01*
D02*
G37*
G36*
X134249D02*
X131500D01*
Y65750D01*
X133444Y66556D01*
X134249Y68500D01*
D02*
G37*
G36*
X128500D02*
X125750D01*
X126556Y66556D01*
X128500Y65750D01*
Y68500D01*
D02*
G37*
G36*
X119249D02*
X116500D01*
Y65750D01*
X118444Y66556D01*
X119249Y68500D01*
D02*
G37*
G36*
X113500D02*
X110750D01*
X111556Y66556D01*
X113500Y65750D01*
Y68500D01*
D02*
G37*
G36*
X398500D02*
X395750D01*
X396555Y66556D01*
X398500Y65750D01*
Y68500D01*
D02*
G37*
G36*
X541000Y59249D02*
X539055Y58444D01*
X538250Y56500D01*
X541000D01*
Y59249D01*
D02*
G37*
G36*
X424000D02*
Y56500D01*
X426749D01*
X425944Y58444D01*
X424000Y59249D01*
D02*
G37*
G36*
X421000D02*
X419055Y58444D01*
X418250Y56500D01*
X421000D01*
Y59249D01*
D02*
G37*
G36*
X421000Y82000D02*
X408500D01*
X396000D01*
Y76250D01*
X398104D01*
X398502Y74250D01*
X396555Y73444D01*
X395750Y71500D01*
X400000D01*
Y70000D01*
X401500D01*
Y64251D01*
X402165Y63861D01*
X403540Y60540D01*
X404055Y60327D01*
Y59323D01*
X403956Y58204D01*
X403250Y56500D01*
X411749D01*
X411117Y58026D01*
X411358Y60292D01*
X411959Y60540D01*
X413262Y63684D01*
X415000Y65129D01*
X418444Y66556D01*
X419249Y68500D01*
X415000D01*
Y71500D01*
X419249D01*
X418444Y73444D01*
X416497Y74250D01*
X416895Y76250D01*
X421000D01*
Y82000D01*
D02*
G37*
G36*
X394000Y59249D02*
Y56500D01*
X396749D01*
X395944Y58444D01*
X394000Y59249D01*
D02*
G37*
G36*
X391000D02*
X389055Y58444D01*
X388250Y56500D01*
X391000D01*
Y59249D01*
D02*
G37*
G36*
X364000D02*
Y56500D01*
X366749D01*
X365944Y58444D01*
X364000Y59249D01*
D02*
G37*
G36*
X361000D02*
X359055Y58444D01*
X358250Y56500D01*
X361000D01*
Y59249D01*
D02*
G37*
G36*
X226000D02*
X224056Y58444D01*
X223250Y56500D01*
X226000D01*
Y59249D01*
D02*
G37*
G36*
X154000D02*
Y56500D01*
X156749D01*
X155944Y58444D01*
X154000Y59249D01*
D02*
G37*
G36*
X151000D02*
X149056Y58444D01*
X148250Y56500D01*
X151000D01*
Y59249D01*
D02*
G37*
G36*
X139000D02*
Y56500D01*
X141749D01*
X140944Y58444D01*
X139000Y59249D01*
D02*
G37*
G36*
X136000D02*
X134056Y58444D01*
X133250Y56500D01*
X136000D01*
Y59249D01*
D02*
G37*
G36*
X124000D02*
Y56500D01*
X126749D01*
X125944Y58444D01*
X124000Y59249D01*
D02*
G37*
G36*
X121000D02*
X119056Y58444D01*
X118250Y56500D01*
X121000D01*
Y59249D01*
D02*
G37*
G36*
X541000Y53500D02*
X538250D01*
X539055Y51556D01*
X541000Y50750D01*
Y53500D01*
D02*
G37*
G36*
X426749D02*
X424000D01*
Y50750D01*
X425944Y51556D01*
X426749Y53500D01*
D02*
G37*
G36*
X421000D02*
X418250D01*
X419055Y51556D01*
X421000Y50750D01*
Y53500D01*
D02*
G37*
G36*
X366749D02*
X364000D01*
Y50750D01*
X365944Y51556D01*
X366749Y53500D01*
D02*
G37*
G36*
X361000D02*
X358250D01*
X359055Y51556D01*
X361000Y50750D01*
Y53500D01*
D02*
G37*
G36*
X156749D02*
X154000D01*
Y50750D01*
X155944Y51556D01*
X156749Y53500D01*
D02*
G37*
G36*
X151000D02*
X148250D01*
X149056Y51556D01*
X151000Y50750D01*
Y53500D01*
D02*
G37*
G36*
X141749D02*
X139000D01*
Y50750D01*
X140944Y51556D01*
X141749Y53500D01*
D02*
G37*
G36*
X136000D02*
X133250D01*
X134056Y51556D01*
X136000Y50750D01*
Y53500D01*
D02*
G37*
G36*
X126749D02*
X124000D01*
Y50750D01*
X125944Y51556D01*
X126749Y53500D01*
D02*
G37*
G36*
X121000D02*
X118250D01*
X119056Y51556D01*
X121000Y50750D01*
Y53500D01*
D02*
G37*
G36*
X500750Y73571D02*
X490800Y69450D01*
X486679Y59500D01*
X490800Y49550D01*
X500750Y45429D01*
X510700Y49550D01*
X514821Y59500D01*
X510700Y69450D01*
X500750Y73571D01*
D02*
G37*
G36*
X191250Y50600D02*
X179500D01*
Y41850D01*
X191250D01*
Y50600D01*
D02*
G37*
G36*
X107250D02*
X95500D01*
Y41850D01*
X107250D01*
Y50600D01*
D02*
G37*
G36*
X106750Y75500D02*
X80750D01*
Y70371D01*
X76250D01*
X72806Y68944D01*
X65230Y61368D01*
X63923Y60827D01*
X62338Y57000D01*
X63923Y53173D01*
X67750Y51588D01*
X71577Y53173D01*
X73564Y52743D01*
X74056Y51556D01*
X76000Y50750D01*
Y55000D01*
X79000D01*
Y49939D01*
X80250Y49103D01*
Y41850D01*
X92000D01*
Y50600D01*
X82601D01*
X81376Y52600D01*
X82370Y55000D01*
X82705Y55500D01*
X106750D01*
Y75500D01*
D02*
G37*
G36*
X491500Y44249D02*
Y41500D01*
X494249D01*
X493444Y43444D01*
X491500Y44249D01*
D02*
G37*
G36*
X488500D02*
X486555Y43444D01*
X485750Y41500D01*
X488500D01*
Y44249D01*
D02*
G37*
G36*
X476500D02*
Y41500D01*
X479249D01*
X478444Y43444D01*
X476500Y44249D01*
D02*
G37*
G36*
X473500D02*
X471555Y43444D01*
X470750Y41500D01*
X473500D01*
Y44249D01*
D02*
G37*
G36*
X431500D02*
Y41500D01*
X434249D01*
X433444Y43444D01*
X431500Y44249D01*
D02*
G37*
G36*
X428500D02*
X426555Y43444D01*
X425750Y41500D01*
X428500D01*
Y44249D01*
D02*
G37*
G36*
X158500D02*
X156556Y43444D01*
X155750Y41500D01*
X158500D01*
Y44249D01*
D02*
G37*
G36*
X146500D02*
Y41500D01*
X149249D01*
X148444Y43444D01*
X146500Y44249D01*
D02*
G37*
G36*
X143500D02*
X141556Y43444D01*
X140750Y41500D01*
X143500D01*
Y44249D01*
D02*
G37*
G36*
X131500D02*
Y41500D01*
X134249D01*
X133444Y43444D01*
X131500Y44249D01*
D02*
G37*
G36*
X128500D02*
X126556Y43444D01*
X125750Y41500D01*
X128500D01*
Y44249D01*
D02*
G37*
G36*
X116500D02*
Y41500D01*
X119249D01*
X118444Y43444D01*
X116500Y44249D01*
D02*
G37*
G36*
X113500D02*
X111556Y43444D01*
X110750Y41500D01*
X113500D01*
Y44249D01*
D02*
G37*
G36*
X479249Y38500D02*
X476500D01*
Y35750D01*
X478444Y36556D01*
X479249Y38500D01*
D02*
G37*
G36*
X473500D02*
X470750D01*
X471555Y36556D01*
X473500Y35750D01*
Y38500D01*
D02*
G37*
G36*
X464249D02*
X461500D01*
Y35750D01*
X463444Y36556D01*
X464249Y38500D01*
D02*
G37*
G36*
X458500D02*
X455750D01*
X456555Y36556D01*
X458500Y35750D01*
Y38500D01*
D02*
G37*
G36*
X434249D02*
X431500D01*
Y35750D01*
X433444Y36556D01*
X434249Y38500D01*
D02*
G37*
G36*
X428500D02*
X425750D01*
X426555Y36556D01*
X428500Y35750D01*
Y38500D01*
D02*
G37*
G36*
X158500D02*
X155750D01*
X156556Y36556D01*
X158500Y35750D01*
Y38500D01*
D02*
G37*
G36*
X149249D02*
X146500D01*
Y35750D01*
X148444Y36556D01*
X149249Y38500D01*
D02*
G37*
G36*
X143500D02*
X140750D01*
X141556Y36556D01*
X143500Y35750D01*
Y38500D01*
D02*
G37*
G36*
X134249D02*
X131500D01*
Y35750D01*
X133444Y36556D01*
X134249Y38500D01*
D02*
G37*
G36*
X128500D02*
X125750D01*
X126556Y36556D01*
X128500Y35750D01*
Y38500D01*
D02*
G37*
G36*
X119249D02*
X116500D01*
Y35750D01*
X118444Y36556D01*
X119249Y38500D01*
D02*
G37*
G36*
X113500D02*
X110750D01*
X111556Y36556D01*
X113500Y35750D01*
Y38500D01*
D02*
G37*
G36*
X449249D02*
X440750D01*
X441555Y36556D01*
X441738Y36480D01*
X440918Y34500D01*
X451582D01*
X450460Y37209D01*
X448970Y37826D01*
X449249Y38500D01*
D02*
G37*
G36*
X541000Y29249D02*
X539055Y28444D01*
X538250Y26500D01*
X541000D01*
Y29249D01*
D02*
G37*
G36*
X481000D02*
X479055Y28444D01*
X478250Y26500D01*
X481000D01*
Y29249D01*
D02*
G37*
G36*
X469000D02*
Y26500D01*
X471749D01*
X470944Y28444D01*
X469000Y29249D01*
D02*
G37*
G36*
X466000D02*
X464055Y28444D01*
X463250Y26500D01*
X466000D01*
Y29249D01*
D02*
G37*
G36*
X436000D02*
X434055Y28444D01*
X433250Y26500D01*
X436000D01*
Y29249D01*
D02*
G37*
G36*
X424000D02*
Y26500D01*
X426749D01*
X425944Y28444D01*
X424000Y29249D01*
D02*
G37*
G36*
X421000D02*
X419055Y28444D01*
X418250Y26500D01*
X421000D01*
Y29249D01*
D02*
G37*
G36*
X154000D02*
Y26500D01*
X156749D01*
X155944Y28444D01*
X154000Y29249D01*
D02*
G37*
G36*
X151000D02*
X149056Y28444D01*
X148250Y26500D01*
X151000D01*
Y29249D01*
D02*
G37*
G36*
X139000D02*
Y26500D01*
X141749D01*
X140944Y28444D01*
X139000Y29249D01*
D02*
G37*
G36*
X136000D02*
X134056Y28444D01*
X133250Y26500D01*
X136000D01*
Y29249D01*
D02*
G37*
G36*
X124000D02*
Y26500D01*
X126749D01*
X125944Y28444D01*
X124000Y29249D01*
D02*
G37*
G36*
X121000D02*
X119056Y28444D01*
X118250Y26500D01*
X121000D01*
Y29249D01*
D02*
G37*
G36*
X76000D02*
X74056Y28444D01*
X73250Y26500D01*
X76000D01*
Y29249D01*
D02*
G37*
G36*
X64000D02*
Y26500D01*
X66749D01*
X65944Y28444D01*
X64000Y29249D01*
D02*
G37*
G36*
X61000D02*
X59056Y28444D01*
X58250Y26500D01*
X61000D01*
Y29249D01*
D02*
G37*
G36*
X43000Y57571D02*
X33050Y53450D01*
X28929Y43500D01*
X33050Y33550D01*
X42595Y29597D01*
X43698Y27581D01*
X43250Y26500D01*
X51749D01*
X50944Y28444D01*
X48396Y29499D01*
Y31664D01*
X52950Y33550D01*
X57071Y43500D01*
X52950Y53450D01*
X43000Y57571D01*
D02*
G37*
G36*
X541000Y23500D02*
X538250D01*
X539055Y21556D01*
X541000Y20750D01*
Y23500D01*
D02*
G37*
G36*
X536500Y14249D02*
Y11500D01*
X539249D01*
X538444Y13444D01*
X536500Y14249D01*
D02*
G37*
G36*
X533500D02*
X531555Y13444D01*
X530750Y11500D01*
X533500D01*
Y14249D01*
D02*
G37*
G36*
X11500D02*
Y11500D01*
X14249D01*
X13444Y13444D01*
X11500Y14249D01*
D02*
G37*
G36*
X289000Y209249D02*
Y206500D01*
X291749D01*
X290944Y208444D01*
X289000Y209249D01*
D02*
G37*
G36*
X291749Y203500D02*
X289000D01*
Y200750D01*
X290944Y201556D01*
X291749Y203500D01*
D02*
G37*
G36*
X293500Y194249D02*
X291556Y193444D01*
X290750Y191500D01*
X293500D01*
Y194249D01*
D02*
G37*
G36*
Y188500D02*
X290750D01*
X291556Y186556D01*
X293500Y185750D01*
Y188500D01*
D02*
G37*
G36*
X416500Y164249D02*
Y161500D01*
X419249D01*
X418444Y163444D01*
X416500Y164249D01*
D02*
G37*
G36*
X413500D02*
X411555Y163444D01*
X410750Y161500D01*
X413500D01*
Y164249D01*
D02*
G37*
G36*
X419249Y158500D02*
X416500D01*
Y155750D01*
X418444Y156556D01*
X419249Y158500D01*
D02*
G37*
G36*
X413500D02*
X410750D01*
X411555Y156556D01*
X413500Y155750D01*
Y158500D01*
D02*
G37*
%LPD*%
D13*
X407500Y265000D02*
X427500D01*
Y255250D02*
Y265000D01*
X340500Y154250D02*
X340750Y154500D01*
X310500Y154250D02*
X340500D01*
X332750Y106000D02*
X360750D01*
Y107500D01*
X433250Y292000D02*
X456250D01*
X465000D02*
Y292000D01*
X456250Y292000D02*
X465000D01*
X433250D02*
Y297000D01*
X223450Y29750D02*
Y41450D01*
X240750Y58750D02*
X303000D01*
X223450Y41450D02*
X240750Y58750D01*
X282920Y88170D02*
X284920D01*
X287750Y91000D02*
X295750D01*
X284920Y88170D02*
X287750Y91000D01*
X304750Y69375D02*
Y88000D01*
X255250Y53750D02*
X306000D01*
X330000Y77750D02*
Y86750D01*
X306000Y53750D02*
X330000Y77750D01*
X460500Y347500D02*
X468750D01*
X443250Y330250D02*
X460500Y347500D01*
X443250Y320000D02*
Y330250D01*
X454375Y318625D02*
X456250Y316750D01*
X452500Y320500D02*
X454375Y318625D01*
Y319125D01*
X448250Y320000D02*
X448750Y320500D01*
X452500D01*
X456250Y312000D02*
Y316750D01*
Y307000D02*
Y312000D01*
X467000Y297000D02*
X472250Y291750D01*
X456250Y297000D02*
X467000D01*
X467750Y302000D02*
X471750Y306000D01*
X456250Y302000D02*
X467750D01*
X438250Y266000D02*
X444000Y260250D01*
Y254750D02*
Y260250D01*
X438250Y266000D02*
Y274000D01*
X433250Y264000D02*
X438250Y259000D01*
X433250Y264000D02*
Y274000D01*
X438250Y254750D02*
Y259000D01*
X319000Y107500D02*
X319750Y106750D01*
Y88000D02*
Y106750D01*
X324250Y107750D02*
X324750Y107250D01*
Y88000D02*
Y107250D01*
X315500Y149750D02*
X316250D01*
X309750Y144000D02*
X315500Y149750D01*
X294000Y140250D02*
X299750Y134500D01*
Y125000D02*
Y134500D01*
X251000Y161250D02*
X321500D01*
X222500Y189750D02*
X251000Y161250D01*
X292750Y69250D02*
X299750Y76250D01*
Y87000D01*
X262500Y113750D02*
X264750Y116000D01*
X296750D01*
X257000Y107250D02*
X258250Y106000D01*
X296750D01*
X249750Y99250D02*
X251500Y101000D01*
X296750D01*
X261000Y121250D02*
X295500D01*
X295750Y121000D01*
X236150Y96400D02*
X261000Y121250D01*
X304750Y148500D02*
X310500Y154250D01*
X304750Y124000D02*
Y148500D01*
X309750Y124000D02*
Y144000D01*
X314750Y124000D02*
Y140000D01*
X323000Y148250D01*
X388250D01*
X396000Y156000D01*
Y174950D01*
X396750Y175700D01*
X415750Y143500D02*
X428000Y155750D01*
X319750Y138250D02*
X325000Y143500D01*
X415750D01*
X319750Y124000D02*
Y138250D01*
X428000Y155750D02*
Y200750D01*
X329500Y137000D02*
X329750Y136750D01*
Y125000D02*
Y136750D01*
X281750Y96250D02*
X282000Y96000D01*
X296750D01*
X332750Y111000D02*
X352250D01*
X369750Y101000D02*
X371000Y99750D01*
X332750Y101000D02*
X369750D01*
X303000Y58750D02*
X314750Y70500D01*
X248850Y47350D02*
X255250Y53750D01*
X236150Y83750D02*
Y96400D01*
X329750Y87000D02*
X330000Y86750D01*
X248850Y29750D02*
Y47350D01*
X309750Y77250D02*
Y88000D01*
X314750Y70500D02*
Y88000D01*
D43*
X333750Y121000D02*
D03*
X295750Y91000D02*
D03*
Y121000D02*
D03*
X333750Y91000D02*
D03*
D44*
X329750Y125000D02*
D03*
Y87000D02*
D03*
X299750D02*
D03*
Y125000D02*
D03*
D45*
X324750Y88000D02*
D03*
X319750D02*
D03*
X314750D02*
D03*
X309750D02*
D03*
X304750D02*
D03*
Y124000D02*
D03*
X309750D02*
D03*
X314750D02*
D03*
X319750D02*
D03*
X324750D02*
D03*
D46*
X296750Y96000D02*
D03*
Y101000D02*
D03*
Y106000D02*
D03*
Y111000D02*
D03*
Y116000D02*
D03*
X332750D02*
D03*
Y111000D02*
D03*
Y106000D02*
D03*
Y101000D02*
D03*
Y96000D02*
D03*
D47*
X177750Y249550D02*
D03*
Y274950D02*
D03*
X93750Y249550D02*
D03*
Y274950D02*
D03*
X177250Y179800D02*
D03*
Y205200D02*
D03*
X93250Y179800D02*
D03*
Y205200D02*
D03*
X177250Y110050D02*
D03*
Y135450D02*
D03*
X93250Y110050D02*
D03*
Y135450D02*
D03*
X177750Y40100D02*
D03*
Y65500D02*
D03*
X93750Y40100D02*
D03*
Y65500D02*
D03*
D48*
X261550Y29750D02*
D03*
X248850D02*
D03*
X236150D02*
D03*
X223450D02*
D03*
Y83750D02*
D03*
X236150D02*
D03*
X248850D02*
D03*
X261550D02*
D03*
D49*
X202250Y45500D02*
D03*
Y59500D02*
D03*
X276000Y44000D02*
D03*
Y30000D02*
D03*
X454000Y52250D02*
D03*
Y66250D02*
D03*
X441250Y52500D02*
D03*
Y66500D02*
D03*
X453750Y123500D02*
D03*
Y137500D02*
D03*
X440750Y123750D02*
D03*
Y137750D02*
D03*
X493750Y333500D02*
D03*
Y347500D02*
D03*
X481250Y333500D02*
D03*
Y347500D02*
D03*
X468750Y333500D02*
D03*
Y347500D02*
D03*
X427500Y228750D02*
D03*
Y242750D02*
D03*
X413500Y228750D02*
D03*
Y242750D02*
D03*
X401000Y242750D02*
D03*
Y228750D02*
D03*
X305000Y187000D02*
D03*
Y201000D02*
D03*
X323500Y187000D02*
D03*
Y201000D02*
D03*
X202250Y186000D02*
D03*
Y200000D02*
D03*
X203250Y256000D02*
D03*
Y270000D02*
D03*
X268750Y399500D02*
D03*
Y385500D02*
D03*
X256250D02*
D03*
Y399500D02*
D03*
X202250Y129250D02*
D03*
Y115250D02*
D03*
D50*
X408500Y127750D02*
D03*
Y83750D02*
D03*
D51*
X385000Y125250D02*
D03*
X371000D02*
D03*
Y112500D02*
D03*
X385000D02*
D03*
X371000Y99750D02*
D03*
X385000D02*
D03*
X371000Y87250D02*
D03*
X385000D02*
D03*
X413500Y255250D02*
D03*
X427500D02*
D03*
X428000Y200750D02*
D03*
X414000D02*
D03*
X269250Y371750D02*
D03*
X255250D02*
D03*
X363000Y160750D02*
D03*
X377000D02*
D03*
D52*
X456250Y282000D02*
D03*
Y287000D02*
D03*
Y292000D02*
D03*
Y297000D02*
D03*
Y302000D02*
D03*
Y307000D02*
D03*
Y312000D02*
D03*
X410250D02*
D03*
Y307000D02*
D03*
Y302000D02*
D03*
Y297000D02*
D03*
Y292000D02*
D03*
Y287000D02*
D03*
Y282000D02*
D03*
D53*
X448250Y320000D02*
D03*
X443250D02*
D03*
X438250D02*
D03*
X433250D02*
D03*
X428250D02*
D03*
X423250D02*
D03*
X418250D02*
D03*
Y274000D02*
D03*
X423250D02*
D03*
X428250D02*
D03*
X433250D02*
D03*
X438250D02*
D03*
X443250D02*
D03*
X448250D02*
D03*
D54*
X433250Y297000D02*
D03*
D55*
X384250Y231500D02*
D03*
X354250D02*
D03*
D56*
X323500Y220750D02*
D03*
Y213750D02*
D03*
X304750Y220750D02*
D03*
Y213750D02*
D03*
D57*
X373000Y404750D02*
D03*
D58*
X113500Y410500D02*
D03*
Y476500D02*
D03*
D59*
X396750Y175700D02*
D03*
Y188400D02*
D03*
Y201100D02*
D03*
Y213800D02*
D03*
X342750D02*
D03*
Y201100D02*
D03*
Y188400D02*
D03*
Y175700D02*
D03*
D60*
Y188400D02*
X360250D01*
Y188750D01*
X295000Y187000D02*
X305000D01*
X295000D02*
Y190000D01*
X213000Y404500D02*
X213250Y404750D01*
X236000D01*
X257000Y416250D02*
Y416500D01*
X256250Y415500D02*
X257000Y416250D01*
X256250Y399500D02*
Y415500D01*
X251000Y404750D02*
X256250Y399500D01*
X236000Y404750D02*
X251000D01*
X341350Y187000D02*
X342750Y188400D01*
X323500Y187000D02*
X341350D01*
X305000D02*
X323500D01*
X260500Y438750D02*
X283750Y415500D01*
X236000Y438750D02*
X260500D01*
X283750Y378000D02*
Y415500D01*
X351250Y87250D02*
X371000D01*
X301000Y37000D02*
X351250Y87250D01*
X276000Y30000D02*
X294000D01*
X301000Y37000D01*
X214000Y114000D02*
Y185750D01*
Y49250D02*
Y114000D01*
X212750Y115250D02*
X214000Y114000D01*
X202250Y115250D02*
X212750D01*
X214000Y185750D02*
Y255375D01*
X213750Y186000D02*
X214000Y185750D01*
X202250Y186000D02*
X213750D01*
X214625Y256000D02*
X226000D01*
X203250D02*
X214625D01*
X214000Y255375D02*
X214625Y256000D01*
X210250Y45500D02*
X214000Y49250D01*
X202250Y45500D02*
X210250D01*
X226000Y256000D02*
X265250Y295250D01*
X349250Y236500D02*
X354250Y231500D01*
X286000Y236500D02*
X349250D01*
X270500Y221000D02*
X286000Y236500D01*
X270500Y205750D02*
Y221000D01*
Y180750D02*
X275550Y175700D01*
X342750D01*
X323500Y201000D02*
Y213750D01*
Y201000D02*
X323600Y201100D01*
X342750D01*
X304750Y213750D02*
X305000Y213500D01*
Y201000D02*
Y213500D01*
X304750Y213750D02*
X323500D01*
X381650Y188400D02*
X396750D01*
X377000Y183750D02*
X381650Y188400D01*
X377000Y160750D02*
Y183750D01*
X354250Y225300D02*
Y231500D01*
X342750Y213800D02*
X354250Y225300D01*
X413500Y242750D02*
Y255250D01*
X401000Y242750D02*
X413500D01*
X396750Y213800D02*
X401443D01*
X401000Y228750D02*
X401443Y228307D01*
Y213800D02*
Y228307D01*
X413650Y201100D02*
X414000Y200750D01*
X396750Y201100D02*
X413650D01*
X413500Y228750D02*
X427500D01*
X384250Y231500D02*
X387000Y228750D01*
X401000D01*
X481250Y333500D02*
X493750D01*
X468750D02*
X481250D01*
X277500Y371750D02*
X283750Y378000D01*
X269250Y371750D02*
X277500D01*
X268500Y412000D02*
X268750Y411750D01*
Y399500D02*
Y411750D01*
X238250Y385500D02*
X256250D01*
X236000Y387750D02*
X238250Y385500D01*
X256250D02*
X268750D01*
X254250Y370750D02*
X255250Y371750D01*
X236000Y370750D02*
X254250D01*
X182700Y270000D02*
X203250D01*
X453000Y151000D02*
X453750Y150250D01*
Y137500D02*
Y150250D01*
X453250Y82500D02*
X454000Y81750D01*
Y66250D02*
Y81750D01*
X385000Y125250D02*
X387500Y127750D01*
X408500D01*
X385000Y112500D02*
Y125250D01*
X371000Y99750D02*
Y112500D01*
Y87250D02*
Y99750D01*
X261550Y29750D02*
X261800Y30000D01*
X276000D01*
X177250Y135450D02*
X183450Y129250D01*
X202250D01*
X177250Y205200D02*
X182450Y200000D01*
X202250D01*
X177750Y274950D02*
X182700Y270000D01*
X68250Y267500D02*
X75700Y274950D01*
X93750D01*
X68250Y197000D02*
X76450Y205200D01*
X93250D01*
X67750Y126750D02*
X76450Y135450D01*
X93250D01*
X177750Y65500D02*
X183750Y59500D01*
X202250D01*
X67750Y57000D02*
X76250Y65500D01*
X93750D01*
X450000Y119750D02*
X453750Y123500D01*
X447250Y119750D02*
X450000D01*
X444750D02*
X447250D01*
X440750Y123750D02*
X444750Y119750D01*
D61*
X260250Y47000D02*
X276000D01*
Y44000D02*
Y47000D01*
X454375Y319125D02*
X468750Y333500D01*
D62*
X113500Y410500D02*
X162750D01*
X197000Y444750D02*
Y447750D01*
X162750Y410500D02*
X197000Y444750D01*
X18500Y217000D02*
Y220750D01*
Y148250D02*
Y217000D01*
Y78500D02*
Y148250D01*
Y78500D02*
X43000D01*
X18500Y52375D02*
Y78500D01*
X19000Y25250D02*
Y51875D01*
X18500Y52375D02*
X19000Y51875D01*
Y25250D02*
X32750Y11500D01*
X487750D01*
X500750Y24500D01*
X501500Y23750D01*
X523500D01*
X526500Y26750D01*
Y92250D01*
X524250Y94500D02*
X526500Y92250D01*
X500750Y94500D02*
X524250D01*
X18750Y148250D02*
X43000D01*
X22250Y217000D02*
X23250Y218000D01*
X43000D01*
X18500Y220750D02*
X22250Y217000D01*
X18500Y220750D02*
Y282500D01*
X23750Y287750D01*
X43000D01*
X227000Y447750D02*
X236000Y438750D01*
X197000Y447750D02*
X227000D01*
X43000Y287750D02*
X58000D01*
X113500Y343250D01*
Y410500D01*
X58750Y476500D02*
X113500D01*
X43000Y460750D02*
X58750Y476500D01*
D63*
X451500Y49750D02*
X454000Y52250D01*
X447500Y49750D02*
X451500D01*
D64*
X43000Y43500D02*
D03*
Y78500D02*
D03*
X43000Y113250D02*
D03*
Y148250D02*
D03*
Y183000D02*
D03*
Y218000D02*
D03*
Y252750D02*
D03*
Y287750D02*
D03*
X43000Y392000D02*
D03*
Y357000D02*
D03*
Y322000D02*
D03*
X43000Y425750D02*
D03*
Y460750D02*
D03*
X500750Y129500D02*
D03*
Y94500D02*
D03*
X500750Y59500D02*
D03*
Y24500D02*
D03*
D65*
X162250Y368000D02*
D03*
D66*
X197250D02*
D03*
D67*
X402600Y37000D02*
D03*
X377200D02*
D03*
X326400D02*
D03*
X351800D02*
D03*
X270500Y205750D02*
D03*
D68*
X301000Y37000D02*
D03*
D69*
X443250Y307000D02*
D03*
X423250D02*
D03*
Y287000D02*
D03*
X443250D02*
D03*
X433250Y297000D02*
D03*
D70*
X265250Y295250D02*
D03*
D71*
Y270250D02*
D03*
X172000Y447750D02*
D03*
D72*
X236000Y438750D02*
D03*
Y421750D02*
D03*
Y404750D02*
D03*
Y387750D02*
D03*
Y370750D02*
D03*
D73*
X197000Y447750D02*
D03*
D74*
X270500Y180750D02*
D03*
D75*
X402500Y390000D02*
D03*
Y415000D02*
D03*
X382500D02*
D03*
Y390000D02*
D03*
X362500D02*
D03*
Y415000D02*
D03*
X342500D02*
D03*
Y390000D02*
D03*
Y367500D02*
D03*
X355000Y136250D02*
D03*
X401750Y98750D02*
D03*
X446250Y33000D02*
D03*
X494250Y364250D02*
D03*
X480500Y363500D02*
D03*
X529000Y357500D02*
D03*
X483250Y263750D02*
D03*
X526750Y234500D02*
D03*
X543750Y269500D02*
D03*
X543000Y321000D02*
D03*
X398750Y256000D02*
D03*
X453000Y241750D02*
D03*
X360250Y188750D02*
D03*
X332500Y269500D02*
D03*
X309250Y249750D02*
D03*
X265000Y333250D02*
D03*
X350250Y338000D02*
D03*
X392750Y339250D02*
D03*
X435000Y338250D02*
D03*
X450250Y369750D02*
D03*
X451000Y399000D02*
D03*
X451250Y432750D02*
D03*
X444750Y469750D02*
D03*
X380500Y467250D02*
D03*
X323250Y466000D02*
D03*
X98750Y236500D02*
D03*
X176000Y234750D02*
D03*
X172750Y164500D02*
D03*
X91500D02*
D03*
X93000Y93500D02*
D03*
X177250Y92500D02*
D03*
X176500Y22500D02*
D03*
X94500Y22250D02*
D03*
X202250Y87000D02*
D03*
X202750Y227750D02*
D03*
X202000Y158250D02*
D03*
X282500Y133000D02*
D03*
X407750Y64750D02*
D03*
X260250Y47000D02*
D03*
X469500Y332750D02*
D03*
X203000Y255000D02*
D03*
X304750Y220750D02*
D03*
X323500D02*
D03*
X68250Y267500D02*
D03*
Y197000D02*
D03*
X67750Y126750D02*
D03*
Y57000D02*
D03*
X447250Y119750D02*
D03*
X440750Y137750D02*
D03*
X441500Y67000D02*
D03*
X447500Y49750D02*
D03*
D76*
X340750Y154500D02*
D03*
X542500Y475000D02*
D03*
X535000Y460000D02*
D03*
X542500Y445000D02*
D03*
X535000Y430000D02*
D03*
X542500Y415000D02*
D03*
X535000Y400000D02*
D03*
X542500Y385000D02*
D03*
X535000Y370000D02*
D03*
X542500Y355000D02*
D03*
Y295000D02*
D03*
Y235000D02*
D03*
X535000Y220000D02*
D03*
X542500Y205000D02*
D03*
X535000Y190000D02*
D03*
X542500Y175000D02*
D03*
X535000Y160000D02*
D03*
X542500Y145000D02*
D03*
X535000Y130000D02*
D03*
X542500Y115000D02*
D03*
X535000Y100000D02*
D03*
X542500Y85000D02*
D03*
Y55000D02*
D03*
Y25000D02*
D03*
X535000Y10000D02*
D03*
X527500Y475000D02*
D03*
X520000Y460000D02*
D03*
X527500Y445000D02*
D03*
X520000Y430000D02*
D03*
X527500Y415000D02*
D03*
X520000Y400000D02*
D03*
X527500Y385000D02*
D03*
X520000Y370000D02*
D03*
Y220000D02*
D03*
X527500Y205000D02*
D03*
X520000Y190000D02*
D03*
X527500Y175000D02*
D03*
X520000Y160000D02*
D03*
X527500Y145000D02*
D03*
X520000Y130000D02*
D03*
X527500Y115000D02*
D03*
X520000Y10000D02*
D03*
X512500Y475000D02*
D03*
X505000Y460000D02*
D03*
X512500Y445000D02*
D03*
X505000Y430000D02*
D03*
X512500Y415000D02*
D03*
X505000Y400000D02*
D03*
X512500Y385000D02*
D03*
X505000Y370000D02*
D03*
X512500Y355000D02*
D03*
Y235000D02*
D03*
X505000Y220000D02*
D03*
X512500Y205000D02*
D03*
X505000Y190000D02*
D03*
X512500Y175000D02*
D03*
X505000Y160000D02*
D03*
X512500Y145000D02*
D03*
Y115000D02*
D03*
X497500Y475000D02*
D03*
X490000Y460000D02*
D03*
X497500Y445000D02*
D03*
X490000Y430000D02*
D03*
X497500Y415000D02*
D03*
X490000Y400000D02*
D03*
X497500Y385000D02*
D03*
X490000Y370000D02*
D03*
X497500Y235000D02*
D03*
X490000Y220000D02*
D03*
X497500Y205000D02*
D03*
X490000Y190000D02*
D03*
X497500Y175000D02*
D03*
X490000Y160000D02*
D03*
Y40000D02*
D03*
X482500Y475000D02*
D03*
X475000Y460000D02*
D03*
X482500Y445000D02*
D03*
X475000Y430000D02*
D03*
X482500Y415000D02*
D03*
X475000Y400000D02*
D03*
X482500Y385000D02*
D03*
X475000Y370000D02*
D03*
Y280000D02*
D03*
Y250000D02*
D03*
X482500Y235000D02*
D03*
X475000Y220000D02*
D03*
X482500Y205000D02*
D03*
X475000Y190000D02*
D03*
X482500Y175000D02*
D03*
X475000Y160000D02*
D03*
X482500Y145000D02*
D03*
Y115000D02*
D03*
X475000Y100000D02*
D03*
X482500Y85000D02*
D03*
X475000Y70000D02*
D03*
Y40000D02*
D03*
X482500Y25000D02*
D03*
X467500Y475000D02*
D03*
X460000Y460000D02*
D03*
X467500Y445000D02*
D03*
X460000Y430000D02*
D03*
X467500Y415000D02*
D03*
X460000Y400000D02*
D03*
X467500Y385000D02*
D03*
X460000Y370000D02*
D03*
X467500Y265000D02*
D03*
X460000Y250000D02*
D03*
X467500Y235000D02*
D03*
X460000Y220000D02*
D03*
X467500Y205000D02*
D03*
X460000Y190000D02*
D03*
X467500Y175000D02*
D03*
X460000Y160000D02*
D03*
X467500Y145000D02*
D03*
Y115000D02*
D03*
X460000Y100000D02*
D03*
X467500Y85000D02*
D03*
X460000Y40000D02*
D03*
X467500Y25000D02*
D03*
X452500Y475000D02*
D03*
X445000Y460000D02*
D03*
X452500Y445000D02*
D03*
X445000Y430000D02*
D03*
X452500Y415000D02*
D03*
Y385000D02*
D03*
Y355000D02*
D03*
Y235000D02*
D03*
Y205000D02*
D03*
X445000Y190000D02*
D03*
X452500Y175000D02*
D03*
X445000Y160000D02*
D03*
Y40000D02*
D03*
X452500Y25000D02*
D03*
X437500Y475000D02*
D03*
Y175000D02*
D03*
X430000Y130000D02*
D03*
X437500Y85000D02*
D03*
X430000Y70000D02*
D03*
Y40000D02*
D03*
X437500Y25000D02*
D03*
X422500Y475000D02*
D03*
X415000Y160000D02*
D03*
Y100000D02*
D03*
Y70000D02*
D03*
X422500Y55000D02*
D03*
Y25000D02*
D03*
X400000Y340000D02*
D03*
X407500Y265000D02*
D03*
Y115000D02*
D03*
X400000Y70000D02*
D03*
X407500Y55000D02*
D03*
X385000Y340000D02*
D03*
Y310000D02*
D03*
Y280000D02*
D03*
Y250000D02*
D03*
X392500Y55000D02*
D03*
X377500Y325000D02*
D03*
X370000Y250000D02*
D03*
Y220000D02*
D03*
X377500Y205000D02*
D03*
X370000Y190000D02*
D03*
X362500Y325000D02*
D03*
Y205000D02*
D03*
X355000Y70000D02*
D03*
X362500Y55000D02*
D03*
Y25000D02*
D03*
X347500Y325000D02*
D03*
X340000Y310000D02*
D03*
Y280000D02*
D03*
X347500Y265000D02*
D03*
X340000Y250000D02*
D03*
Y130000D02*
D03*
X332500Y325000D02*
D03*
X325000Y310000D02*
D03*
Y280000D02*
D03*
Y250000D02*
D03*
X310000Y280000D02*
D03*
X295000Y460000D02*
D03*
Y400000D02*
D03*
Y280000D02*
D03*
Y250000D02*
D03*
Y190000D02*
D03*
X280000Y460000D02*
D03*
X287500Y325000D02*
D03*
X280000Y310000D02*
D03*
X287500Y265000D02*
D03*
X280000Y250000D02*
D03*
X287500Y205000D02*
D03*
Y145000D02*
D03*
X265000Y460000D02*
D03*
X272500Y325000D02*
D03*
X265000Y310000D02*
D03*
X272500Y145000D02*
D03*
X250000Y460000D02*
D03*
X257500Y325000D02*
D03*
X250000Y310000D02*
D03*
X257500Y235000D02*
D03*
X250000Y220000D02*
D03*
Y190000D02*
D03*
X235000Y460000D02*
D03*
Y250000D02*
D03*
X242500Y235000D02*
D03*
X235000Y220000D02*
D03*
X242500Y205000D02*
D03*
X235000Y190000D02*
D03*
Y130000D02*
D03*
X242500Y115000D02*
D03*
X235000Y70000D02*
D03*
X220000Y430000D02*
D03*
Y370000D02*
D03*
X227500Y325000D02*
D03*
X220000Y310000D02*
D03*
X227500Y295000D02*
D03*
Y115000D02*
D03*
Y55000D02*
D03*
X212500Y475000D02*
D03*
X205000Y430000D02*
D03*
X212500Y415000D02*
D03*
X205000Y400000D02*
D03*
X212500Y385000D02*
D03*
X205000Y340000D02*
D03*
X212500Y325000D02*
D03*
X205000Y280000D02*
D03*
Y100000D02*
D03*
Y70000D02*
D03*
X197500Y415000D02*
D03*
X190000Y400000D02*
D03*
X197500Y385000D02*
D03*
X190000Y340000D02*
D03*
X197500Y325000D02*
D03*
Y295000D02*
D03*
Y145000D02*
D03*
X182500Y415000D02*
D03*
X175000Y310000D02*
D03*
X182500Y295000D02*
D03*
X175000Y220000D02*
D03*
X167500Y475000D02*
D03*
X160000Y460000D02*
D03*
Y430000D02*
D03*
Y340000D02*
D03*
Y310000D02*
D03*
X167500Y295000D02*
D03*
X160000Y280000D02*
D03*
Y250000D02*
D03*
X167500Y235000D02*
D03*
X160000Y220000D02*
D03*
Y190000D02*
D03*
Y160000D02*
D03*
Y130000D02*
D03*
Y100000D02*
D03*
X167500Y85000D02*
D03*
X160000Y70000D02*
D03*
Y40000D02*
D03*
X167500Y25000D02*
D03*
X152500Y475000D02*
D03*
X145000Y460000D02*
D03*
X152500Y445000D02*
D03*
X145000Y430000D02*
D03*
Y370000D02*
D03*
X152500Y355000D02*
D03*
X145000Y340000D02*
D03*
Y310000D02*
D03*
X152500Y295000D02*
D03*
X145000Y280000D02*
D03*
X152500Y265000D02*
D03*
X145000Y250000D02*
D03*
X152500Y235000D02*
D03*
X145000Y220000D02*
D03*
X152500Y205000D02*
D03*
X145000Y190000D02*
D03*
X152500Y175000D02*
D03*
X145000Y160000D02*
D03*
X152500Y145000D02*
D03*
X145000Y130000D02*
D03*
X152500Y115000D02*
D03*
X145000Y100000D02*
D03*
X152500Y85000D02*
D03*
X145000Y70000D02*
D03*
X152500Y55000D02*
D03*
X145000Y40000D02*
D03*
X152500Y25000D02*
D03*
X137500Y475000D02*
D03*
Y445000D02*
D03*
X130000Y430000D02*
D03*
Y370000D02*
D03*
X137500Y355000D02*
D03*
X130000Y340000D02*
D03*
Y310000D02*
D03*
X137500Y295000D02*
D03*
X130000Y280000D02*
D03*
X137500Y265000D02*
D03*
X130000Y250000D02*
D03*
X137500Y235000D02*
D03*
X130000Y220000D02*
D03*
X137500Y205000D02*
D03*
X130000Y190000D02*
D03*
X137500Y175000D02*
D03*
X130000Y160000D02*
D03*
X137500Y145000D02*
D03*
X130000Y130000D02*
D03*
X137500Y115000D02*
D03*
X130000Y100000D02*
D03*
X137500Y85000D02*
D03*
X130000Y70000D02*
D03*
X137500Y55000D02*
D03*
X130000Y40000D02*
D03*
X137500Y25000D02*
D03*
X122500Y445000D02*
D03*
X115000Y430000D02*
D03*
Y310000D02*
D03*
X122500Y295000D02*
D03*
X115000Y280000D02*
D03*
X122500Y265000D02*
D03*
X115000Y250000D02*
D03*
X122500Y235000D02*
D03*
X115000Y220000D02*
D03*
X122500Y205000D02*
D03*
X115000Y190000D02*
D03*
X122500Y175000D02*
D03*
X115000Y160000D02*
D03*
X122500Y145000D02*
D03*
X115000Y130000D02*
D03*
X122500Y115000D02*
D03*
X115000Y100000D02*
D03*
X122500Y85000D02*
D03*
X115000Y70000D02*
D03*
X122500Y55000D02*
D03*
X115000Y40000D02*
D03*
X122500Y25000D02*
D03*
X107500Y445000D02*
D03*
X100000Y430000D02*
D03*
Y370000D02*
D03*
Y310000D02*
D03*
X107500Y295000D02*
D03*
Y235000D02*
D03*
X100000Y220000D02*
D03*
Y160000D02*
D03*
X107500Y85000D02*
D03*
Y25000D02*
D03*
X85000Y460000D02*
D03*
X92500Y445000D02*
D03*
X85000Y430000D02*
D03*
Y370000D02*
D03*
X92500Y355000D02*
D03*
Y295000D02*
D03*
Y235000D02*
D03*
X85000Y220000D02*
D03*
Y160000D02*
D03*
X92500Y85000D02*
D03*
X70000Y460000D02*
D03*
X77500Y445000D02*
D03*
X70000Y430000D02*
D03*
X77500Y415000D02*
D03*
X70000Y370000D02*
D03*
Y340000D02*
D03*
X77500Y325000D02*
D03*
Y235000D02*
D03*
X70000Y220000D02*
D03*
Y160000D02*
D03*
Y100000D02*
D03*
X77500Y85000D02*
D03*
Y55000D02*
D03*
Y25000D02*
D03*
X62500Y445000D02*
D03*
Y415000D02*
D03*
X55000Y370000D02*
D03*
Y340000D02*
D03*
X62500Y325000D02*
D03*
Y235000D02*
D03*
Y145000D02*
D03*
X55000Y130000D02*
D03*
Y100000D02*
D03*
X62500Y85000D02*
D03*
Y25000D02*
D03*
X47500Y445000D02*
D03*
Y235000D02*
D03*
X40000Y130000D02*
D03*
X47500Y25000D02*
D03*
X32500Y475000D02*
D03*
X25000Y460000D02*
D03*
X32500Y445000D02*
D03*
X25000Y430000D02*
D03*
Y400000D02*
D03*
Y370000D02*
D03*
Y340000D02*
D03*
Y310000D02*
D03*
X32500Y235000D02*
D03*
X17500Y475000D02*
D03*
X10000Y460000D02*
D03*
X17500Y445000D02*
D03*
X10000Y430000D02*
D03*
X17500Y415000D02*
D03*
X10000Y400000D02*
D03*
X17500Y385000D02*
D03*
X10000Y370000D02*
D03*
X17500Y355000D02*
D03*
X10000Y340000D02*
D03*
X17500Y325000D02*
D03*
X10000Y310000D02*
D03*
Y10000D02*
D03*
X282920Y88170D02*
D03*
X304750Y69375D02*
D03*
X471750Y306000D02*
D03*
X472250Y291750D02*
D03*
X268500Y412000D02*
D03*
X444000Y254750D02*
D03*
X438250D02*
D03*
X319000Y107500D02*
D03*
X324250Y107750D02*
D03*
X316250Y149750D02*
D03*
X294000Y140250D02*
D03*
X222500Y189750D02*
D03*
X321500Y161250D02*
D03*
X202750Y270250D02*
D03*
X292750Y69250D02*
D03*
X202500Y200250D02*
D03*
X262500Y113750D02*
D03*
X202000Y129250D02*
D03*
X257000Y107250D02*
D03*
X202250Y60000D02*
D03*
X249750Y99250D02*
D03*
X453000Y151000D02*
D03*
X453250Y82500D02*
D03*
X329500Y137000D02*
D03*
X281750Y96250D02*
D03*
X385000Y112500D02*
D03*
X352250Y111000D02*
D03*
X261500Y89250D02*
D03*
X249250Y77250D02*
D03*
X309750D02*
D03*
X236000Y34250D02*
D03*
M02*
