M48
;Layer_Color=9474304
;FILE_FORMAT=4:4
METRIC,LZ
;TYPE=PLATED
T1F00S00C0.2000
T2F00S00C0.3000
T3F00S00C0.8000
T4F00S00C1.0000
T5F00S00C1.1000
T6F00S00C1.2000
%
T01
X0001Y0001
X000475Y00025
X000625
X000775
X001075
X001225
X001375
X001525
X001675
X0016Y0004
X00145
X0013
X00115
X001225Y00055
X001375
X001525
X00145Y0007
X0016
X001675Y00085
X001525
X001375
X001225
X001075
X000925
X000775
X000625
X00055Y001
X0007
X00115
X0013
X00145
X0016
X001525Y00115
X001375
X001225
X00115Y0013
X0013
X00145
X0016
X001525Y00145
X001375
X001225
X00115Y0016
X0013
X00145
X0016
X001525Y00175
X001375
X001225
X001Y0016
X00085
X0007
X000625Y00145
X00055Y0013
X0004
X000775Y00055
X00115Y0007
X0013
X00205
X0020225Y0006
X002275Y00055
X00235Y0007
X0024925Y0007725
X0024975Y0009925
X00257Y0010725
X002625Y0011375
X002425Y00115
X002275
X00235Y0013
X00202Y0012925
X001975Y00145
X00205Y001
X002615Y0008925
X0028292Y0008817
X0028175Y0009625
X0029275Y0006925
X0030475Y00069375
X0030975Y0007725
X00319Y001075
X0032425Y0010775
X0035225Y00111
X0034Y0013
X003295Y00137
X0031625Y0014975
X003215Y0016125
X0034075Y001545
X00294Y0014025
X002875Y00145
X002725
X00236Y0003425
X00355Y0007
X003625Y00055
X003925
X004075
X004225
X00415Y0007
X0043
X004375Y00085
X0045325Y000825
X004675Y00085
X004825
X00475Y001
X0046
X004675Y00115
X004825
X005125
X005275
X005425
X00535Y0013
X0052
X005275Y00145
X005425
X00535Y0016
X0052
X00505
X0049
X00475
X0046
X00445
X00453Y00151
X004675Y00145
X004825
X005125
Y00175
X005275
X005425
X004975
X004825
X004675
X004525
X004375
X00415Y0016
X0043Y0013
X004075Y00115
X00415Y001
X00385Y001125
X004Y0007
X0043Y0004
X00445
X0046
X00475
X0049
X004825Y00025
X004675
X004525
X004375
X004225
X003625
X00475Y0007
X005425Y00085
X00535Y001
X005425Y00055
Y00025
X00535Y0001
X0052
Y0019
X00535
X005425Y00205
X005275
X005125
X004975
X004825
X004675
X004525
X00445Y0019
X0046
X00475
X0049
X00505
Y0022
X0052
X00535
X005425Y00235
X005125
X004975
X004825
X004675
X004525
X0046Y0025
X00475
X004675Y00265
X00475Y0028
X0047225Y0029175
X0047175Y00306
X00475Y0037
X0049
X00505
X0052
X00535
X005425Y00385
X005275
X005125
X004975
X004825
X004675
X004525
X0046Y004
X00475
X0049
X00505
X0052
X00535
X005425Y00415
X005275
X005125
X004975
X004825
X004675
X004525
X00445Y0043
X0046
X00475
X0049
X00505
X0052
X00535
X005425Y00445
X005275
X005125
X004975
X004825
X004675
X004525
X00445Y0046
X0046
X00475
X0049
X00505
X0052
X00535
X005425Y00475
X005275
X005125
X004975
X004825
X004675
X004525
X004375
X004225
X0046Y0037
X004525Y00355
X005125
X005425
Y00295
X0049Y0022
X00475
X0046
X00444Y0025475
X0043825
X004075Y00265
X00385Y0028
Y0031
X003775Y00325
X003625
X00385Y0034
X004
X00385Y0025
X0037
Y0022
X003775Y00205
X003625
X0037Y0019
X00295
X002875Y00205
X002425
X00235Y0022
X0025
X002575Y00235
X002425
X00235Y0025
X0028
X00295
X002875Y00265
X00295Y0028
X0031
X00325
X0034
X003475Y00265
X0034Y0025
X00325
Y0031
X0034
X003475Y00325
X003325
X002875
X002725
X002575
X0025Y0031
X00265
X0028
X0022
X002275Y00325
X002125
X001975
X0019Y0034
X00205
X0022Y0037
X002125Y00385
X001975
X0019Y004
X00205
X002125Y00415
X001975
X001825
X0016Y0043
X00145
X0013
X00115
X001
X00085
X0007
X000775Y00445
X000925
X001075
X001225
X001375
X001525
X00145Y0046
X0016
X001675Y00475
X001525
X001375
X00085Y0046
X0007
X000625Y00445
X000475
X000325
X000175
X0001Y0046
X00025
X000325Y00475
X000175
X0001Y0043
X00025
X000175Y00415
X0001Y004
X00025
X000175Y00385
X0001Y0037
X00025
X000175Y00355
X0001Y0034
X00025
X000175Y00325
X0001Y0031
X00025
X000625Y00325
X000775
X0007Y0034
X00055
Y0037
X0007
X00085
X001
X000925Y00355
X001375
X001525
X00145Y0037
X0013
Y0034
X00145
X0016
Y0031
X00175
X001825Y00295
X001975
X00205Y0028
X0020275Y0027025
X002275Y00295
X001675
X001525
X001375
X001225
X001075
X000925
X001Y0031
X00115
X0013
X00145
Y0028
X0016
X001525Y00265
X001375
X001225
X00115Y0028
X0013
Y0025
X00145
X0016
X001675Y00235
X001525
X001375
X001225
X001075
X000925
X000775
X000625
X000475
X000325
X0007Y0022
X00085
X001
X00115
X0013
X00145
X0016
X00175
X001525Y00205
X001375
X001225
X00115Y0019
X0013
X00145
X0016
X002025Y0020025
X002225Y0018975
X00235Y0019
X0025
X00115Y0025
X000775Y00415
X000625
X00205Y0043
X0022
X00235Y0046
X0025
X00265
X0028
X00295
Y004
X002685Y00412
X002125Y00475
T02
X000945Y0002225
X0006775Y00057
X00093Y000935
X0006775Y0012675
X000915Y001645
X0017275
X00202Y0015825
X0020225Y00087
X0017725Y000925
X001765Y000225
X0026025Y00047
X002825Y00133
X00355Y0013625
X0040175Y0009875
X0040775Y0006475
X004415Y00067
X004475Y0004975
X0044625Y00033
X0044725Y0011975
X0044075Y0013775
X00453Y0024175
X0048325Y0026375
X0044325Y00287
Y00307
X0042325
Y00287
X0043325Y00297
X00435Y0033825
X004695Y0033275
X004805Y003635
X0049425Y0036425
X00529Y003575
X00543Y00321
X0054375Y002695
X0052675Y002345
X0039875Y00256
X0039275Y0033925
X004025Y0039
X003825
X003625
Y00415
X003825
X004025
X00451Y00399
X0045025Y0036975
X0045125Y0043275
X0044475Y0046975
X003805Y0046725
X0032325Y00466
X003425Y00415
Y0039
Y003675
X0035025Y00338
X003325Y002695
X0030925Y0024975
X0030475Y0022075
X003235
X0036025Y0018875
X0020275Y0022775
X00203Y00255
X00176Y0023475
X0009875Y002365
X0006825Y002675
Y00197
X00265Y0033325
T03
X0016225Y00368
X0019725
X00197Y0044775
X00172
X0026525Y0029525
Y0027025
T04
X002705Y0018075
Y0020575
T05
X00301Y00037
X003264
X003518
X003772
X004026
T06
X00043Y000435
Y000785
X00043Y0011325
Y0014825
X0050075Y001295
Y000945
X0050075Y000595
Y000245
X00236Y0037075
Y0038775
Y0040475
Y0042175
Y0043875
X00043Y0042575
X00043Y00392
Y00357
Y00322
X00043Y0028775
Y0025275
Y00218
Y00183
Y0046075
M30
